<svg width="360" height="9767" viewBox="0 0 360 9767" fill="none" xmlns="http://www.w3.org/2000/svg">
<g clip-path="url(#clip0_412_6843)">
<path d="M424.12 116.93C361.93 117.46 300.44 145.16 258.86 191.41C248.06 203.41 238.3 217.16 235.14 233.01C230.4 256.83 241.49 281.36 257.31 299.79C267.55 311.71 280.72 324.15 279.56 339.79C278.36 355.85 262.84 366.24 252.41 378.51C243.81 388.64 238.09 402.12 240.5 415.18C243.59 431.95 259.28 443.93 275.66 448.67C295.74 454.47 317.66 451.67 336.99 443.75C356.32 435.83 373.32 422.99 388.57 408.75C440.061 360.185 472.914 295.117 481.42 224.85C484.42 199.17 483.68 171.24 471.89 147.67C460.59 125.06 450.27 116.71 424.12 116.93Z" fill="#FDF1E5"/>
<path d="M8.22003 496.63C18.95 501.63 30.71 503.87 42.22 506.7C88.8 518.14 135.17 542.37 158.65 584.19C164.29 594.25 168.52 605.28 169.41 616.77C170.3 628.26 167.62 640.27 160.6 649.42C156.44 654.86 150.92 659.11 145.18 662.86C134.03 670.12 121.48 675.77 108.18 676.74C89.56 678.11 70.9 670.24 52.47 673.26C38.52 675.54 26.22 683.85 12.43 686.77C-9.56997 691.44 -32.77 681.55 -48.67 665.68C-64.57 649.81 -74.16 628.68 -81.28 607.42C-88.99 584.34 -94.28 559.91 -91.55 535.72C-88.82 511.53 -77.36 487.5 -57.19 473.85C-47.67 467.42 -29.13 460.85 -18.74 469.43C-14.49 472.92 -13.24 479.08 -9.60997 483.43C-4.70142 489.078 1.38441 493.584 8.22003 496.63Z" fill="#F3F6EA"/>
<path d="M405.31 814.52C370.763 801.514 332.468 802.736 298.82 817.92C277.32 827.75 257.99 843.79 247.82 865.15C237.65 886.51 238 913.45 251.82 932.64C270.82 959.1 308.55 964.84 331.49 987.98C335.16 991.68 338.63 996.59 337.55 1001.69C336.47 1006.79 331.15 1009.96 327.24 1013.62C316.67 1023.51 315.68 1041.19 323.24 1053.54C330.8 1065.89 345.3 1072.94 359.75 1073.8C374.2 1074.66 388.53 1069.96 401.23 1063.03C441.17 1041.23 465.92 998.47 477.82 954.55C482.31 937.99 485.26 920.55 482.27 903.7C475.48 865.28 441.22 828.24 405.31 814.52Z" fill="#FDF1E5"/>
<path d="M26.5202 1120.59C24.7702 1138.95 20.9702 1157.17 21.1602 1175.59C21.3502 1194.01 26.0902 1213.35 38.9702 1226.59C53.4502 1241.43 75.3902 1246.03 92.4902 1257.77C107.73 1268.24 118.65 1284.21 125.26 1301.47C131.45 1317.63 134.08 1335.41 130.91 1352.47C123.91 1390.1 90.3502 1417.23 55.5602 1433.2C31.4702 1444.26 4.56018 1451.74 -21.4898 1446.64C-64.1898 1438.27 -93.8598 1398.13 -107.99 1356.98C-121.87 1316.33 -124.788 1272.73 -116.45 1230.59C-111.16 1204.02 -101.45 1178.54 -94.5198 1152.35C-78.8798 1093.35 -78.7398 1030.99 -61.3898 972.43C-55.1498 951.43 -39.0298 945.55 -20.3898 958.27C-0.289818 971.85 9.10019 1001.06 16.0402 1023.13C25.9828 1054.6 29.5457 1087.73 26.5202 1120.59Z" fill="#F3F6EA"/>
<path d="M103.08 1143.67C102.64 1153.73 104.82 1164.38 111.49 1171.92C117.79 1179.04 127.28 1182.53 136.63 1184.25C152.81 1187.25 171.63 1184.69 181.96 1171.89C188.75 1163.48 190.67 1152.24 195.42 1142.54C202.92 1127.25 217.23 1113.23 207.55 1095.54C200.74 1083.09 188.55 1075.95 174.65 1077.3C138.99 1080.76 104.74 1105.92 103.08 1143.67Z" fill="#F3F6EA"/>
<path d="M334.44 1413.71C314.59 1453.99 320.79 1501.57 315.07 1546.11C312.41 1566.74 306.63 1587.92 292.57 1603.25C267.74 1630.32 225.42 1631.19 189.32 1624.4C153.22 1617.61 116.55 1605.17 80.6 1612.69C67.1212 1615.59 54.371 1621.19 43.1211 1629.16C31.8712 1637.14 22.3555 1647.31 15.15 1659.06C5.58002 1674.86 0.490022 1694.29 5.58002 1712.06C13.03 1738.06 42.15 1754.43 69.05 1751.43C95.52 1748.43 117.52 1730.55 141.74 1719.43C170.35 1706.35 205.67 1703.37 232.24 1720.21C266.48 1741.91 277.58 1789.71 312.68 1809.99C336.68 1823.82 367.89 1821.27 391.87 1807.51C415.85 1793.75 433.04 1770.13 443.55 1744.51C454.06 1718.89 458.43 1691.29 461.55 1663.82C465.06 1633.32 467.15 1602.3 461.96 1572.04C455.26 1533.04 436.89 1497.48 420.19 1462.04C412.04 1444.7 403.6 1427.11 397.9 1408.77C394.27 1397.12 393.9 1386.19 380.19 1383.13C359.22 1378.46 342.75 1396.85 334.44 1413.71Z" fill="#FDF1E5"/>
<path d="M-46.4105 2023C-43.4905 2009.45 -33.0605 1998.32 -20.6305 1992.19C-8.20047 1986.06 6.02953 1984.47 19.8695 1985.02C32.7795 1985.53 46.0995 1988.02 56.6095 1995.55C77.7795 2010.7 81.0995 2040.27 82.9895 2066.23C84.8795 2092.19 89.4295 2121.94 111.58 2135.63C131.83 2148.14 158.22 2141.52 180.09 2132.11C201.96 2122.7 224.34 2110.56 248.01 2113.11C274.8 2116.02 296.43 2137.84 307.36 2162.48C321.36 2193.98 320.53 2232.66 301.55 2261.43C282.57 2290.2 244.55 2306.33 211.62 2296.22C196.62 2291.63 183.25 2282.22 167.83 2279.45C151.38 2276.5 134.37 2281.53 119.66 2289.45C102.77 2298.57 88.2095 2311.37 72.9795 2323.05C61.9795 2331.49 50.4495 2339.44 37.5895 2344.59C5.90953 2357.25 -31.6505 2350.99 -59.9805 2331.97" fill="#FDF1E5"/>
<path d="M381.97 2340.59C351.27 2345.03 323.3 2360.87 298.65 2379.69C284.55 2390.45 271.18 2402.37 260.47 2416.51C253.47 2425.77 247.55 2438.51 253.32 2448.51C261.61 2463.01 285.21 2458.51 297.32 2470.04C305.46 2477.84 305.93 2490.62 304.56 2501.82C303.19 2513.02 300.56 2524.72 304.51 2535.3C309.09 2547.71 321.77 2555.53 334.63 2558.6C352.63 2562.91 372.02 2559.6 388.76 2551.6C405.5 2543.6 419.76 2531.17 432.08 2517.26C449.59 2497.42 463.48 2473.95 469.58 2448.19C475.22 2424.4 474.83 2387.64 462.58 2365.41C449.13 2341.06 405.92 2337.12 381.97 2340.59Z" fill="#F3F6EA"/>
<path d="M46.7697 2748.49C48.9597 2747.58 51.4097 2746.9 53.6997 2747.49C56.2897 2748.18 58.1797 2750.38 59.6997 2752.58C65.2697 2760.48 68.9197 2770.08 76.6297 2775.91C88.6297 2784.98 105.4 2781.68 120.42 2782.42C134.934 2783.17 148.923 2788.1 160.71 2796.6C166.36 2800.68 171.61 2805.83 173.86 2812.43C178.92 2827.33 167.12 2842.62 154.5 2852.02C143.56 2860.17 131.413 2866.56 118.5 2870.96C107.22 2874.85 95.0097 2877.14 83.2197 2875.11C71.4297 2873.08 60.0097 2866.19 54.7197 2855.44C51.3797 2848.65 50.6297 2840.84 47.4697 2833.96C42.3597 2822.82 31.5997 2815.4 24.5397 2805.37C11.6197 2787.08 27.5497 2756.49 46.7697 2748.49Z" fill="#FDF1E5"/>
<path d="M-86.9703 3292.85C-48.9703 3261.39 -2.30029 3231.29 46.1397 3240.55C77.7597 3246.55 105.59 3269.02 137.78 3269.25C175.88 3269.52 206.11 3239.43 236.78 3216.89C282.1 3183.61 341.69 3163.75 395.17 3181.11C429.29 3192.18 457.39 3217.21 479.17 3245.72C552.64 3342 558.91 3473.33 546.39 3593.78C534.53 3707.94 507.39 3823.22 444.58 3919.25C422.58 3952.82 392.66 3985.89 352.91 3991.3C316.62 3996.24 282.05 3976.98 246.82 3966.97C211.217 3956.89 173.617 3956.16 137.65 3964.85C107.53 3972.18 76.7497 3986.15 46.7997 3978.16C23.4897 3971.94 5.43971 3953.23 -7.27029 3932.74C-19.9803 3912.25 -28.5403 3889.44 -40.5303 3868.52C-76.9003 3805.07 -141.9 3763.42 -186.04 3705.1C-228.94 3648.43 -249.18 3577.17 -249.04 3506.56C-248.935 3470.08 -243.546 3433.8 -233.04 3398.86C-225.31 3373.15 -212.39 3322.6 -179.6 3319.18C-166.99 3317.87 -155.48 3326.4 -142.6 3325.31C-121.7 3323.54 -102.36 3305.55 -86.9703 3292.85Z" fill="#F3F6EA"/>
<path d="M405.7 3014.22C377.96 3026.74 345.7 3010.92 315.44 3013.73C304.91 3014.73 293.56 3018.84 288.75 3028.26C286.6 3032.46 286 3037.26 285.87 3041.99C285.62 3051.84 287.96 3062.78 295.97 3068.52C306.49 3076.07 321.97 3071.52 333.23 3077.91C343.23 3083.59 347.07 3096.15 355.72 3103.71C365.42 3112.19 380.23 3113.03 392.17 3108.18C404.11 3103.33 413.49 3093.62 420.76 3082.98C432.44 3065.89 458.67 3000.81 432.38 2986.69C424.14 2997 418.94 3008.25 405.7 3014.22Z" fill="#FDF1E5"/>
<path d="M357.6 4126.38C357.87 4134.45 352.55 4141.84 345.89 4146.38C336.23 4153.01 323.67 4154.77 312.21 4152.3C300.75 4149.83 290.37 4143.4 282.05 4135.15C268.68 4121.9 245.5 4056.28 287.65 4068.7C300.65 4072.52 305.36 4089.96 319.01 4096.46C332.66 4102.96 356.93 4106.59 357.6 4126.38Z" fill="#F3F6EA"/>
<path d="M274.57 4029.9C274.642 4025.68 273.162 4021.57 270.41 4018.37C265.79 4013.37 257.65 4012.6 251.6 4015.71C245.55 4018.82 241.6 4025.17 240.23 4031.83C239.11 4037.3 239.68 4043.33 242.86 4047.92C254.11 4064.18 274.74 4043.78 274.57 4029.9Z" fill="#F3F6EA"/>
<path d="M376.43 4325.74C332.07 4329.81 295.02 4363.38 273.36 4402.31C251.7 4441.24 242.45 4485.6 230.88 4528.62C225.43 4548.85 218.64 4570.16 202.5 4583.52C190.02 4593.86 173.4 4598 157.21 4598.7C136.36 4599.61 111.88 4596.7 98.1002 4612.35C88.6502 4623.11 88.1902 4639.28 91.9102 4653.11C95.0925 4664.94 100.869 4675.91 108.821 4685.23C116.773 4694.55 126.7 4701.98 137.881 4706.98C149.063 4711.98 161.218 4714.43 173.464 4714.15C185.711 4713.87 197.74 4710.86 208.68 4705.35C231.86 4693.67 249.75 4671.04 275.21 4665.96C288.066 4663.44 301.399 4665.77 312.64 4672.5C328.64 4682.18 338.77 4699.91 355.27 4708.77C377.85 4720.9 407.21 4712.64 426.07 4695.28C444.93 4677.92 455.28 4653.28 463.37 4628.98C479.83 4579.46 489.24 4526.81 483.42 4474.98C477.64 4423.51 443.94 4319.55 376.43 4325.74Z" fill="#F3F6EA"/>
<path d="M-9.22018 4247.68C-1.63814 4247.06 5.97801 4248.37 12.9087 4251.51C19.8395 4254.65 25.856 4259.5 30.3898 4265.61C49.3898 4291.86 35.0998 4330.2 47.8098 4360.04C54.8098 4376.47 70.1098 4391.97 65.3598 4409.18C62.4398 4419.74 52.0598 4427.07 41.2498 4428.85C30.4398 4430.63 19.3498 4427.73 9.24982 4423.38C-29.5302 4406.61 -57.2102 4366.73 -59.3502 4324.53C-60.8402 4294.47 -43.6602 4250.91 -9.22018 4247.68Z" fill="#FDF1E5"/>
<path d="M-14.53 5305.09C14.74 5300.55 38.59 5280.85 55.22 5257.03C75.29 5228.24 87.44 5194.33 109.03 5166.66C130.62 5138.99 166.96 5117.74 200.19 5129.05C214.08 5133.77 225.71 5143.67 235.1 5154.96C256.015 5180.31 266.837 5212.49 265.49 5245.32C264.24 5273.08 252.57 5302.03 228.82 5316.44C210.63 5327.49 187.67 5328.83 169.94 5340.59C140.85 5359.9 134.78 5400.16 112.05 5426.65C85.8401 5457.18 37.74 5464.57 1.79004 5446.52C-19.41 5435.88 -35.91 5417.52 -45.96 5396" fill="#FDF1E5"/>
<path d="M260.49 4901.69C234.9 4888.03 201.63 4886.69 177.81 4903.23C164.94 4912.18 155.17 4929.49 162.47 4943.36C170.77 4959.16 194.82 4959.88 204.85 4974.64C212.9 4986.46 208.99 5002.79 214.12 5016.14C220.51 5032.76 239.93 5041.19 257.73 5040.8C276.47 5040.39 295.22 5031.57 306.17 5016.35C336.39 4974.28 298.35 4921.91 260.49 4901.69Z" fill="#F3F6EA"/>
<path d="M98.0595 4898.03C108.78 4897.15 119.53 4890.48 122.66 4880.18C124.92 4872.76 123.01 4864.6 119.36 4857.76C117.813 4854.75 115.786 4852 113.36 4849.64C80.1195 4818.33 42.6095 4902.56 98.0595 4898.03Z" fill="#F3F6EA"/>
<path d="M335.68 5413.61C297.8 5412.72 262.25 5431.42 231.14 5453.05C208.24 5468.97 186.14 5487.34 172.24 5511.53C158.34 5535.72 153.85 5566.8 166.65 5591.59C182.57 5622.42 220.13 5636.48 238.65 5665.84C252.23 5687.41 253.43 5716.21 241.7 5738.84C225.62 5769.84 187.35 5790.95 187.13 5825.84C187.02 5843.61 197.58 5859.78 210.13 5872.41C237.458 5899.7 274.422 5915.14 313.04 5915.41C365.25 5915.53 415.09 5886.46 446.73 5844.93C478.37 5803.4 493.06 5750.71 495.18 5698.54C497.3 5646.37 487.54 5594.39 474.18 5543.91C466.37 5514.29 458.79 5474.36 433.76 5454.85C405.78 5433.13 371.85 5414.47 335.68 5413.61Z" fill="#FDF1E5"/>
<path d="M134.51 5692.15C140.31 5688.99 145.97 5684.82 148.63 5678.78C153.55 5667.64 146.68 5654.78 138.42 5645.9C123.594 5629.94 104.032 5619.18 82.6199 5615.19C68.9499 5612.68 54.0899 5613.19 42.1399 5620.32C14.9699 5636.44 26.4899 5667.04 45.9699 5683.9C69.3999 5704.17 107.8 5706.68 134.51 5692.15Z" fill="#FDF1E5"/>
<path d="M-100.78 6041.71C-92.4757 6022.71 -80.4287 6005.57 -65.3578 5991.32C-50.2869 5977.07 -32.5007 5966.01 -13.0602 5958.78C6.93976 5951.49 30.0898 5948.71 48.7298 5958.91C66.1398 5968.44 76.2198 5987.39 82.6198 6006.19C100.62 6058.9 97.2498 6117.29 117.18 6169.28C122.64 6183.52 130.77 6198.07 144.65 6204.39C160.65 6211.69 179.75 6205.86 194.65 6196.54C209.55 6187.22 222.36 6174.54 238.01 6166.54C242.95 6163.99 248.48 6161.89 254.01 6162.8C263.01 6164.29 268.68 6173.12 272.08 6181.54C282.053 6206.6 281.693 6234.59 271.08 6259.39C266.23 6270.54 258.72 6281.33 247.52 6286.06C235.06 6291.31 220.72 6288.06 208.05 6283.32C195.38 6278.58 182.87 6272.4 169.36 6271.87C141.29 6270.75 118.87 6293.47 98.6598 6312.99C79.9498 6331.07 58.7898 6348.35 33.3598 6353.86C12.0598 6358.48 -10.6402 6354.21 -30.0002 6344.26C-49.3602 6334.31 -65.6402 6318.96 -78.7802 6301.58C-122.09 6244.26 -131.07 6166.73 -119 6095.9C-113.83 6065.55 -104 6033.97 -80.4902 6014.06" fill="#F3F6EA"/>
<path d="M333.15 6464.21C253.03 6461.81 173.35 6507.8 135.36 6578.38C127.13 6593.67 120.63 6610.72 122.24 6628C124.18 6648.77 137.57 6666.8 153.05 6680.78C168.53 6694.76 186.461 6705.78 201.741 6720.03C208.44 6726.25 214.851 6733.51 216.741 6742.46C220.351 6759.3 207.241 6774.91 204.101 6791.84C200.291 6812.4 211.83 6833.11 227.19 6847.28C261.96 6879.36 318.57 6884.67 358.701 6859.63C398.38 6834.86 417.96 6787.44 426.55 6741.46C435.33 6694.46 435.01 6645.91 426.71 6598.86C422.53 6575.16 415.66 6552.49 408.6 6529.55C404.68 6516.78 401.79 6504.55 393.72 6493.62C378.37 6472.85 358.58 6464.98 333.15 6464.21Z" fill="#FDF1E5"/>
<path d="M-52.1495 6712.02C-52.652 6713.98 -53.0261 6715.96 -53.2695 6717.97C-55.8495 6739.29 -32.7095 6753.86 -15.1795 6759.66C0.190475 6764.74 16.8205 6766.66 32.6905 6763.44C48.5605 6760.22 63.5505 6751.44 72.7705 6738.14C77.5905 6731.14 80.8305 6722.56 79.2505 6714.23C77.4805 6704.86 70.0505 6697.6 62.2505 6692.16C42.8258 6678.79 19.2596 6672.81 -4.18953 6675.3" fill="#FDF1E5"/>
<path d="M-62.5496 7331.31C-49.0396 7331.43 -36.6896 7323.95 -25.9996 7315.7C6.30042 7290.77 30.8504 7256.79 63.7504 7232.7C92.8004 7211.39 128.84 7198.33 164.75 7201.2C200.66 7204.07 235.85 7224.35 252.23 7256.44C271.23 7293.6 262.88 7339.07 246.49 7377.44C230.1 7415.81 206.22 7450.85 193.22 7490.55C185.88 7513.11 182.35 7538.18 190.98 7560.29C199.47 7582.06 218.3 7597.73 234.35 7614.72C258.975 7640.83 278.086 7671.64 290.54 7705.3C298.22 7726.1 303.28 7748.96 297.54 7770.37C291.54 7792.53 274.4 7810.54 254.13 7821.3C233.86 7832.06 210.72 7836.25 187.82 7837.67C141.72 7840.53 93.4804 7831.93 55.9304 7805.03C25.3731 7782.95 3.93615 7750.46 -4.34959 7713.68C-10.8496 7684.31 -8.55959 7653.81 -9.97959 7623.75C-11.3996 7593.69 -17.3496 7562.16 -37.0996 7539.46C-48.4696 7526.39 -63.6196 7517.21 -76.2196 7505.3C-120.31 7463.61 -126.59 7394.03 -110.52 7335.52C-108.52 7328.24 -100.95 7306.65 -90.1696 7310.84C-87.8496 7311.75 -83.7996 7322.15 -80.9896 7324.52C-75.7926 7328.81 -69.2891 7331.21 -62.5496 7331.31Z" fill="#FDF1E5"/>
<path d="M299.27 7907.25C246.93 7912.25 193.38 7927.06 154.37 7962.3C115.36 7997.54 94.8396 8056.76 116.14 8104.85C127.48 8130.43 148.7 8150 166.43 8171.65C184.16 8193.3 199.29 8220.37 194.62 8247.96C190.21 8274.04 169.48 8293.74 150.89 8312.56C120.22 8343.62 91.7896 8378.85 79.6796 8420.85C67.5696 8462.85 74.9596 8512.69 107.33 8542C133.13 8565.37 169.98 8572.23 204.79 8572.38C252.15 8572.58 299.89 8561.92 341.31 8538.94C382.73 8515.96 417.53 8480.37 436.97 8437.18C446.97 8414.94 452.84 8391.11 458.65 8367.42C477.01 8292.7 495.35 8213.99 474.9 8139.81C462.03 8093.14 435.15 8052 419.9 8006.23C413.12 7985.91 412.38 7968.23 411.17 7947.47C410.07 7928.84 391.67 7919.47 375.69 7913.61C351.42 7904.71 324.62 7904.85 299.27 7907.25Z" fill="#F3F6EA"/>
<path d="M-50.78 8767.41C-20.34 8767.02 6.99004 8748.98 29.93 8728.96C52.87 8708.94 73.93 8685.96 100.93 8671.96C109.17 8667.69 117.93 8664.31 127.18 8663.12C138.77 8661.64 150.65 8663.72 161.53 8667.98C188.53 8678.54 209.31 8702.62 218.01 8730.26C226.71 8757.9 223.81 8788.59 212.2 8815.14C202.88 8836.47 184.07 8857.29 160.85 8855.68C147.29 8854.74 135.59 8846.34 123.16 8840.86C101.923 8831.62 77.9832 8830.71 56.11 8838.33C41.11 8843.6 27.79 8852.7 12.93 8858.25C-15.61 8868.92 -49.46 8865.13 -74.07 8847.25C-98.68 8829.37 -112.88 8797.47 -108.25 8767.35C-106.18 8753.92 -97.47 8744.35 -84.95 8752.19C-72.71 8759.85 -67.22 8767.62 -50.78 8767.41Z" fill="#F3F6EA"/>
<path d="M458.92 8917.43C407.15 8910.43 353.73 8911.94 303.63 8926.76C253.53 8941.58 206.87 8970.27 174.76 9011.49C164.76 9024.32 156.11 9038.49 152.02 9054.27C146.629 9075.41 149.7 9097.82 160.58 9116.73C178.28 9147.12 214.93 9165.94 223.65 9200.01C230.95 9228.57 215.88 9257.89 215.13 9287.35C214.42 9315.55 227.58 9343.43 248.7 9362.12C269.82 9380.81 298.35 9390.41 326.55 9390.05C378.07 9389.38 423.74 9357.82 462.93 9324.37C510.19 9284.05 555.57 9235.09 566.32 9173.9C574.78 9125.76 560.51 9077.64 545.24 9032.39C538.76 9013.19 532 8994.75 529.04 8974.64C527.35 8963.18 526.64 8951.42 518.98 8942.09C505.22 8925.4 479.06 8920.16 458.92 8917.43Z" fill="#FDF1E5"/>
<path d="M122.84 9267.47C140.18 9265.95 158.1 9256.22 163.58 9239.69C166.07 9232.18 165.79 9224.01 164.4 9216.22C161.707 9201.28 155.114 9187.32 145.29 9175.75C125.81 9152.86 96.0998 9141.94 67.7598 9131.93C60.9498 9129.52 53.6198 9127.08 46.6298 9128.93C39.6398 9130.78 34.3898 9136.63 30.3198 9142.66C21.8598 9155.17 16.8598 9172.81 26.0598 9184.79C34.6698 9195.98 52.1798 9197.43 60.2898 9208.99C69.7998 9222.53 64.0498 9242.71 76.5898 9255.13C87.3298 9265.78 108.64 9268.72 122.84 9267.47Z" fill="#FDF1E5"/>
<path d="M504.36 121.85C466.97 115.71 428.8 112.69 391.17 117.09C353.54 121.49 316.35 133.58 285.52 155.61C272.52 164.93 260.52 176.19 252.77 190.22C245.02 204.25 241.96 221.35 246.94 236.58C252.61 253.89 267.51 266.43 282.64 276.58C297.77 286.73 314.16 295.76 325.64 309.86C329.33 314.38 332.58 319.86 332.12 325.65C331.4 334.77 322.2 340.59 313.73 344.04C283.73 356.23 247.97 358.48 225.13 381.45C222.07 384.52 219.13 388.38 219.45 392.71C219.66 395.77 221.45 398.48 223.36 400.88C236.12 416.93 256.08 425.7 276.09 430.18C328.93 442 386.23 426.75 428.99 393.55C471.75 360.35 500.2 310.42 511.4 257.45C520.99 212.09 517.58 161.81 491.09 123.75C495.99 124.05 499.5 121.47 504.36 121.85Z" stroke="#FCD7B7" stroke-width="2" stroke-miterlimit="10"/>
<path d="M20.4699 509.94C58.0299 494.78 103.15 498.32 136.61 521.14C170.07 543.96 190.02 586.07 184.22 626.14C182.83 635.75 179.62 645.84 171.86 651.68C166.12 655.99 158.74 657.33 151.63 658.29C140.757 659.758 129.809 660.613 118.84 660.85C109.84 661.03 100.74 660.85 92.1099 663.29C83.2699 665.85 75.4799 671.02 67.6499 675.85C51.5714 685.757 34.7044 694.322 17.2199 701.46C4.46987 706.66 -10.0201 711.09 -22.7801 705.92C-29.7801 703.08 -35.4101 697.63 -40.3901 691.92C-53.4759 676.736 -63.3408 659.051 -69.3865 639.94C-75.4321 620.828 -77.5325 600.688 -75.5601 580.74C-73.5001 561.07 -65.9701 542.09 -45.4701 537.87C-21.5701 532.96 -1.87013 518.95 20.4699 509.94Z" stroke="#DCEBCE" stroke-width="2" stroke-miterlimit="10"/>
<path d="M368.33 821.01C337.757 808.953 303.673 809.376 273.41 822.19C263.84 826.29 254.57 831.8 248.15 840.01C241.73 848.22 238.6 859.51 242.06 869.33C244.06 875.11 248.17 879.91 252.15 884.57L281.15 918.57C287.05 925.48 293.01 932.47 297.15 940.57C301.29 948.67 303.35 958.15 301.08 966.94C296.84 983.45 278.45 994.4 277.08 1011.38C276.17 1022.69 283.37 1033.17 291.97 1040.56C299.936 1047.41 309.267 1052.48 319.344 1055.45C329.42 1058.42 340.012 1059.21 350.419 1057.78C360.825 1056.34 370.808 1052.72 379.706 1047.13C388.603 1041.55 396.213 1034.14 402.03 1025.39C413.03 1008.8 417.03 988.28 416.64 968.39C416.25 948.5 411.92 928.85 407.58 909.39C403.19 889.69 397.58 869.82 394.97 849.81C393.43 837.94 382.48 821.01 368.33 821.01Z" stroke="#FCD7B7" stroke-width="2" stroke-miterlimit="10"/>
<path d="M-63.07 1009.77C-49.65 1003.45 -33.35 1001 -20.17 1007.77C-6.32004 1014.91 1.02995 1030.43 5.00995 1045.49C8.98995 1060.55 10.57 1076.08 10.75 1091.62C11.06 1117.92 7.74995 1145.84 19.95 1169.12C31.13 1190.38 53.06 1203.29 71.18 1219.12C95.28 1240.12 113.93 1268.41 119.04 1299.94C124.15 1331.47 114.27 1366.1 90.14 1387.04C79.56 1396.22 66.8 1402.51 53.79 1407.68C27.68 1418.04 -0.49004 1424.28 -28.51 1422.18C-56.53 1420.08 -84.4 1409.18 -103.96 1388.96C-117.81 1374.69 -126.96 1356.51 -133.9 1337.86C-151.22 1291.22 -154.96 1240.37 -148.04 1191.29C-141.67 1146.07 -124.15 1105.29 -107.98 1063.06C-99.26 1040.22 -85.78 1020.48 -63.07 1009.77Z" stroke="#DCEBCE" stroke-width="2" stroke-miterlimit="10"/>
<path d="M118.08 1186.28C124.75 1191.39 134.08 1191.53 142.18 1189.16C150.28 1186.79 157.46 1182.26 165.01 1178.59C177.337 1172.59 190.635 1168.84 204.28 1167.51C212.59 1166.71 221.86 1166.44 227.76 1160.51C233.76 1154.45 233.81 1144.2 229.85 1136.61C216.75 1111.46 167.75 1092.3 141.57 1106.15C120.59 1117.27 94.4296 1168.14 118.08 1186.28Z" stroke="#DCEBCE" stroke-width="2" stroke-miterlimit="10"/>
<path d="M367.85 1478.65C363.61 1506.69 355.751 1534.06 344.47 1560.08C336.15 1579.27 325.72 1597.99 310.47 1612.34C295.22 1626.69 274.58 1636.28 253.72 1634.62C232.65 1632.95 214.26 1620.47 195.99 1609.85C170.7 1595.13 142.79 1583.1 113.53 1582.76C84.2703 1582.42 53.5303 1595.83 39.6203 1621.59C25.7103 1647.35 34.8103 1684.95 61.7503 1696.38C80.3003 1704.26 101.75 1699 121.5 1703.16C130.677 1705.16 139.302 1709.16 146.766 1714.86C154.231 1720.56 160.353 1727.83 164.7 1736.16C175.7 1757.67 174.09 1784.64 187.94 1804.46C195.32 1815.03 206.42 1822.46 217.94 1828.27C276.3 1857.87 351.72 1849.89 402.58 1808.73C443.16 1775.88 466.78 1725.61 476.48 1674.32C486.18 1623.03 483.2 1570.24 478.59 1518.24C475.2 1480.01 469.84 1440.76 450.29 1407.03C443.56 1395.43 433.29 1376.2 417.74 1375.73C401.04 1375.23 387.74 1396.3 381.89 1409.45C372.22 1431.13 371.33 1455.52 367.85 1478.65Z" stroke="#FCD7B7" stroke-width="2" stroke-miterlimit="10"/>
<path d="M-33.3496 2035.41C9.22039 2019.52 56.5704 2016.05 100.5 2027.35C120.3 2032.45 140.79 2041.45 150.97 2059.18C164.83 2083.31 154.85 2113.31 150.46 2140.8C148.9 2150.52 148.46 2161.49 154.65 2169.12C158.79 2174.17 165.15 2176.79 171.35 2178.83C187.7 2184.2 204.89 2186.98 220.8 2193.56C230.23 2197.45 239.7 2203.28 243.75 2212.65C248.7 2224.08 244.21 2237.39 237.99 2248.17C230.99 2260.31 220.89 2271.75 207.35 2275.35C192 2279.43 176.1 2272.7 160.35 2270.75C129.64 2266.94 99.2604 2281.75 75.6404 2301.69C61.9004 2313.32 49.5404 2326.94 33.7504 2335.57C13.6304 2346.57 -10.2496 2348.44 -33.1396 2346.66" stroke="#FCD7B7" stroke-width="2" stroke-miterlimit="10"/>
<path d="M348.39 2384.15C294.337 2395.29 246.448 2426.34 214.23 2471.15C209.59 2477.66 205.13 2485.66 207.65 2493.24C210.72 2502.47 222.34 2505.6 232.05 2504.99C249 2503.92 266.05 2495.99 282.38 2500.59C297.01 2504.71 307.2 2517.91 320.79 2524.72C335.88 2532.27 354.5 2531.15 369.64 2523.72C384.78 2516.29 396.57 2503 404.3 2487.99C410.52 2475.75 414.241 2462.39 415.247 2448.7C416.253 2435.01 414.524 2421.25 410.16 2408.23C400.22 2378.93 375.28 2378.73 348.39 2384.15Z" stroke="#DCEBCE" stroke-width="2" stroke-miterlimit="10"/>
<path d="M9.93022 2772.85C7.93022 2779.92 7.25022 2788.18 11.7002 2794.04C14.9602 2798.33 20.4402 2800.48 25.8102 2800.87C31.1802 2801.26 36.5402 2800.11 41.8102 2798.87C49.2602 2797.14 56.7502 2795.22 63.5302 2791.7C70.3102 2788.18 76.4302 2782.87 79.5302 2775.89C81.5542 2770.99 82.4891 2765.7 82.2702 2760.4C82.1702 2752.28 80.2702 2743.93 75.4202 2737.4C52.9002 2707.32 16.3502 2750.38 9.93022 2772.85Z" stroke="#FCD7B7" stroke-width="2" stroke-miterlimit="10"/>
<path d="M108.06 2776.5C119.99 2764.5 139.06 2763.66 155.81 2766.06C169.11 2767.96 182.42 2771.51 193.76 2778.71C205.1 2785.91 214.37 2797.11 217.07 2810.27C220.29 2825.95 213.97 2842.19 204.83 2855.33C195.83 2868.27 181.83 2880 166.18 2878.46C143.72 2876.24 130.85 2848.84 108.65 2844.82C102.3 2843.67 95.7696 2844.59 89.3196 2844.27C70.4096 2843.33 64.9896 2827.56 78.5896 2815.41C91.3396 2804.01 96.1096 2788.5 108.06 2776.5Z" stroke="#FCD7B7" stroke-width="2" stroke-miterlimit="10"/>
<path d="M563.91 3352.61C518.13 3369.29 468.33 3370.49 419.61 3370.13C370.89 3369.77 321.5 3368.13 274.14 3379.53C226.78 3390.93 180.66 3417.59 157.75 3460.59C144.22 3486.01 140.22 3518.85 156.22 3542.85C173.14 3568.18 206.07 3576.21 235.93 3582.24C265.79 3588.27 298.71 3596.24 315.65 3621.59C328.39 3640.64 328.94 3665.28 338.29 3686.2C352.29 3717.5 385.43 3737.37 419.38 3742.11C453.33 3746.85 487.9 3738.36 519.62 3725.35C615.98 3685.81 693.24 3602.23 725.1 3503.07C738.58 3461.07 744.22 3415.98 736.35 3372.59C732.092 3348.68 723.421 3325.77 710.78 3305.03C701.78 3290.42 679.32 3255.37 659.28 3256.52C638.64 3257.71 631.92 3293.9 623.64 3307.94C610.43 3330.33 587.84 3343.85 563.91 3352.61Z" stroke="#DCEBCE" stroke-width="2" stroke-miterlimit="10"/>
<path d="M28.7904 3638.1C69.7904 3640.8 106.79 3669.89 123.25 3707.57C131.36 3726.16 134.9 3746.38 141.25 3765.65C147.6 3784.92 157.48 3804.13 174.45 3815.22C191.74 3826.5 213.45 3827.65 233.64 3831.92C253.83 3836.19 275.64 3846.2 282.02 3865.82C288.49 3885.6 276.02 3907.39 259.02 3919.29C235.56 3935.66 201.53 3937.37 178.8 3920C166.66 3910.73 158.04 3896.78 144.29 3890.12C131.5 3883.92 116.54 3885.12 102.35 3886.02C70.6404 3888.02 37.5204 3887.64 8.90035 3873.85C-9.34965 3865.06 -24.7296 3851.28 -38.6496 3836.56C-71.1896 3802.12 -104.05 3747.23 -81.5396 3698.56C-65.4496 3663.67 -7.27965 3635.73 28.7904 3638.1Z" stroke="#DCEBCE" stroke-width="2" stroke-miterlimit="10"/>
<path d="M148.66 3994.77C157.12 3994.05 166.26 3994.18 173.23 3999.02C180.2 4003.86 183.23 4015.02 177.23 4020.95C172.92 4025.19 165.94 4025.23 160.15 4023.5C154.36 4021.77 149.04 4018.62 143.15 4017.24C133.96 4015.1 88.2398 4029.53 88.5998 4015.79C88.9498 4001.54 139.14 3995.58 148.66 3994.77Z" stroke="#DCEBCE" stroke-width="2" stroke-miterlimit="10"/>
<path d="M339.11 3016.28C324.59 3024.28 305.92 3020.33 290.98 3027.52C285.865 3030.04 281.432 3033.76 278.054 3038.36C274.676 3042.95 272.452 3048.29 271.57 3053.93C270.98 3057.93 271.13 3062.21 273.02 3065.8C276.3 3072.01 284.02 3074.65 291.02 3074.55C298.02 3074.45 304.83 3072.19 311.77 3071.16C326.188 3069.08 340.872 3072.27 353.12 3080.16C358.31 3083.53 363.07 3087.76 368.91 3089.81C382.91 3094.7 398.66 3084.93 405.28 3071.68C411.9 3058.43 411.53 3042.88 410.22 3028.13C408.81 3012.27 403.6 2983.13 382.81 2982.38C363.78 2981.75 353.88 3008.15 339.11 3016.28Z" stroke="#FCD7B7" stroke-width="2" stroke-miterlimit="10"/>
<path d="M317.69 4018.27C291.2 4012.73 261.69 4020.81 243.47 4040.86C233.18 4052.2 226.92 4069.94 235.39 4082.7C244.77 4096.83 266.53 4097.17 277.48 4110.13C285.38 4119.46 285.82 4133.23 292.9 4143.19C303.04 4157.45 323.49 4159.7 340.74 4156.76C360.1 4153.45 380.1 4143.76 388.06 4125.82C392.06 4116.91 392.58 4106.92 392.81 4097.18C393.69 4059.04 353.82 4025.85 317.69 4018.27Z" stroke="#DCEBCE" stroke-width="2" stroke-miterlimit="10"/>
<path d="M336.72 4369.1C273.9 4375.28 210.37 4400.1 170.4 4448.94C145.03 4479.94 130.64 4524.65 148.67 4560.43C165.41 4593.63 204.67 4610 224.07 4641.74C231.46 4653.88 235.594 4667.72 236.07 4681.92C236.6 4698.7 232.01 4715.83 236.19 4732.09C242.65 4757.24 268.26 4772.84 293.4 4779.3C347.4 4793.18 406.46 4776.12 450.29 4741.72C494.12 4707.32 523.73 4657.26 541.38 4604.41C556.901 4557.83 563.781 4508.8 561.68 4459.75C560.51 4432.75 556.09 4384.49 522.37 4379.03C509.06 4376.87 495.14 4378.53 481.68 4376.72C459.01 4373.72 436.46 4370.33 413.63 4368.72C388.02 4366.85 362.27 4366.58 336.72 4369.1Z" stroke="#DCEBCE" stroke-width="2" stroke-miterlimit="10"/>
<path d="M28.6996 4252.79C51.5996 4273.19 64.2096 4306.85 53.8996 4335.79C49.3696 4348.48 40.7896 4359.79 38.8996 4373.15C38.2096 4377.93 38.3796 4382.89 36.7796 4387.44C33.2996 4397.36 22.0696 4402.76 11.5596 4402.97C-4.54043 4403.3 -19.3004 4394.11 -31.5304 4383.63C-56.7845 4361.91 -75.6028 4333.68 -85.9404 4302.02C-91.3204 4285.43 -94.2604 4267.37 -89.4404 4250.61C-86.2204 4239.4 -78.5904 4227.98 -68.1304 4222.33C-57.9704 4216.83 -50.6204 4221.04 -40.0704 4223.25C-14.8904 4228.48 8.94957 4235.19 28.6996 4252.79Z" stroke="#FCD7B7" stroke-width="2" stroke-miterlimit="10"/>
<path d="M-78.0996 5390.28C-54.7796 5395.62 -33.0996 5376.28 -20.3296 5356.01C2.61039 5319.58 11.8504 5276.51 23.9004 5235.18C35.9504 5193.85 52.4404 5151.55 85.2204 5123.69C96.4704 5114.15 109.7 5106.46 124.22 5103.89C139.49 5101.19 155.33 5104.29 169.71 5110.09C219.61 5130.21 251.71 5181.03 264.18 5233.35C271.06 5262.14 272.83 5293.25 261.65 5320.65C250.47 5348.05 224.06 5370.59 194.47 5370.47C174.6 5370.39 155.89 5360.47 140.74 5347.62C129.17 5337.8 117.97 5325.56 102.92 5323.62C80.7004 5320.72 62.5704 5341.74 54.2004 5362.53C45.8304 5383.32 41.9004 5406.9 26.6004 5423.27C14.4104 5436.27 -4.88961 5442.87 -22.1396 5438.27" stroke="#FCD7B7" stroke-width="2" stroke-miterlimit="10"/>
<path d="M242.34 4892C229.75 4896.31 218.43 4903.64 207.52 4911.25C192.52 4921.73 177.28 4933.78 170.68 4950.86C167.94 4957.94 166.94 4966.23 170.53 4972.92C175.08 4981.38 185.43 4984.76 194.93 4986.24C204.43 4987.72 214.6 4988.24 222.47 4993.81C234.62 5002.32 236.95 5019.27 245.75 5031.22C257.96 5047.8 282.75 5052.35 301.43 5043.67C320.11 5034.99 332.27 5015.23 334.76 4994.79C337.25 4974.35 331.02 4953.52 320.49 4935.79C302.73 4905.97 279.54 4879.27 242.34 4892Z" stroke="#DCEBCE" stroke-width="2" stroke-miterlimit="10"/>
<path d="M130.93 4888.16C136.15 4882.08 139.62 4874.69 142.34 4867.16C145.17 4859.33 146.93 4849.67 141.44 4843.4C136.39 4837.64 127.63 4837.5 119.97 4837.81C107.36 4838.32 96.3095 4836.74 89.3895 4848.81C85.3895 4855.81 80.6895 4868.52 81.2695 4876.81C83.0995 4903.13 116.29 4905.23 130.93 4888.16Z" stroke="#DCEBCE" stroke-width="2" stroke-miterlimit="10"/>
<path d="M334.83 5402.06C266.3 5410.95 201.98 5462.25 189.25 5530.17C185.07 5552.48 186.82 5577.17 200.19 5595.48C213.26 5613.42 234.9 5622.48 254.4 5633.05C274.14 5643.77 293.05 5657.33 305.26 5676.18C316.78 5693.98 320.65 5719.77 305.97 5735.07C295.74 5745.71 279.81 5748.07 265.1 5749.3C242.452 5751.14 219.711 5751.56 197.01 5750.55C187.07 5750.11 176.94 5749.42 167.31 5751.91C157.68 5754.4 148.42 5760.78 145.31 5770.24C143.55 5775.68 143.97 5781.59 144.95 5787.24C150.79 5820.56 177.44 5849.31 210.23 5857.63C245.34 5866.54 282.31 5853.35 318.41 5856.24C335.031 5857.65 351.192 5862.42 365.916 5870.26C380.64 5878.1 393.62 5888.85 404.07 5901.85C418.86 5920.49 428.86 5944.08 449.18 5956.47C468.71 5968.37 494.33 5966.92 515.04 5957.21C535.75 5947.5 552.24 5930.59 566.23 5912.49C615.44 5848.89 638.82 5765.89 630.05 5685.96C623.31 5624.56 597.67 5565.61 558.17 5518.21C543.31 5500.37 531.68 5480.41 517.07 5462.68C499.33 5441.14 470.07 5427.28 444.68 5417.23C409.95 5403.49 372.03 5397.23 334.83 5402.06Z" stroke="#FCD7B7" stroke-width="2" stroke-miterlimit="10"/>
<path d="M111.8 5696.85C120.23 5703.15 127.38 5712.95 137.9 5713.57C146.28 5714.07 153.9 5708.13 158.35 5701.01C168.02 5685.57 165.86 5664.81 156.75 5649.01C151.949 5640.83 145.52 5633.71 137.861 5628.11C130.201 5622.51 121.475 5618.54 112.22 5616.45C91.2201 5611.83 43.7301 5619.82 44.9701 5649.25C46.3501 5681.52 92.3801 5682.31 111.8 5696.85Z" stroke="#FCD7B7" stroke-width="2" stroke-miterlimit="10"/>
<path d="M-92.9399 6095.76C-89.4999 6075.96 -73.5299 6060.83 -57.0099 6049.4C-36.026 6034.89 -12.8333 6023.87 11.6701 6016.76C28.9301 6011.76 48.4001 6008.97 64.1401 6017.64C75.6501 6023.96 83.3401 6035.51 88.9901 6047.36C109.26 6089.84 109.83 6142.41 141.47 6177.26C160.56 6198.26 187.99 6209.26 213.82 6221.09C239.65 6232.92 266.18 6247.69 279.82 6272.62C288.23 6288.01 290.48 6308.11 280.6 6322.62C275.94 6329.46 269.04 6334.46 261.82 6338.5C232.65 6354.83 192.45 6355.5 168.52 6332.19C148.52 6312.65 142.17 6279.71 117.28 6266.91C101.51 6258.81 82.4801 6261.33 65.2801 6265.72C34.0201 6273.72 1.58009 6287.27 -29.3499 6278.06C-60.0499 6268.91 -80.4199 6239.11 -90.1099 6208.58C-98.9967 6180.47 -100.976 6150.62 -95.8799 6121.58C-93.2499 6106.69 -87.3199 6090.41 -73.5099 6084.27C-81.1999 6087.16 -85.4299 6092.4 -92.9399 6095.76Z" stroke="#DCEBCE" stroke-width="2" stroke-miterlimit="10"/>
<path d="M419.71 6491.19C399.22 6482.91 378.22 6474.85 356.22 6473.08C308.36 6469.23 262.89 6495.65 227.7 6528.31C209.05 6545.63 191.77 6565.77 184.58 6590.19C176.48 6617.66 182.25 6647.87 195.27 6673.38C204.45 6691.38 217.2 6707.77 222.67 6727.2C223.87 6731.44 224.67 6736.02 223.33 6740.2C221.66 6745.33 217.06 6748.91 212.42 6751.67C200.42 6758.78 186.69 6762.5 174.61 6769.45C162.53 6776.4 151.61 6788.14 151.69 6802.08C151.75 6813.98 159.79 6824.4 168.89 6832.08C180.191 6841.46 193.472 6848.14 207.734 6851.64C221.995 6855.13 236.864 6855.35 251.22 6852.26C292.22 6843.11 323.56 6808.07 364.36 6798.07C387.547 6792.48 411.97 6795.4 433.19 6806.29C445.4 6812.62 457.19 6821.77 470.91 6821.82C484.44 6821.88 496.34 6812.99 505.75 6803.26C532.69 6775.43 548.19 6737.62 552.3 6699.1C554.02 6682.93 553.82 6666.44 550.17 6650.6C542.02 6615.21 517.74 6585.77 504.37 6552.52C491.15 6519.7 450.06 6503.46 419.71 6491.19Z" stroke="#FCD7B7" stroke-width="2" stroke-miterlimit="10"/>
<path d="M-6.6103 6746.85C9.46155 6745.78 25.2422 6742.04 40.0797 6735.77C45.8197 6733.34 51.5397 6730.44 55.7697 6725.87C66.4397 6714.35 64.2597 6694.87 54.3597 6682.69C44.4597 6670.51 28.9097 6664.33 13.5697 6660.93C1.9197 6658.34 -10.9103 6657.21 -21.3703 6662.93C-29.1103 6667.18 -34.5503 6674.72 -38.3703 6682.7C-43.1703 6692.84 -45.6903 6704.5 -42.9603 6715.38" stroke="#FCD7B7" stroke-width="2" stroke-miterlimit="10"/>
<path d="M114.98 7287.96C160.28 7282.3 207.19 7284.31 250.19 7299.65C277.6 7309.43 303.98 7325.4 319.53 7350C332.26 7370.14 336.76 7394.52 337.13 7418.34C337.68 7453.85 327.13 7493.01 297.13 7512.08C280.39 7522.74 260.05 7525.59 240.79 7530.36C221.53 7535.13 201.39 7543.12 190.79 7559.92C182.44 7573.21 181.53 7590.02 184.21 7605.48C186.89 7620.94 192.85 7635.62 197.42 7650.64C204.42 7673.64 208.17 7698.64 200.87 7721.55C191.2 7751.91 162.12 7774.23 130.61 7778.91C99.0997 7783.59 66.2697 7771.85 42.4797 7750.66C25.9597 7735.85 13.3197 7716.85 -4.72032 7703.85C-22.5503 7691.06 -44.2803 7685.24 -64.4203 7676.53C-116.78 7653.9 -159.52 7609.89 -180.61 7556.89C-204.46 7496.97 -170.09 7449.43 -129.04 7408.34C-86.9508 7366.31 -36.5388 7333.55 18.9597 7312.16C49.8651 7300.23 82.1092 7292.1 114.98 7287.96Z" stroke="#FCD7B7" stroke-width="2" stroke-miterlimit="10"/>
<path d="M524.64 7973.67C513.42 7949.19 483.02 7941.15 456.31 7937.78C400.58 7930.78 343.7 7931.55 288.6 7942.42C237.77 7952.42 187.7 7971.6 148.29 8005.23C108.88 8038.86 81.1804 8088.3 81.2904 8140.11C81.2904 8159.6 85.8604 8180.24 99.6104 8194.05C116.43 8210.94 142.29 8213.59 164.77 8221.51C193.62 8231.67 219.21 8252.64 231.65 8280.57C244.09 8308.5 241.91 8343.3 223.3 8367.57C204.48 8392.1 172.67 8403.15 151.42 8425.57C141.83 8435.86 134.685 8448.17 130.516 8461.6C126.346 8475.03 125.261 8489.23 127.34 8503.14C129.63 8517.69 135.75 8532.04 146.67 8541.93C157.59 8551.82 173.75 8556.49 187.67 8551.56C195.2 8548.88 201.88 8543.56 209.81 8542.66C228.08 8540.51 239.71 8560.58 250.62 8575.39C282.24 8618.29 344.15 8631.58 394.92 8615.39C445.69 8599.2 485.65 8558.39 512.14 8512.13C545.162 8454.16 559.758 8387.52 553.99 8321.06C544.99 8220.24 541.99 8117.36 533.86 8016.48C532.57 8001.05 531.09 7987.76 524.64 7973.67Z" stroke="#DCEBCE" stroke-width="2" stroke-miterlimit="10"/>
<path d="M-86.25 8808.98C-77.38 8816.46 -63.59 8815.36 -53.66 8809.37C-43.73 8803.38 -36.84 8793.49 -30.66 8783.7C-14.56 8758.36 -0.659996 8731.38 19.02 8708.7C38.7 8686.02 65.65 8667.59 95.65 8666.3C119.86 8665.3 143.44 8675.51 162.95 8689.88C187.767 8708.23 207.102 8733.01 218.87 8761.54C226.52 8780.18 230.76 8801.13 225.32 8820.54C219.88 8839.95 202.84 8857 182.69 8857.54C167.32 8857.98 152.99 8849.15 142.43 8837.96C134.36 8829.42 127.64 8819.18 117.43 8813.34C98.18 8802.34 73.06 8810.88 56.15 8825.24C39.24 8839.6 27.31 8858.99 11.15 8874.24C-5.01 8889.49 -28.43 8900.56 -49.18 8892.7C-56.81 8889.8 -63.36 8884.57 -68.97 8878.64C-75.97 8871.24 -81.78 8862.29 -83.33 8852.24C-84.88 8842.19 -81.41 8830.95 -73.01 8825.24C-79.89 8823.07 -84.14 8815.95 -86.25 8808.98Z" stroke="#DCEBCE" stroke-width="2" stroke-miterlimit="10"/>
<path d="M398.56 8906.64C379.7 8898.26 358.37 8896.64 337.87 8898.99C312.656 8901.95 288.473 8910.72 267.22 8924.61C235.41 8945.43 210.37 8980.61 211.94 9018.61C212.57 9034.11 217.52 9049.31 216.94 9064.81C215.86 9091.61 196.26 9116.65 170.5 9124.15C161.95 9126.65 152.93 9127.36 144.5 9130.28C132.22 9134.55 121.4 9144.09 117.59 9156.51C113.78 9168.93 118.12 9183.98 129.12 9190.91C137.04 9195.91 146.92 9196.3 156.28 9196.67C179.16 9197.56 202.37 9199.28 223.9 9207.07C245.43 9214.86 265.39 9229.49 274.95 9250.3C288.47 9279.7 279.13 9314.63 286.85 9346.06C297.98 9391.3 346.07 9422.14 392.61 9419.85C439.15 9417.56 481.4 9386.33 503.85 9345.51C526.3 9304.69 530.69 9255.69 523.47 9209.66C516.25 9163.63 498.16 9120.01 477.74 9078.13C462 9045.84 444.36 9013.24 438.28 8977.42C436.03 8964.18 439.92 8948.94 433.78 8937C426.76 8923.4 412.22 8912.69 398.56 8906.64Z" stroke="#FCD7B7" stroke-width="2" stroke-miterlimit="10"/>
</g>
<defs>
<clipPath id="clip0_412_6843">
<rect width="989.46" height="9790.85" fill="white" transform="translate(-249 -24)"/>
</clipPath>
</defs>
</svg>
