<svg width="360" height="894" viewBox="0 0 360 894" fill="none" xmlns="http://www.w3.org/2000/svg">
<g clip-path="url(#clip0_636_2693)">
<path d="M-54.4703 83.1277C-38.0787 102.552 -13.2056 115.674 12.1765 114.228C35.9872 112.907 57.1285 99.5169 79.2697 90.6617C113.472 76.995 152.353 74.0403 187.44 85.2165C222.527 96.3926 253.266 122.28 267.666 156.174C273.773 170.546 276.969 186.525 274.309 201.905C269.059 232.372 243.061 254.135 225.419 279.567C213.715 296.619 205.511 315.824 201.281 336.068C197.052 356.313 196.881 377.195 200.778 397.506C211.17 450.173 248.346 494.878 257.569 547.804C260.372 563.872 260.444 580.725 255.105 596.124C241.891 634.294 199.903 654.147 160.522 663.136C46.3435 689.193 -82.0754 653.424 -159.945 565.961C-234.885 481.791 -257.393 361.701 -249.509 249.288C-243.483 163.271 -218.494 73.4333 -154.641 15.4815C-138.857 1.19892 -94.0924 -25.7952 -80.8166 5.26952C-76.7008 14.9014 -79.7363 28.1574 -77.3972 38.4498C-73.7457 54.5445 -65.0767 70.5411 -54.4703 83.1277Z" fill="#F3F6EA"/>
<path d="M254.177 340.09C250.445 345.732 246.927 352.007 247.115 358.764C247.374 368.146 254.516 375.68 261.042 382.42C271.113 392.82 280.933 403.915 286.496 417.234C294.138 435.614 293.156 457.002 302.566 474.552C313.931 495.779 339.17 507.188 363.276 506.536C387.381 505.884 410.138 494.842 429.342 480.301C463.839 454.181 489.57 414.056 490.543 370.798C491.382 333.306 465.982 284.361 430.726 267.525C395.3 250.565 343.143 267.704 311.797 286.021C288.717 299.413 269.007 317.908 254.177 340.09Z" fill="#F3F6EA"/>
<path d="M333.358 -187.216C312.52 -188.314 291.325 -187.841 271.264 -182.128C251.203 -176.415 232.196 -165.033 220.447 -147.796C217.242 -143.1 214.537 -137.736 214.697 -132.058C214.992 -120.82 225.902 -113.053 236.124 -108.322C246.347 -103.591 257.962 -99.1099 262.908 -89.0138C267.979 -78.6768 264.095 -66.4473 263.801 -54.9409C263.176 -29.6696 281.657 -6.29963 305.083 3.18938C328.51 12.6784 355.633 9.83974 378.953 0.0739955C402.272 -9.69175 422.351 -25.8132 440.895 -43.0327C448.037 -49.6384 455.108 -56.619 459.286 -65.3493C466.937 -81.4172 463.161 -99.7347 456.304 -115.338C452.679 -123.596 445.984 -131.353 444.046 -140.199C442.761 -146.055 445.001 -151.134 441.234 -156.267C432.306 -168.497 404.629 -175.013 390.854 -178.709C372.096 -183.743 352.714 -186.189 333.358 -187.216Z" fill="#F3F6EA"/>
<path d="M2.98999 111.711C72.2852 85.3003 148.395 82.6689 219.349 104.23C238.847 110.229 258.328 118.379 272.756 132.795C287.183 147.212 295.62 169.064 289.486 188.506C283.594 207.199 266.274 219.625 249.373 229.622C220.572 246.681 189.797 260.866 163.978 282.209C138.158 303.553 117.24 333.93 117.24 367.405C117.24 391.757 128.266 414.94 142.649 434.596C157.032 454.252 174.79 471.142 190.86 489.477C211.805 513.463 230.312 541.251 234.723 572.807C240.928 617.164 216.376 662.913 178.477 686.854C140.578 710.795 91.7691 714.143 49.0223 700.842C6.27546 687.541 -30.6771 658.887 -59.0054 624.126C-74.031 605.684 -86.9408 585.322 -95.2884 563.05C-104.689 537.949 -108.1 511.062 -111.537 484.496C-120.786 412.958 -131.036 340.527 -159.275 274.149C-168.747 251.877 -180.407 229.515 -180.702 205.315C-180.8 195.88 -178.827 185.864 -172.345 179.008C-162.614 168.707 -149.356 175.313 -137.651 173.492C-121.581 170.983 -104.707 162.119 -89.9763 155.406C-58.8 141.186 -29.0165 124.02 2.98999 111.711Z" stroke="#DCEBCE" stroke-width="2" stroke-miterlimit="10"/>
<path d="M381.783 255.421C368.784 246.494 353.026 242.28 337.322 241.084C321.377 239.87 304.833 241.79 290.709 249.288C276.586 256.786 265.22 270.426 263.033 286.262C260.846 302.098 269.282 319.523 284.112 325.477C295.995 330.235 309.878 327.512 321.734 332.341C337.206 338.59 344.857 355.551 354.669 369.039C358.624 374.493 363.597 379.867 370.248 381.143C380.551 383.134 389.89 374.484 395.112 365.388C413.852 332.716 415.62 278.594 381.783 255.421Z" stroke="#DCEBCE" stroke-width="2" stroke-miterlimit="10"/>
<path d="M348.508 398.041C343.027 383.91 334.947 370.484 323.314 360.781C318.341 356.63 312.484 353.113 306.029 352.604C295.896 351.819 286.388 358.791 281.272 367.548C270.934 385.124 276.058 409.628 291.459 423C306.86 436.372 330.456 438.461 348.874 429.722C350.02 429.024 351.336 428.656 352.678 428.659C354.526 428.856 355.874 430.445 356.838 432.06C358.055 434.062 358.976 436.23 359.57 438.497C355.731 424.991 353.624 411.226 348.508 398.041Z" stroke="#DCEBCE" stroke-width="2" stroke-miterlimit="10"/>
<path d="M340.92 -182.003C310.092 -190.171 276.96 -186.359 246.837 -175.852C225.839 -168.533 205.01 -157.107 193.422 -138.155C191.493 -134.995 189.851 -131.505 189.851 -127.809C189.851 -120.597 196.1 -115.044 202.189 -111.17C212.777 -104.445 224.485 -99.6745 236.758 -97.0838C246.864 -94.9503 257.292 -94.3165 267.175 -91.2815C277.058 -88.2464 286.7 -82.2388 290.807 -72.7587C294.057 -65.2514 293.405 -56.6907 294.566 -48.6568C298.512 -21.1627 325.537 0.047003 353.312 0.439775C381.086 0.832547 407.334 -17.5117 419.601 -42.417C449.42 -102.949 400.076 -166.328 340.92 -182.003Z" stroke="#DCEBCE" stroke-width="2" stroke-miterlimit="10"/>
</g>
<defs>
<clipPath id="clip0_636_2693">
<rect width="955" height="2312" fill="white" transform="translate(-251 -1310)"/>
</clipPath>
</defs>
</svg>
