<svg width="360" height="1351" viewBox="0 0 360 1351" fill="none" xmlns="http://www.w3.org/2000/svg">
<g clip-path="url(#clip0_412_7067)">
<path d="M574.9 354.84C458.65 306.22 322.65 307 206.9 357C145.03 383.74 86.7499 426.7 59.3099 488.25C31.8699 549.8 43.7299 631.61 98.6499 670.72C128.01 691.64 166.54 699.24 191.35 725.4C219.83 755.4 222.35 801.12 221.16 842.5C219.97 883.88 217.68 928.34 239.96 963.22C255.45 987.47 281.4 1003.79 308.96 1011.93C336.52 1020.07 365.85 1020.66 394.56 1018.62C471.16 1013.19 547.06 988.83 609.5 944.12C671.94 899.41 720.22 833.81 739.23 759.4C745.4 735.24 748.52 709.95 744.74 685.3C740.37 656.77 727.07 630.53 715.13 604.3C693.06 555.68 668.41 500.9 661.65 447.63C655.47 399.52 617.89 372.82 574.9 354.84Z" fill="#FDF1E5"/>
<path d="M329.36 291.44C289.51 305.44 245.89 300.32 203.78 303.37C161.67 306.42 115.24 321.76 97.0498 359.87C92.4498 369.5 90.0498 380.87 93.6798 390.87C99.9598 408.07 120.42 414.43 138.04 419.44C159.77 425.62 181.54 433.35 199.47 447.1C217.4 460.85 231.18 481.53 231.88 504.1C232.96 538.84 204.88 566.46 181.76 592.38C121.03 660.38 81.5398 748.84 79.8498 840C79.2298 873.1 83.7498 907 99.0198 936.39C120.32 977.39 161.09 1005.89 205.02 1020.03C248.95 1034.17 296.14 1035.23 342.21 1031.92C382.65 1029 423.65 1022.57 459.65 1004C491.53 987.53 517.97 962.33 542.88 936.5C593.34 884.22 642.12 821.41 642.44 748.76C642.87 652.82 559.96 576.95 537.03 483.76C510.94 377.78 565.65 264 538.16 158.35C532.49 136.54 522.98 115.09 506.74 99.46C484.86 78.46 446.93 69.46 423.27 93.01C404.66 111.52 418.49 131.54 419.94 153.89C423.71 211.75 383.93 272.3 329.36 291.44Z" stroke="#FCD7B7" stroke-width="2" stroke-miterlimit="10"/>
</g>
<defs>
<clipPath id="clip0_412_7067">
<rect width="894.38" height="1351" fill="white" transform="translate(-148)"/>
</clipPath>
</defs>
</svg>
