<svg width="360" height="2590" viewBox="0 0 360 2590" fill="none" xmlns="http://www.w3.org/2000/svg">
<g clip-path="url(#clip0_412_7051)">
<path d="M445.58 399C412.66 411.12 376.58 419.25 342.58 410.36C315.26 403.2 291.89 385.7 265.64 375.29C240.688 365.451 213.628 362.18 187.05 365.79C163.29 369.06 136.74 382.11 133.53 405.88C131.16 423.46 142.76 439.88 155.59 452.09C168.42 464.3 183.49 475.09 191.59 490.85C200.87 508.9 199.38 530.93 192.45 550.01C185.52 569.09 173.66 585.88 162.28 602.69C142.72 631.57 124.06 661.48 112.44 694.37C100.82 727.26 96.61 763.64 106.31 797.15C121.7 850.27 170.44 888.84 223.31 905.02C281.2 922.73 344.98 917.13 401.11 894.46C457.24 871.79 506 832.8 544.78 786.32C594.95 726.2 629.46 652.38 639.13 574.68C646.13 518.59 639.8 460.68 619.88 407.68C610.52 382.78 598.35 354.24 580.16 334.4C559 311.33 539.67 322.99 521.26 342.75C497.32 368.46 479.32 386.56 445.58 399Z" fill="#FDF1E5"/>
<path d="M16.4201 919.81C27.4201 916.93 39.0601 919.81 49.91 923.2C81.3201 933.08 111.77 948.12 134.91 971.5C158.05 994.88 173.3 1027.43 170.91 1060.26C170.45 1066.61 169.26 1073.15 165.53 1078.26C157.04 1089.97 139.74 1089.83 125.53 1087.4C100.83 1083.18 76.1301 1075.3 56.4701 1059.76C37.5701 1044.82 24.5601 1023.85 11.9401 1003.33C-1.45995 981.53 -23.7899 930.34 16.4201 919.81Z" fill="#FDF1E5"/>
<path d="M-87.8696 1560.64C-69.5096 1582.4 -41.6496 1597.1 -13.2196 1595.48C13.4504 1594 37.1304 1579 61.9304 1569.08C100.24 1553.77 143.79 1550.46 183.09 1562.98C222.39 1575.5 256.82 1604.5 272.95 1642.47C279.79 1658.57 283.37 1676.47 280.39 1693.7C274.51 1727.83 245.39 1752.21 225.63 1780.7C212.521 1799.8 203.331 1821.32 198.594 1844C193.856 1866.67 193.665 1890.07 198.03 1912.82C209.67 1971.82 251.31 2021.9 261.64 2081.19C264.78 2099.19 264.86 2118.07 258.88 2135.32C244.08 2178.08 197.05 2200.32 152.94 2210.39C25.0504 2239.58 -118.79 2199.51 -206.01 2101.53C-289.95 2007.24 -315.16 1872.71 -306.33 1746.78C-299.58 1650.42 -271.59 1549.78 -200.07 1484.86C-182.39 1468.86 -132.25 1438.62 -117.38 1473.42C-112.77 1484.21 -116.17 1499.06 -113.55 1510.59C-109.46 1528.62 -99.7496 1546.54 -87.8696 1560.64Z" fill="#F3F6EA"/>
<path d="M257.84 1848.5C253.66 1854.82 249.72 1861.85 249.93 1869.42C250.22 1879.93 258.22 1888.37 265.53 1895.92C276.81 1907.57 287.81 1920 294.04 1934.92C302.6 1955.51 301.5 1979.47 312.04 1999.13C324.77 2022.91 353.04 2035.69 380.04 2034.96C407.04 2034.23 432.53 2021.86 454.04 2005.57C492.68 1976.31 521.5 1931.36 522.59 1882.9C523.53 1840.9 495.08 1786.07 455.59 1767.21C415.91 1748.21 357.49 1767.41 322.38 1787.93C296.528 1802.93 274.451 1823.65 257.84 1848.5Z" fill="#F3F6EA"/>
<path d="M346.531 1257.79C323.191 1256.56 299.451 1257.09 276.981 1263.49C254.511 1269.89 233.221 1282.64 220.061 1301.95C216.471 1307.21 213.441 1313.22 213.621 1319.58C213.951 1332.17 226.171 1340.87 237.621 1346.17C249.071 1351.47 262.081 1356.49 267.621 1367.8C273.301 1379.38 268.951 1393.08 268.621 1405.97C267.921 1434.28 288.621 1460.46 314.861 1471.09C341.101 1481.72 371.481 1478.54 397.601 1467.6C423.721 1456.66 446.211 1438.6 466.981 1419.31C474.981 1411.91 482.901 1404.09 487.581 1394.31C496.151 1376.31 491.921 1355.79 484.241 1338.31C480.181 1329.06 472.681 1320.37 470.511 1310.46C469.071 1303.9 471.581 1298.21 467.361 1292.46C457.361 1278.76 426.361 1271.46 410.931 1267.32C389.921 1261.68 368.211 1258.94 346.531 1257.79Z" fill="#F3F6EA"/>
<path d="M397.51 342.1C341.13 349.44 285.13 363.7 235.13 390.71C185.13 417.72 141.35 458.18 116.53 509.29C109.1 524.58 103.32 541.96 107.66 558.39C113.6 580.9 136.03 594.31 156.52 605.39L215.52 637.2C234.36 647.36 255.64 661.2 256.73 682.55C257.73 702.29 240.9 717.65 226.87 731.55C202.05 756.18 181.74 786.04 171.95 819.61C162.16 853.18 163.57 890.61 179.57 921.71C195.57 952.81 225.05 975.61 257.64 988.26C290.23 1000.91 325.82 1004.12 360.75 1002.92C493.35 998.4 621.41 929.23 701.26 823.28C717.76 801.39 732.4 777.87 742.01 752.21C754.01 720.21 757.84 685.78 759.33 651.66C762.84 571.06 762.53 463.5 718.33 392.74C704.72 370.96 688.52 361.29 663.77 356.28C626.57 348.74 589.03 341.92 551.18 338.71C499.983 334.359 448.466 335.495 397.51 342.1Z" stroke="#FCD7B7" stroke-width="2" stroke-miterlimit="10"/>
<path d="M107.43 944.25C115.28 967.71 89.7599 989.17 86.6599 1013.72C83.0999 1041.91 109.73 1069.35 100.83 1096.34C94.0699 1116.83 68.0699 1126.04 47.3099 1120.18C26.5499 1114.32 10.7699 1097.31 -0.870096 1079.18C-20.2214 1048.84 -31.0278 1013.84 -32.1501 977.87C-33.1001 946.11 -20.3801 899.41 15.5299 890.41C46.3099 882.7 97.7199 915.22 107.43 944.25Z" stroke="#FCD7B7" stroke-width="2" stroke-miterlimit="10"/>
<path d="M-23.5098 1592.66C54.1067 1563.07 139.355 1560.13 218.83 1584.28C240.67 1591 262.49 1600.13 278.65 1616.28C294.81 1632.43 304.26 1656.91 297.39 1678.69C290.79 1699.63 271.39 1713.55 252.46 1724.75C220.2 1743.86 185.73 1759.75 156.81 1783.66C127.89 1807.57 104.46 1841.6 104.46 1879.1C104.46 1906.38 116.81 1932.35 132.92 1954.37C149.03 1976.39 168.92 1995.31 186.92 2015.85C210.38 2042.72 231.11 2073.85 236.05 2109.2C243 2158.89 215.5 2210.14 173.05 2236.96C130.6 2263.78 75.9302 2267.53 28.0502 2252.63C-19.8298 2237.73 -61.2198 2205.63 -92.9498 2166.69C-109.78 2146.03 -124.24 2123.22 -133.59 2098.27C-144.12 2070.15 -147.94 2040.03 -151.79 2010.27C-162.15 1930.13 -173.63 1848.99 -205.26 1774.63C-215.87 1749.68 -228.93 1724.63 -229.26 1697.52C-229.37 1686.95 -227.16 1675.73 -219.9 1668.05C-209 1656.51 -194.15 1663.91 -181.04 1661.87C-163.04 1659.06 -144.14 1649.13 -127.64 1641.61C-92.7198 1625.68 -59.3598 1606.45 -23.5098 1592.66Z" stroke="#DCEBCE" stroke-width="2" stroke-miterlimit="10"/>
<path d="M400.771 1753.65C386.211 1743.65 368.561 1738.93 350.971 1737.59C333.111 1736.23 314.581 1738.38 298.761 1746.78C282.941 1755.18 270.211 1770.46 267.761 1788.2C265.311 1805.94 274.761 1825.46 291.371 1832.13C304.681 1837.46 320.231 1834.41 333.511 1839.82C350.841 1846.82 359.411 1865.82 370.401 1880.93C374.831 1887.04 380.401 1893.06 387.851 1894.49C399.391 1896.72 409.851 1887.03 415.701 1876.84C436.691 1840.24 438.671 1779.61 400.771 1753.65Z" stroke="#DCEBCE" stroke-width="2" stroke-miterlimit="10"/>
<path d="M363.5 1913.42C357.36 1897.59 348.31 1882.55 335.28 1871.68C329.71 1867.03 323.15 1863.09 315.92 1862.52C304.57 1861.64 293.92 1869.45 288.19 1879.26C276.61 1898.95 282.35 1926.4 299.6 1941.38C316.85 1956.36 343.28 1958.7 363.91 1948.91C365.193 1948.13 366.667 1947.72 368.17 1947.72C370.24 1947.94 371.75 1949.72 372.83 1951.53C374.193 1953.77 375.224 1956.2 375.89 1958.74C371.59 1943.61 369.23 1928.19 363.5 1913.42Z" stroke="#DCEBCE" stroke-width="2" stroke-miterlimit="10"/>
<path d="M355 1263.63C320.47 1254.48 283.36 1258.75 249.62 1270.52C226.1 1278.72 202.77 1291.52 189.79 1312.75C187.63 1316.29 185.79 1320.2 185.79 1324.34C185.79 1332.42 192.79 1338.64 199.61 1342.98C211.469 1350.51 224.584 1355.86 238.33 1358.76C249.65 1361.15 261.33 1361.86 272.4 1365.26C283.47 1368.66 294.27 1375.39 298.87 1386.01C302.51 1394.42 301.78 1404.01 303.08 1413.01C307.5 1443.81 337.77 1467.57 368.88 1468.01C399.99 1468.45 429.39 1447.9 443.13 1420C476.53 1352.19 421.26 1281.19 355 1263.63Z" stroke="#DCEBCE" stroke-width="2" stroke-miterlimit="10"/>
</g>
<defs>
<clipPath id="clip0_412_7051">
<rect width="1069.68" height="2590" fill="white" transform="translate(-308)"/>
</clipPath>
</defs>
</svg>
