<svg width="360" height="1283" viewBox="0 0 360 1283" fill="none" xmlns="http://www.w3.org/2000/svg">
<g clip-path="url(#clip0_412_7076)">
<path d="M532.08 447.3C483.75 457.3 433.89 456.04 384.54 455.09C335.19 454.14 285.22 453.65 237.23 465.2C189.24 476.75 142.71 501.76 114.86 542.51C87.0104 583.26 81.7405 641.23 110.2 681.51C125.56 703.27 148.64 718.04 168.85 735.39C197.38 759.88 221.92 793.49 221.35 831.08C220.89 861.31 204.29 889.36 202.6 919.54C201.581 938.573 206.524 957.449 216.74 973.54C233.1 999.17 261.79 1015.21 291.57 1021.36C321.35 1027.51 352.29 1024.69 382.18 1019.11C493.8 998.23 599.49 935.92 661.85 841C724.21 746.08 738.39 618.2 687.65 516.59C671.4 484.04 648.96 454.24 638.42 419.42C628.42 386.42 616.24 393.5 596.88 414.42C579.96 432.72 556.08 442.32 532.08 447.3Z" fill="#F3F6EA"/>
<path d="M70.77 742C91.1749 763.466 107.11 788.772 117.65 816.45C130.79 851.05 134.65 891.45 117.29 924.12C98.69 959.05 57.51 978.92 17.99 976.94C-21.53 974.96 -58.52 953.35 -84.19 923.24C-109.86 893.13 -125.03 855.24 -133.19 816.47C-143.291 768.235 -143.09 718.411 -132.6 670.26C-122.33 623.26 -79.6 585.85 -44.77 633.54C-12.86 677.18 33.95 703.32 70.77 742Z" fill="#F3F6EA"/>
<path d="M665 456.76C551 434.85 434.34 422.93 318.61 432.2C277.08 435.52 235.36 441.67 196.48 456.65C157.6 471.63 121.48 496 97.9101 530.4C85.1901 549 76.1401 571.51 79.8501 593.7C83.1101 613.26 95.8501 630.03 110.56 643.35C147.85 677.14 198.45 693.16 236.38 726.24C244.27 733.11 251.84 741.24 254.31 751.36C257.61 764.96 250.92 779.18 241.7 789.7C232.48 800.22 220.77 808.26 211.08 818.32C180.87 849.55 173.69 900.73 194.08 939.07C215.3 978.86 259.82 1000.47 303.42 1011.95C383.74 1033.1 470.58 1028.19 548.32 998.95C626.06 969.71 694.41 916.36 742.39 848.57C766.27 814.83 785.39 777.15 793.86 736.69C809.33 662.97 788.86 586.99 768.46 514.46C763.69 497.46 758.27 475.02 740.81 468.53C719.25 460.5 688.08 461.19 665 456.76Z" stroke="#DCEBCE" stroke-miterlimit="10"/>
<path d="M-140.92 786.24C-115.3 790.81 -88.5798 782.86 -66.6998 768.77C-44.8198 754.68 -27.2399 734.85 -11.5499 714.09C-0.0598507 698.89 11.9401 682 30.1801 676.56C53.0701 669.7 77.1801 683.5 94.1801 700.29C127.43 733.11 146.61 781.6 138.3 827.58C129.99 873.56 91.3801 914.17 44.9001 918.89C22.3501 921.18 -0.32984 915.51 -22.9598 916.77C-52.5498 918.42 -80.8498 931.86 -110.48 931.14C-139.02 930.45 -166.26 916.21 -186.03 895.62C-205.8 875.03 -218.64 848.5 -226.37 821C-231.7 802 -237.37 749.73 -205.12 748.44C-192.63 747.94 -184.74 762.39 -176.39 769.38C-166.236 777.992 -154.009 783.804 -140.92 786.24Z" stroke="#DCEBCE" stroke-miterlimit="10"/>
</g>
<defs>
<clipPath id="clip0_412_7076">
<rect width="1030.79" height="1283" fill="white" transform="translate(-231)"/>
</clipPath>
</defs>
</svg>
