<svg width="1420" height="85" viewBox="0 0 1420 85" fill="none" xmlns="http://www.w3.org/2000/svg">
<path d="M1 26.2074C27.643 63.9682 91.3764 74.4678 145.882 69.7497C200.388 65.0316 253.514 49.3255 308.31 50.9717C371.973 52.8778 432.397 78.1226 496.071 76.5C532.581 75.5706 567.692 65.835 603.863 62.0069C714.884 50.2549 827.924 94.514 937.656 76.7284C977.705 70.2381 1015.42 55.6583 1056.02 51.846C1107.43 47.0333 1158.42 59.7699 1209.4 66.4494C1260.39 73.1288 1318.19 72.1836 1357.02 45.2532C1376.01 32.044 1393.75 11.9348 1419 14.1718" stroke="#DCEBCE" stroke-width="2" stroke-miterlimit="10"/>
<path d="M31 1H1399V63.3176C1382.41 67.5025 1363.74 67.2569 1344.53 66.5259C1342.3 66.441 1340.07 66.3495 1337.82 66.2579C1320.52 65.5508 1302.96 64.833 1286.44 67.033L1286.39 67.0399L1286.34 67.0519C1259.96 73.3871 1244.65 75.0778 1229.79 73.7964C1218.64 72.8351 1207.74 70.2065 1192.59 66.5519C1187.46 65.314 1181.84 63.9584 1175.55 62.5101L1175.5 62.497L1175.44 62.4906C1162.73 61.0817 1150.15 62.6086 1137.66 64.7847C1133.95 65.431 1130.26 66.133 1126.56 66.8339C1117.78 68.5015 1109.03 70.163 1100.21 71.0532L1100.31 72.0482L1100.21 71.0533C1073.61 73.7457 1047.13 69.3634 1020.47 64.7292C1019.63 64.582 1018.78 64.4345 1017.93 64.287C992.16 59.7992 966.218 55.2822 940.086 57.0597C927.879 57.89 915.84 60.0901 903.88 62.2758C902.173 62.5879 900.467 62.8997 898.762 63.2072C885.092 65.6727 871.49 67.8646 857.671 67.7775C845.688 67.7007 833.858 65.913 821.966 63.9666C820.874 63.7879 819.781 63.6079 818.688 63.4277C807.897 61.6491 797.039 59.8595 786.051 59.2566C772.488 58.5091 759.003 59.5767 745.574 61.0681C741.373 61.5346 737.182 62.0419 732.995 62.5486C723.772 63.6651 714.571 64.7789 705.33 65.4483C678.754 67.3718 652.111 65.5984 625.381 63.7019C624.514 63.6404 623.647 63.5788 622.78 63.5171C596.935 61.6798 571.01 59.8367 545.112 61.2582C518.284 62.7223 491.275 67.6447 464.46 72.5317C452.661 74.682 440.9 76.8254 429.209 78.6644C390.871 84.6947 353.171 87.4807 316.785 76.7739L316.502 77.7332L316.785 76.7738C309.613 74.6645 302.432 72.0329 295.205 69.3683L294.506 69.1106C287.521 66.5344 280.493 63.9425 273.446 61.8041C258.881 57.3848 244.114 54.8628 229.178 58.4156L229.145 58.4233L229.113 58.4332C212.511 63.575 202.174 64.6373 194.402 64.0754C189.005 63.6852 184.872 62.5285 180.625 61.34C178.7 60.8015 176.753 60.2565 174.654 59.7733C161.231 56.683 143.301 56.7036 91.6164 78.759C70.3542 84.7591 48.7715 83.998 31 78.2371V1Z" stroke="#FCD7B7" stroke-width="2"/>
</svg>
