<svg width="2330" height="8592" viewBox="0 0 2330 8592" fill="none" xmlns="http://www.w3.org/2000/svg">
<path d="M1630.55 1152.28C1504.03 1108.74 1441.43 1169.58 1396.2 1269.76C1392.62 1277.7 1387.21 1284.67 1380.41 1290.1C1373.61 1295.53 1365.62 1299.27 1357.09 1301.01L1356.17 1301.21C1340.81 1304.32 1326.61 1311.61 1315.14 1322.28C1303.67 1332.95 1295.37 1346.58 1291.17 1361.68C1249.33 1514.07 1430.41 1577.26 1542.85 1474.91C1557.04 1462.1 1575.05 1454.31 1594.11 1452.75C1628.97 1449.81 1668.19 1458.17 1703.41 1451.51C1720.17 1448.21 1735.65 1440.24 1748.07 1428.52C1760.5 1416.81 1769.36 1401.82 1773.63 1385.29C1798.96 1289.71 1717.35 1186.01 1630.55 1152.28Z" fill="#F3F6EA"/>
<path d="M985.534 1819.81C994.865 1791.18 971.437 1774.21 946.698 1759.78C937.579 1754.4 930.072 1746.68 924.964 1737.41C913.261 1715.64 897.149 1696.55 877.655 1681.35C817.355 1635.69 736.383 1653.45 701.591 1720.6C641.924 1835.83 868.482 1945 972.521 1840.35C978.406 1834.61 982.864 1827.58 985.534 1819.81Z" fill="#F3F6EA"/>
<path d="M1648.04 1858.81C1634.85 1892.06 1608.43 1911.27 1580.26 1930C1540.07 1956.62 1517.45 2003.63 1523.55 2051.44C1528.55 2090.62 1551.64 2125.23 1595.85 2134.02C1675.35 2148.84 1714.73 2060.73 1790.42 2052.19C1806.62 2050.31 1822.07 2044.34 1835.33 2034.86C2006.2 1913.17 1804.99 1612.02 1662.59 1830.18C1656.79 1839.21 1651.92 1848.8 1648.04 1858.81Z" fill="#FDF1E5"/>
<path d="M294.495 1928.24C516.173 1920.15 369.796 2122.54 650.757 2107.81C661.679 2107.19 672.634 2107.53 683.494 2108.85C847.991 2129.79 968.161 2375.64 814.373 2458.81C790.119 2471.57 763.3 2478.71 735.909 2479.68C674.909 2482.57 634.739 2460.43 594.705 2447.31C578.57 2441.99 561.491 2440.16 544.597 2441.94C527.702 2443.72 511.377 2449.06 496.699 2457.61C86.0556 2697.98 62.9885 1938.97 294.495 1928.24Z" fill="#FDF1E5"/>
<path d="M1699.03 3509.93C1679.53 3504.82 1657.3 3505.77 1641.17 3517.83C1630.17 3526.08 1623.1 3538.6 1618.44 3551.54C1612.3 3568.65 1609.99 3588.05 1617.04 3604.84C1620.91 3614.06 1627.32 3621.92 1633.94 3629.4C1642.17 3638.75 1651.38 3648.06 1663.31 3651.77C1681.57 3657.46 1700.91 3648.63 1717.76 3639.57C1741.91 3626.58 1765.95 3610.2 1770.74 3581.16C1774.31 3559.52 1754.47 3542.53 1739.11 3530.24C1727.32 3520.73 1713.67 3513.81 1699.03 3509.93Z" fill="#F3F6EA"/>
<path d="M808.211 4164.73C879.694 4189.86 959.966 4162.11 997.424 4096.25C1039.49 4022.35 1017.1 3922.41 909.878 3905.51C833.605 3894.22 821.473 3961.43 798.609 4013.29C791.176 4030.14 773.509 4036.22 757.943 4045.84C690.097 4087.44 728.708 4136.81 808.211 4164.73Z" fill="#FDF1E5"/>
<path d="M1461.4 851.653C1479.34 919.118 1530.67 915.345 1582.11 918.101C1620.68 920.172 1656.99 936.97 1683.53 965.029C1793.56 1081.43 1927.37 1056.17 1967.3 940.944C1996.67 855.923 1960.52 762.611 1883.7 715.571C1742.79 629.15 1503.74 623.75 1461.76 779.059C1455.25 802.803 1455.13 827.846 1461.4 851.653Z" fill="#FDF1E5"/>
<path d="M1219.57 846.366C1103.24 908.183 977.243 854.59 861.479 821.016C553.225 708.657 235.867 1386.45 167.75 795.372C164.283 766.798 165.044 737.868 170.01 709.516C216.596 452.783 577.445 469.864 831.837 509.403C923.44 523.423 1013.82 544.498 1102.18 572.439C1271.29 626.258 1456.3 713.492 1219.57 846.366Z" fill="#F3F6EA"/>
<path d="M2109.22 2988.98C2115.64 2906.26 2086.29 2824.04 2026.08 2767.11C2024.39 2765.48 2022.67 2763.9 2020.93 2762.34C1797.87 2560.64 1437.79 2454.57 1157.89 2580.17C1120.75 2597.88 1085.01 2620.13 1047.94 2637.94C1003.26 2659.21 953.934 2668.83 904.54 2665.93C764.466 2658.25 629.995 2620.74 475.281 2654.91C219.985 2711.28 103.407 2937.21 147.123 3173.97C152.627 3205.04 163.101 3235.01 178.143 3262.75C310.987 3503.53 600.06 3234.71 1000.51 3382.49C1006.31 3384.63 1012.18 3386.63 1018.11 3388.5C1102.68 3414.94 1190.63 3459.56 1279.37 3465.16C1325.19 3467.96 1370.82 3457.18 1410.55 3434.19C1467.73 3401.24 1524.62 3366.11 1592.67 3361.62C1725.37 3351.13 1875.66 3390.87 1972.58 3278.43C2045.96 3197.06 2100.59 3100.25 2109.22 2988.98Z" fill="#F3F6EA"/>
<path d="M831.17 4575.99C727.587 4566.01 620.922 4736.63 739.068 4768.03C748.86 4770.67 757.859 4775.66 765.279 4782.57C772.7 4789.48 778.318 4798.1 781.643 4807.68C795.915 4848.51 790.523 4899.52 845.074 4899.1C866.069 4898.95 886.215 4891.16 902.682 4878.12C1004.22 4797.66 990.407 4591.34 831.17 4575.99Z" fill="#F3F6EA"/>
<path d="M1705.59 4292.19C1580.99 4412.15 1484.24 4142.66 1323.63 4321.37C1263.64 4388.19 1241.44 4525.17 1367.67 4502.8C1404.98 4495.27 1449.62 4473.04 1488.67 4477.83C1499.89 4479.29 1510.56 4483.57 1519.67 4490.27C1528.79 4496.98 1536.05 4505.89 1540.77 4516.17C1566.64 4571.45 1572.88 4657.42 1637.32 4668.28C1647.41 4669.95 1657.74 4669.53 1667.65 4667.03C1677.57 4664.53 1686.86 4660.01 1694.95 4653.75C1719.48 4634.72 1737.96 4603.71 1763.86 4586.76C1772.87 4581.05 1783.06 4577.46 1793.67 4576.26C1825.38 4572.26 1846.38 4550.18 1855.65 4517.04C1880.9 4426.61 1831.47 4177.52 1705.59 4292.19Z" fill="#FDF1E5"/>
<path d="M1418.58 5073.31C1423.37 5047.7 1411.18 5021.55 1387.98 5009.71C1320.56 4975.33 1252.59 5103.28 1289.85 5167.68C1319.85 5215.33 1409.93 5206.49 1429.22 5150.87C1434.95 5134.37 1427.34 5121.48 1421.16 5107.73C1417.23 5099.08 1415.91 5089.47 1417.36 5080.08C1417.73 5077.82 1418.15 5075.56 1418.58 5073.31Z" fill="#FDF1E5"/>
<path d="M527.958 5132.07C563.276 5171.85 586.834 5227.5 605.267 5276.7C617.053 5308.19 644.886 5320.78 683.097 5318.15C718.872 5315.68 777.736 5298.15 811.899 5296.7C919.275 5292.16 1015.77 5358.57 980.955 5468.62C945.739 5580 802.08 5571.05 688.856 5571.39C645.721 5571.5 603.299 5582.4 565.458 5603.11C514.358 5631.11 463.449 5659.69 402.187 5654.77C148.756 5634.39 158.258 5225.52 341.078 5107.52C401.16 5068.76 480.474 5078.57 527.958 5132.07Z" fill="#F3F6EA"/>
<path d="M1695.97 5966.84C1650.22 6003.47 1586.85 6022.41 1531.51 6003.07C1473.9 5982.93 1436.82 5927.6 1386.13 5893.64C1295.1 5832.65 1167.04 5849.86 1077.88 5913.46C1015.85 5957.7 967.383 6025.62 961.08 6101.51C954.778 6177.41 998.166 6258.81 1070.31 6283.35C1126.94 6302.63 1189.63 6285.81 1243.81 6260.47C1285.09 6241.15 1327.49 6216.23 1372.78 6221.3C1429.8 6227.7 1473.82 6289.69 1461.09 6345.6C1456.03 6367.79 1443.78 6387.6 1435.29 6408.69C1403.9 6486.91 1431.29 6584.59 1498.68 6635.18C1560.59 6681.61 1646.74 6686.63 1720.35 6662.64C1793.96 6638.66 1856.56 6589.09 1910.99 6534.08C2009.94 6434.1 2089.06 6307.79 2104.4 6167.99C2119.73 6028.2 2060.59 5875.39 1938.41 5805.61C1928.09 5799.72 1917.25 5794.38 1905.61 5792.02C1867.59 5784.33 1807.93 5813.02 1787.56 5845.85C1760.07 5890.05 1737.62 5933.49 1695.97 5966.84Z" fill="#FDF1E5"/>
<path d="M418.348 6289.69C460.166 6348.16 534.646 6374.22 606.095 6382.35C677.544 6390.48 750.154 6384.15 821.363 6394.43C892.572 6404.71 966.032 6435.75 1002.38 6497.77C1034.5 6552.6 1031.71 6620.02 1038.52 6683.2C1045.33 6746.38 1069.84 6816.77 1128.98 6840.12C1167.41 6855.3 1211.63 6846.12 1248.83 6828.13C1286.02 6810.13 1318.55 6783.87 1354.01 6762.66C1421.85 6722.08 1502.32 6700.17 1580.78 6709.8C1659.25 6719.42 1734.77 6762.71 1775.56 6830.39C1823.66 6910.18 1818.3 7015.07 1775.83 7097.99C1733.37 7180.92 1658.17 7243.55 1575.41 7286.43C1500.38 7325.33 1410.69 7349.57 1331.63 7319.69C1203.94 7271.4 1141.86 7098.34 1006.16 7083.37C914.421 7073.24 835.639 7141.72 760.148 7194.76C700.628 7236.56 636.196 7270.91 568.3 7297.02C501.572 7322.67 428.062 7340.26 358.874 7322.27C283.123 7302.58 224.069 7243.21 178.57 7179.55C93.9635 7060.78 43.4561 6921.15 32.5106 6775.77C28.4089 6720.05 30.99 6661.08 59.5216 6613.08C90.2542 6561.45 147.698 6528.35 172.448 6473.59C222.668 6362.51 116.345 6221.05 177.89 6115.82C203.541 6071.97 257.753 6051.83 306.793 6057.53C329.692 6060.2 360.265 6069.28 375.821 6087.75C391.758 6106.74 379.222 6155.26 381.553 6181.19C385.045 6219.64 395.669 6257.99 418.348 6289.69Z" fill="#F3F6EA"/>
<path d="M1115.93 6447.04C1099.33 6471.39 1089.15 6501.72 1095.31 6530.55C1101.46 6559.37 1127.17 6584.88 1156.66 6584.33C1167.78 6584.12 1178.67 6580.43 1189.83 6580.93C1196.42 6581.27 1202.85 6583.06 1208.67 6586.17C1214.49 6589.28 1219.55 6593.64 1223.49 6598.92C1234.66 6614.18 1236.95 6637.3 1254.01 6645.51C1272.09 6654.2 1293.28 6638.51 1301.81 6620.35C1316.9 6588.28 1307.06 6546.43 1279.27 6524.42C1270.55 6517.5 1260.43 6512.47 1251.88 6505.34C1243.33 6498.21 1236.2 6488.07 1236.69 6476.95C1237.16 6466.36 1244.29 6457.39 1248.28 6447.55C1259.13 6420.78 1238.37 6375.23 1205.89 6380.1C1171.31 6385.29 1134.65 6419.58 1115.93 6447.04Z" fill="#F3F6EA"/>
<path d="M1113.01 6732.15C1111.52 6756.15 1121.68 6781.28 1141.45 6794.91C1160.81 6808.24 1187.67 6808.96 1208.48 6798.03C1222.68 6790.59 1234.84 6776.25 1233.69 6760.27C1232.69 6746.19 1222.07 6735 1215.49 6722.51C1214.02 6720.05 1213.12 6717.28 1212.87 6714.42C1212.7 6709.09 1216.3 6704.5 1219.02 6699.9C1237.54 6668.41 1208.01 6624.55 1171.45 6642.54C1141.62 6657.22 1115 6699.92 1113.01 6732.15Z" fill="#FDF1E5"/>
<path d="M1743.19 7488.03C1686.93 7449.41 1613.14 7426.82 1549.99 7452.69C1504.03 7471.5 1471.1 7512.68 1445.95 7555.54C1420.8 7598.4 1401.18 7644.67 1370.83 7683.96C1355.89 7703.29 1337.76 7721.19 1314.95 7729.95C1296.95 7736.84 1277.31 7737.61 1258.06 7737.74C1180.25 7738.27 1096.73 7731.1 1030.43 7771.81C1013.31 7782.33 997.635 7796.28 988.932 7814.39C969.694 7854.44 990.282 7904.22 1023.85 7933.37C1069.71 7973.18 1134.71 7983.86 1195.3 7979.3C1255.88 7974.74 1314.56 7956.79 1374.37 7946.14C1434.17 7935.48 1497.96 7932.58 1553.65 7956.85C1608.26 7980.67 1651.85 8029.21 1710.28 8040.92C1778.01 8054.49 1848.98 8010.47 1879.08 7948.31C1909.17 7886.15 1903.3 7811.09 1876.89 7747.28C1861.54 7710.13 1840.14 7675.8 1825.19 7638.48C1817.98 7620.48 1812.25 7601.71 1810.19 7582.36C1809.27 7573.8 1810.94 7563.85 1808.26 7555.78C1805.72 7548.1 1798.37 7539.7 1793.44 7533.38C1779.48 7515.51 1761.81 7500.79 1743.19 7488.03Z" fill="#FDF1E5"/>
<path d="M1743.41 138.258C1723.33 135.078 1702.94 134.259 1682.62 134.399C1645.85 134.589 1608.88 137.668 1573.38 147.217C1537.89 156.765 1503.78 173.022 1476.34 197.428C1471.04 202.138 1465.87 207.327 1463.14 213.866C1459.25 223.214 1461.02 234.252 1466.14 243.001C1471.25 251.75 1479.26 258.449 1487.93 263.678C1520.8 283.554 1561.85 283.904 1597.32 298.672C1614.33 305.751 1631.33 318.209 1634.48 336.376C1637.86 356.193 1623.47 375.92 1627.14 395.696C1631.14 417.393 1655.15 429.691 1677.16 431.581C1719.54 435.28 1762.06 411.484 1784.76 375.52C1807.46 339.555 1811.19 293.333 1798.82 252.659C1793.61 235.552 1785.68 218.915 1784.82 201.058C1784.23 188.17 1789.07 170.253 1782.75 158.285C1775.81 145.317 1756.54 140.348 1743.41 138.258Z" fill="#FDF1E5"/>
<path d="M721.082 1476.42C755.206 1447.12 773.824 1403.16 807.037 1372.83C825.095 1356.34 847.444 1344.22 871.524 1339.95C895.604 1335.68 921.364 1339.57 942.193 1352.38C969.644 1369.27 986.311 1399.91 993.424 1431.37C999.056 1456.24 999.096 1483.62 986.561 1505.85C968.744 1537.42 926.946 1551.48 892.172 1541.17C866.162 1533.47 844.533 1514.55 818.332 1507.63C800.303 1502.92 781.232 1504.18 763.98 1511.22C750.324 1516.83 738.399 1525.83 725.864 1533.63C713.329 1541.43 699.503 1548.24 684.747 1548.57C669.991 1548.9 654.205 1541.21 649.053 1527.38C643.681 1513.01 653.965 1496.95 668.561 1494.26C677.564 1492.6 685.778 1495.1 694.992 1492.01C704.615 1488.76 713.429 1482.99 721.082 1476.42Z" fill="#FDF1E5"/>
<path d="M782.667 7463.34C758.908 7440.92 724.434 7434.24 691.81 7432.5C615.459 7428.43 535.556 7447.8 477.893 7497.94C452.302 7520.17 431.124 7549.01 424.331 7582.21C417.538 7615.4 427.332 7653.07 453.803 7674.19C471.2 7688.06 493.819 7693.76 516.008 7695.59C538.197 7697.42 560.507 7695.75 582.746 7696.73C598.562 7697.43 615.709 7700.15 626.534 7711.73C636.097 7721.92 638.598 7736.8 646.002 7748.65C660.207 7771.42 690.46 7779.37 717.101 7776.14C753.315 7771.77 786.929 7749.58 805.187 7718.01C815.001 7701.02 820.433 7681.94 824.725 7662.82C828.406 7646.42 831.327 7629.69 830.727 7612.88C830.149 7598.28 826.904 7583.92 821.153 7570.49C815.081 7556.31 813.62 7550.2 812.8 7534.73C811.339 7508.44 802.145 7481.71 782.667 7463.34Z" fill="#FDF1E5"/>
<path d="M1141.98 8197.82C1139.62 8201.55 1137.83 8205.98 1138.61 8210.34C1139.24 8213.84 1141.44 8216.84 1143.83 8219.48C1156.83 8233.92 1178.27 8243.97 1180.19 8263.33C1181.33 8274.74 1174.81 8285.59 1174.19 8297.05C1173.41 8311.14 1182 8324.69 1193.88 8332.3C1205.75 8339.92 1220.41 8342.24 1234.49 8341.5C1272.51 8339.5 1308.46 8314.8 1323.96 8280.03C1333.96 8257.57 1334.83 8229.04 1318.96 8210.27C1307.45 8196.72 1289.49 8190.61 1272.12 8186.82C1245.71 8181.06 1219.03 8180.4 1192.2 8178.39C1173.23 8176.98 1152.98 8180.38 1141.98 8197.82Z" fill="#FDF1E5"/>
<path d="M1137.26 8127.69C1130.48 8131.99 1130.26 8143.26 1136.54 8148.3C1142.82 8153.35 1153.13 8151.44 1157.77 8144.89C1162.41 8138.35 1161.25 8128.61 1155.77 8122.76C1154.29 8121.08 1152.39 8119.85 1150.26 8119.18C1143.2 8117.23 1136.85 8124.29 1134.33 8131.18" fill="#FDF1E5"/>
<path d="M1506.52 813.131C1516.57 898.987 1605.36 933.601 1676.64 976.213C1707.7 994.859 1734.08 1020.36 1753.77 1050.77C1762.25 1064.2 1771.64 1077.03 1781.86 1089.18C1819.16 1132.11 1884.09 1139.23 1927.92 1102.99C2016.59 1029.83 1949.72 843.52 1873.36 757.934C1784.93 660.42 1562.41 611.346 1513.12 755.449C1506.63 773.941 1504.38 793.652 1506.52 813.131Z" stroke="#FCD7B7" stroke-width="2" stroke-miterlimit="10"/>
<path d="M831.611 830.234C811.052 824.563 790.944 817.559 770.024 812.927C739.501 806.149 708.03 804.658 676.761 804.455C640.207 804.229 603.313 805.81 567.843 814.69C497.58 832.268 437.416 877.229 383.736 925.896C356.963 950.162 330.982 975.851 299.962 994.446C268.943 1013.04 231.62 1024.04 196.398 1015.91C172.856 1010.46 152.41 996.84 136.279 978.765C117.362 957.222 105.213 930.582 101.351 902.173C61.5651 625.67 175.048 558.386 395.732 553.913C497.837 551.689 598.868 532.564 694.723 497.315C727.279 485.408 760.015 474.134 793.61 466.113C975.277 422.666 1178.14 483.172 1306.33 619.05C1349.05 661.459 1307.55 702.647 1296.93 712.724C1267.43 740.453 1234.55 764.336 1199.06 783.804C1127.45 823.208 1047.39 844.754 965.676 846.615C920.43 847.667 875.272 842.15 831.611 830.234Z" stroke="#DCEBCE" stroke-width="2" stroke-miterlimit="10"/>
<path d="M1761.64 1286.89C1615.55 1152.66 1556.61 1195.72 1520.19 1261.88C1513.03 1275.01 1503.18 1286.5 1491.3 1295.58C1479.41 1304.67 1465.75 1311.15 1451.19 1314.61C1314.6 1346.45 1225.72 1461 1260.19 1539.76C1295.62 1623.72 1403.47 1650.02 1482.93 1614.91C1524.25 1596.13 1564.56 1572.47 1610.92 1569.29C1697.56 1563.17 1704.77 1695.81 1842.09 1643.85C1936.1 1606.12 1963.34 1475.82 1897.33 1400.33C1856.93 1357.29 1805.74 1327.4 1761.64 1286.89Z" stroke="#DCEBCE" stroke-width="2" stroke-miterlimit="10"/>
<path d="M812.204 1725.05C792.82 1781.24 857.389 1816.67 916.446 1811.77C926.25 1811.08 936.086 1812.53 945.275 1816.01C998.141 1835.35 1061.45 1809.87 1060.5 1755.82C1059.88 1736.95 1051.84 1719.09 1038.13 1706.12C990.234 1659.55 906.799 1653.97 847.562 1684.9C831.076 1693.27 818.423 1707.64 812.204 1725.05Z" stroke="#DCEBCE" stroke-width="2" stroke-miterlimit="10"/>
<path d="M749.939 1787.59C753.508 1768.77 736.022 1761.18 722.24 1749.63C717.643 1745.73 714.322 1740.53 712.706 1734.72C706.177 1711.74 671.565 1723.9 664.765 1742.36C648.95 1784.27 706.764 1842.29 741.738 1803.36C745.856 1798.95 748.692 1793.5 749.939 1787.59Z" stroke="#DCEBCE" stroke-width="2" stroke-miterlimit="10"/>
<path d="M1889.4 1990.35C1783.57 2140.53 1684.19 2043.35 1542.46 2041.07C1485.4 2036.03 1419.83 2077.65 1394.98 2132.12C1386.35 2150.9 1384.52 2172.09 1389.8 2192.06C1395.08 2212.04 1407.14 2229.56 1423.92 2241.61C1433.77 2248.48 1444.03 2254.75 1454.65 2260.37C1491.7 2280.7 1517.91 2313.94 1543.26 2347.78C1621.31 2451.96 1666.72 2404.13 1772.14 2364.5C1791.89 2357.07 1813.67 2357.38 1834.27 2361.92L1836.12 2362.31C1915.36 2378.85 1992.15 2324.85 2005.57 2245C2028.91 2105.58 1940.57 1918.34 1889.4 1990.35Z" stroke="#FCD7B7" stroke-width="2" stroke-miterlimit="10"/>
<path d="M381.273 2067.67C440.963 2130.93 538.63 2115.48 624.595 2121.89C660.424 2124.27 695.297 2134.48 726.759 2151.78C826.46 2207.61 816.09 2296.9 689.549 2333.96C664.406 2341.03 641.544 2354.55 623.217 2373.16C533.253 2466.38 587.656 2555.81 347.587 2555.74C33.8666 2548.78 30.8166 1864.84 339.725 2034.88C355.192 2043.59 369.209 2054.65 381.273 2067.67Z" stroke="#FCD7B7" stroke-width="2" stroke-miterlimit="10"/>
<path d="M1736.44 2699.08C1417.41 2594.65 1502.84 3025.24 1215.64 3170.4C1199.38 3178.49 1182.55 3185.39 1165.3 3191.08C921.959 3273.05 969.471 3559.51 1190.61 3440.06C1215.06 3426.63 1237.31 3409.54 1256.6 3389.38C1407.77 3233.73 1535.01 3332.9 1690.11 3349.98C1807.27 3362.81 1916.46 3289.88 1947.66 3176.23C1996.8 2996.59 1907.67 2755.36 1736.44 2699.08Z" stroke="#DCEBCE" stroke-width="2" stroke-miterlimit="10"/>
<path d="M1173.17 2993.24C1174.39 3014.23 1169.94 3032.76 1152.4 3046.2C1147.55 3049.8 1143.8 3054.69 1141.58 3060.32C1133.7 3081.06 1150.44 3102.19 1174.27 3101.33C1227.52 3101.55 1315.97 2924.06 1255.83 2896.38C1226.21 2881.92 1199.35 2907.41 1184.26 2936.78C1175.6 2954.27 1171.77 2973.77 1173.17 2993.24Z" stroke="#DCEBCE" stroke-width="2" stroke-miterlimit="10"/>
<path d="M754.706 3279.96C994.007 3288.71 1147.95 2871.2 823.884 2902.4C796.306 2905.26 768.452 2903.9 741.286 2898.35C573.242 2862.61 408.203 2693.45 254.687 2783.26C226.318 2799.92 202.471 2823.29 185.237 2851.31C89.3766 3006.51 137.793 3304.72 338.189 3284.37C372.562 3280.62 405.429 3268.24 433.733 3248.38C495.727 3205.45 558.647 3139.04 626.29 3187.37C635.032 3193.7 642.863 3201.21 649.56 3209.67C670.164 3235.29 687.493 3259.38 717.112 3272.08C729.052 3276.99 741.796 3279.67 754.706 3279.96Z" stroke="#DCEBCE" stroke-width="2" stroke-miterlimit="10"/>
<path d="M1693.18 3648.76C1627.37 3655.54 1584.28 3578.27 1624.81 3529.45C1627.78 3525.96 1631.55 3523.24 1635.79 3521.53C1640.04 3519.83 1644.63 3519.17 1649.19 3519.63C1653.74 3520.09 1658.12 3521.65 1661.93 3524.18C1665.75 3526.7 1668.9 3530.11 1671.11 3534.12C1675.87 3542.66 1680.8 3550.91 1689.68 3553.78C1691.51 3554.31 1693.4 3554.58 1695.3 3554.59C1703.51 3554.97 1711.43 3557.77 1718.05 3562.64C1753.77 3588.3 1736.92 3644.18 1693.18 3648.76Z" stroke="#DCEBCE" stroke-width="2" stroke-miterlimit="10"/>
<path d="M1589.3 3565.03C1587.97 3549.6 1544.9 3552.04 1548.88 3585.93C1553.44 3630.58 1593.75 3591.1 1589.3 3565.03Z" stroke="#DCEBCE" stroke-width="2" stroke-miterlimit="10"/>
<path d="M702.005 3413.09C721.954 3423.09 759.39 3425.69 779.475 3411.44C793.03 3401.86 790.364 3381.09 775.34 3374.18C746.67 3361.03 709.189 3358.14 676.792 3363.65C656.826 3366.76 638.262 3375.81 623.518 3389.63C616.289 3396.57 610.505 3404.34 607.929 3412.36C606.81 3415.89 606.699 3419.66 607.61 3423.25C608.521 3426.84 610.417 3430.1 613.084 3432.67C615.75 3435.24 619.082 3437.01 622.702 3437.79C626.323 3438.56 630.088 3438.31 633.572 3437.06C656.345 3429.4 673.561 3399.51 702.005 3413.09Z" stroke="#DCEBCE" stroke-width="2" stroke-miterlimit="10"/>
<path d="M852.289 4071.83C867.946 4054.5 890.697 4044.85 907.483 4028.9C912.265 4024.5 915.895 4018.99 918.056 4012.86C925.06 3992.07 908.477 3981.23 886.088 3977.09C846.393 3969.93 806.336 3986.72 781.529 4018.51C751.504 4056.92 733.136 4110.1 770.436 4143.72C775.408 4148.1 780.929 4151.8 786.861 4154.75C815.712 4169.45 851.612 4181.5 882.902 4170.56C917.424 4158.68 898.152 4119.75 871.29 4111.55C850.64 4104.23 832.024 4093.43 852.289 4071.83Z" stroke="#FCD7B7" stroke-width="2" stroke-miterlimit="10"/>
<path d="M807.51 4561.02C736.468 4559.37 776.886 4649.32 752.49 4686.62C699.525 4744.61 586.657 4760.31 595.182 4860.12C627.785 4969.6 863.773 4987.87 915.482 4874.19C955.672 4792.34 923.652 4565.91 807.51 4561.02Z" stroke="#DCEBCE" stroke-width="2" stroke-miterlimit="10"/>
<path d="M1384.02 4366.94C1326.01 4439.85 1307.28 4611 1417.31 4603.33C1438.11 4601.75 1457.99 4594.12 1474.51 4581.4C1517.09 4548.96 1555.44 4500.05 1612.65 4506.99C1688.92 4522.83 1740.78 4605.68 1826.11 4605.6C1974.43 4605.45 2022.95 4407.02 1966.52 4296.97C1860.68 4062.01 1510.32 4208.21 1384.02 4366.94Z" stroke="#FCD7B7" stroke-width="2" stroke-miterlimit="10"/>
<path d="M1415.38 5033.01C1385.59 5041.56 1370.43 5068.28 1372.25 5093.65C1374.52 5124.85 1406.3 5144.4 1435.68 5133.83C1458.94 5125.44 1479.61 5105.27 1487.46 5083.89C1499.9 5044.68 1447.31 5023.85 1415.38 5033.01Z" stroke="#FCD7B7" stroke-width="2" stroke-miterlimit="10"/>
<path d="M517.263 5607.5C623.282 5569.43 684.074 5652.23 785.056 5660.46C914.049 5671.04 1043.64 5509.65 980.511 5377.98C909.71 5247.57 718.605 5216.65 593.482 5271.81C397.417 5358.25 164.69 5216.51 34.1997 5450.29C-33.1765 5570.94 0.873156 5771.88 165.882 5772.16C294.088 5772.44 300.393 5685.28 517.263 5607.5Z" stroke="#DCEBCE" stroke-width="2" stroke-miterlimit="10"/>
<path d="M1150.32 5502.02C1057.24 5481.14 922.054 5628.63 986.664 5653.08C992.131 5655.08 997.983 5655.8 1003.77 5655.19C1009.56 5654.57 1015.13 5652.63 1020.05 5649.53C1041.82 5635.99 1063.53 5614.01 1085.39 5621.96C1142.4 5639.7 1216.44 5516.86 1150.32 5502.02Z" stroke="#DCEBCE" stroke-width="2" stroke-miterlimit="10"/>
<path d="M1730.41 6095.02C1677.72 6114.45 1620.43 6127.37 1565.49 6115.77C1510.55 6104.17 1458.98 6063.09 1449.23 6007.79C1441.42 5963.48 1459.88 5914.17 1438.17 5874.76C1422.78 5846.84 1389.76 5831.82 1357.86 5831.23C1325.97 5830.64 1295.08 5842.46 1266.94 5857.47C1166.29 5911.18 1090.74 6009.79 1065.12 6120.9C1054.98 6164.9 1054 6215.95 1083.68 6250.02C1118.41 6289.88 1180.43 6290.34 1231.74 6277.47C1283.05 6264.59 1333.46 6241.52 1386.2 6245.4C1404.67 6246.76 1424.98 6253.03 1433.64 6269.4C1442.77 6286.62 1435.35 6307.96 1425.03 6324.49C1408.4 6351.08 1384.83 6372.55 1365.63 6397.35C1346.42 6422.14 1331.11 6452.75 1335.53 6483.79C1338.35 6503.62 1348.95 6521.5 1361 6537.5C1412.57 6606 1506.12 6650 1586.27 6619.49C1631.09 6602.41 1665.16 6565.39 1694.04 6527.11C1742.56 6462.78 1783.28 6389.5 1849.73 6343.93C1941.71 6280.86 2075.68 6287.75 2160.68 6359.92C2173.51 6370.81 2185.95 6383.37 2202.16 6387.92C2238.77 6398.15 2272.19 6363.36 2289.3 6329.44C2339.07 6230.76 2334.45 6113.47 2314.17 6004.86C2298.38 5920.25 2272.47 5834.72 2217.44 5768.52C2202.51 5750.52 2184.54 5733.6 2161.98 5727.53C2145.17 5722.97 2122.16 5725.84 2109.77 5739.28C2100.42 5749.44 2100.3 5764.28 2094.58 5776.61C2077.96 5812.37 2053.22 5846.29 2028.88 5877.12C1979.68 5939.43 1920.12 5992.81 1852.81 6034.92C1814.17 6059.08 1773.15 6079.22 1730.41 6095.02Z" stroke="#FCD7B7" stroke-width="2" stroke-miterlimit="10"/>
<path d="M1642.81 6817.27C1593.23 6835.21 1537.91 6844.81 1488.06 6827.65C1436.09 6809.75 1397.96 6765.91 1351.68 6736.27C1306.24 6707.33 1253.33 6692.26 1199.45 6692.92C1115.56 6694.09 1036.85 6733.18 953.717 6744.41C890.762 6752.91 824.274 6744.52 769.222 6712.82C714.169 6681.11 672.182 6624.42 665.94 6561.22C660.558 6506.62 681.046 6453.24 689.629 6399C698.213 6344.76 690.45 6280.61 645.091 6249.69C624.023 6235.33 597.822 6230.5 572.341 6229.69C481.164 6226.7 392.958 6271.69 328.832 6336.49C264.706 6401.29 222.028 6484.39 189.395 6569.52C146.687 6680.94 119.246 6800.98 133.222 6919.46C147.198 7037.94 207.242 7154.84 308.824 7217.6C354.002 7245.53 407.924 7262.22 460.506 7254.67C509.966 7247.57 553.714 7220.2 598.392 7197.85C669.221 7162.42 753.025 7138.58 826.996 7166.85C883.849 7188.6 925.126 7237.24 972.055 7275.95C1027.82 7321.95 1095.11 7355.48 1166.85 7364.54C1238.6 7373.6 1314.67 7356.71 1371.44 7311.98C1449.34 7250.62 1489.37 7141.39 1582.24 7106.6C1638.36 7085.61 1701.11 7097.46 1760.37 7088.61C1891.83 7068.86 1993.58 6931.57 1974.15 6800.14C1966.41 6747.8 1932.22 6687.37 1878 6672.22C1847.49 6663.7 1839.19 6685.42 1820.23 6704.65C1796.8 6728.15 1770.93 6749.1 1743.07 6767.15C1711.7 6787.67 1678.06 6804.49 1642.81 6817.27Z" stroke="#DCEBCE" stroke-width="2" stroke-miterlimit="10"/>
<path d="M1162.54 6723.47C1150.75 6714.98 1131.97 6720.08 1125.36 6733.01C1118.74 6745.94 1124.92 6763.52 1137.78 6770.27C1141.94 6772.45 1146.71 6773.68 1150.19 6776.83C1156 6782.11 1156.45 6790.83 1158.85 6798.36C1165.23 6818.29 1189.86 6830.23 1209.37 6822.61C1228.88 6814.99 1238.83 6789.16 1229.24 6770.62C1222.86 6758.26 1211.01 6749.72 1198.14 6745.47C1192.01 6743.47 1185.43 6742.71 1179.77 6739.35C1172.89 6735.23 1168.96 6728.08 1162.54 6723.47Z" stroke="#FCD7B7" stroke-width="2" stroke-miterlimit="10"/>
<path d="M1243.44 6435.82C1246.14 6453.43 1235.77 6471.5 1240.16 6488.81C1244.17 6504.41 1258.75 6514.43 1269.58 6526.34C1282.98 6541.11 1291.39 6561.21 1288.94 6581C1286.5 6600.78 1271.78 6619.38 1252.21 6623.23C1238.38 6625.95 1224.2 6621.45 1211.4 6615.46C1190.03 6605.41 1169.07 6588.2 1166.57 6564.73C1164.17 6542.01 1179.76 6518.62 1171.73 6497.24C1162.93 6473.81 1130.56 6466.32 1121.35 6443.07C1114.41 6425.57 1124.77 6404.07 1141.79 6396.08C1164.73 6385.25 1178.81 6399.62 1199.54 6404.85C1218.75 6409.64 1239.62 6410.89 1243.44 6435.82Z" stroke="#DCEBCE" stroke-width="2" stroke-miterlimit="10"/>
<path d="M1761.72 7469.19C1641.67 7484.34 1568.25 7622.29 1449.37 7644.88C1426.44 7649.24 1402.16 7648.88 1380.4 7640.44C1339.04 7624.38 1311.13 7581.39 1268.06 7570.73C1240.12 7563.81 1209.62 7572.39 1186.95 7590.1C1164.28 7607.82 1149.04 7633.85 1140.86 7661.42C1131.55 7692.84 1131.67 7729.11 1150.56 7755.9C1168.95 7781.98 1200.81 7794.08 1229.74 7807.59C1258.67 7821.1 1288.89 7840.58 1296.39 7871.66C1302.84 7898.33 1290.48 7926.6 1295.52 7953.58C1300.52 7980.16 1322.28 8001.44 1347.39 8011.5C1372.5 8021.55 1400.5 8021.82 1427.36 8018.64C1474.46 8013.03 1519.8 7997.34 1560.29 7972.65C1601.81 7947.29 1637.23 7913.04 1677.85 7886.26C1718.48 7859.47 1767.6 7840 1815.29 7849.68C1838.09 7854.31 1862.51 7865.24 1883.32 7854.88C1891.53 7850.8 1897.9 7843.82 1903.58 7836.61C1946.46 7782.15 1958.23 7706.01 1938.45 7639.59C1928.45 7605.97 1910.74 7574.89 1887.88 7548.35C1876.6 7535.27 1864.11 7523.28 1850.57 7512.55C1837.5 7502.16 1821.35 7494.74 1809.08 7483.91C1794.51 7471.04 1782.08 7466.63 1761.72 7469.19Z" stroke="#FCD7B7" stroke-width="2" stroke-miterlimit="10"/>
<path d="M1801.88 145.537C1763.59 129.699 1721.35 126.01 1679.9 126.04C1637.95 126.04 1595.19 129.939 1556.5 146.176C1542.58 152.026 1529.12 159.584 1518.57 170.393C1508.01 181.201 1500.56 195.559 1500.23 210.656C1499.77 231.723 1513.24 251.17 1530.47 263.318C1547.71 275.466 1568.39 281.565 1588.72 287.164C1609.05 292.763 1629.8 298.232 1647.74 309.37C1653.59 313.02 1659.75 318.639 1658.75 325.468C1657.96 331.257 1652.44 335.036 1647.45 338.055L1616.07 357.052C1607.76 362.052 1598.36 369.18 1599.26 378.839C1599.74 383.998 1603.26 388.367 1606.9 392.017C1624.3 409.254 1649.27 417.623 1673.77 417.743C1698.27 417.863 1722.31 410.324 1744.19 399.306C1765.34 388.667 1785.8 373.52 1794.6 351.543C1807.68 318.909 1791.6 282.424 1791.53 247.26C1791.53 238.262 1792.6 229.023 1796.53 220.864C1800.82 211.866 1808.19 204.957 1816.33 199.398C1823.46 194.519 1838.44 191.009 1842.82 183.33C1852.17 166.893 1813.17 150.206 1801.88 145.537Z" stroke="#FCD7B7" stroke-width="2" stroke-miterlimit="10"/>
<path d="M802.095 1494.42C819.412 1639.17 1040.99 1598.11 1051.2 1471.37C1053.32 1426.16 1017.77 1419.24 988.171 1402.8C977.095 1396.61 967.665 1387.85 960.67 1377.27C957.769 1372.92 954.778 1368.67 950.896 1365.19C921.754 1340.86 876.806 1354.3 848.334 1376.63C815.161 1402.66 797.293 1449.21 802.095 1494.42Z" stroke="#FCD7B7" stroke-width="2" stroke-miterlimit="10"/>
<path d="M698.463 1449.68C695.412 1457.79 696.002 1466.95 698.653 1475.21C700.734 1481.7 704.145 1487.91 709.267 1492.41C717.671 1499.8 730.056 1501.75 740.85 1498.81C751.645 1495.87 760.858 1488.52 767.641 1479.59C772.463 1473.21 776.245 1465.46 775.464 1457.49C775 1453.59 773.689 1449.84 771.623 1446.5C768.858 1441.92 765.138 1438 760.716 1434.99C756.295 1431.98 751.276 1429.96 746.002 1429.07C730.176 1426.47 704.615 1433.29 698.463 1449.68Z" stroke="#FCD7B7" stroke-width="2" stroke-miterlimit="10"/>
<path d="M779.886 7721.25C745.322 7717.78 712.519 7701.81 686.848 7678.45C670.842 7663.91 657.226 7646.06 651.124 7625.34C646.312 7608.95 646.392 7591.4 649.473 7574.61C653.245 7554.04 662.768 7532.83 681.226 7523.01C709.117 7508.14 745.912 7524.49 774.054 7510.11C787.64 7503.16 797.113 7489.94 810.479 7482.57C830.347 7471.62 855.557 7475.57 875.766 7485.91C914.181 7505.54 939.792 7547.9 939.422 7590.99C938.651 7669.24 853.827 7728.68 779.886 7721.25Z" stroke="#FCD7B7" stroke-width="2" stroke-miterlimit="10"/>
<path d="M591.619 7451.8C580.385 7431.02 559.026 7414.86 535.406 7414.07C524.642 7413.7 513.978 7416.44 503.873 7420.21C457.334 7437.57 420.259 7478.39 407.464 7526.36C402.912 7543.41 401.341 7561.81 406.974 7578.53C412.606 7595.24 426.502 7609.89 443.909 7612.83C462.246 7615.93 480.534 7605.88 493.649 7592.7C506.765 7579.53 516.278 7563.23 528.383 7549.13C532.875 7543.89 538.237 7538.68 545.05 7537.59C558.706 7535.41 568.58 7540.11 581.925 7533.13C589.048 7529.4 596.931 7524.21 600.643 7516.84C609.857 7498.61 600.503 7468.23 591.619 7451.8Z" stroke="#FCD7B7" stroke-width="2" stroke-miterlimit="10"/>
<path d="M1125.84 8261.49C1119.4 8284.41 1129.27 8312.83 1151.56 8321.23C1165.13 8326.34 1181.95 8324.15 1192.58 8334.02C1197.34 8338.45 1199.98 8344.65 1203.88 8349.85C1213.65 8362.85 1231.05 8368.56 1247.24 8367.17C1263.42 8365.78 1278.5 8358.17 1291.65 8348.58C1306.53 8337.77 1319.66 8324.11 1327.78 8307.59C1336.78 8289.33 1338.52 8265.76 1325.92 8249.8C1315.13 8236.11 1296.77 8231.19 1279.56 8228.33C1262.35 8225.47 1244.71 8223.4 1229.92 8213.33C1217.1 8204.65 1208.45 8194 1191.9 8199.22C1163.93 8208.12 1133.95 8232.67 1125.84 8261.49Z" stroke="#FCD7B7" stroke-width="2" stroke-miterlimit="10"/>
<path d="M315.619 4216.1C396.704 4219.98 349.508 4330.47 509.124 4305.21C518.904 4303.54 528.896 4303.54 538.676 4305.21C606.024 4317.52 580.336 4381.35 506.142 4400.26C469.497 4409.43 451.581 4376.78 423.634 4368.09L422.934 4367.91C387.757 4359.46 360.849 4377.69 332.563 4393.21C301.86 4410.16 262.775 4401.39 243.323 4372.2C230.626 4353.11 224.074 4327.89 224.458 4303.26C225.271 4253.87 266.254 4213.75 315.619 4216.1Z" stroke="#DCEBCE" stroke-width="2" stroke-miterlimit="10"/>
</svg>
