<svg width="1366" height="921" viewBox="0 0 1366 921" fill="none" xmlns="http://www.w3.org/2000/svg">
<g clip-path="url(#clip0_389_3695)">
<path d="M1150.39 209.58C1083.46 236.29 1018.45 281.15 993.17 348.58C977.66 389.96 978.67 435.36 973.34 479.23C968.01 523.1 953.76 569.67 917.75 595.28C884.41 618.98 840.42 619.34 801.36 631.49C716.17 658 656.43 748.41 663.22 837.37C670.01 926.33 741.15 1005.83 828.36 1024.67C915.57 1043.51 1011.96 1001.67 1059.76 926.36C1082.92 889.85 1100.9 842.21 1142.76 831.56C1165.64 825.75 1189.98 833.42 1210.48 845.1C1230.98 856.78 1249.01 872.41 1269.27 884.52C1309.64 908.66 1360.97 917.74 1404.48 899.89C1463.36 875.73 1493.91 810.73 1509.88 749.12C1549.81 595.12 1530.88 426.59 1457.65 285.32C1398.06 170.23 1258.58 166.41 1150.39 209.58Z" fill="#FDF1E5"/>
<path d="M1091.66 951.68C1088.15 960.8 1086 970.9 1088.55 980.33C1093.09 997.11 1111.85 1006.98 1129.22 1006.33C1146.59 1005.68 1162.58 996.94 1176.87 987.04C1180.3 984.66 1183.87 982.14 1188 981.57C1192.6 980.94 1197.12 982.83 1201.69 983.7C1218.69 986.94 1236.48 974.16 1240.97 957.42C1245.46 940.68 1237.85 922.04 1224.31 911.22C1179.68 875.6 1110.89 901.56 1091.66 951.68Z" fill="#FDF1E5"/>
<path d="M210 767.17C199.88 757.17 187.53 748.87 173.61 745.83C155.14 741.83 135.79 747.3 118.96 755.89C99.4225 766.012 82.24 780.142 68.5342 797.356C54.8284 814.57 44.9077 834.481 39.4199 855.79C36.5599 867.17 35.0199 879.19 37.6799 890.62C40.3399 902.05 47.7899 912.84 58.6799 917.14C72.9699 922.78 90.3299 916.69 103.86 923.95C124.86 935.21 120.64 967.5 135.32 986.26C151.99 1007.57 186.7 1003.06 208.74 987.37C241.74 963.88 256.1 922.06 250.24 882.84C244.13 841.68 241.26 798.16 210 767.17Z" fill="#F3F6EA"/>
<path d="M1445.33 251C1329.12 194.72 1191.8 168.43 1070.17 211.79C1031.02 225.79 993.51 247.34 967.64 279.88C941.77 312.42 929.06 357.05 941.24 396.8C952.24 432.8 981.08 459.89 1006.6 487.55C1032.12 515.21 1056.54 548.55 1055.08 586.19C1054.75 594.75 1052.9 603.57 1047.72 610.38C1034.92 627.19 1009.34 624.73 988.72 620.29C892.36 599.6 789.23 572.88 698.09 610.38C614.34 644.84 557.09 735.11 561.49 825.56C564.11 878.87 586.29 930.11 618.7 972.51C655.82 1021.06 710.7 1060.51 771.82 1061.61C855.21 1063.14 923.1 995.55 969.76 926.41C987.6 899.99 1004.31 872.19 1028.18 851.06C1052.05 829.93 1085.13 816.19 1116 824.17C1157.92 835.01 1180.16 879.17 1200.9 917.17C1222.69 957.1 1249.9 996.36 1289.84 1018.17C1340.14 1045.59 1403.64 1040.17 1455.32 1015.46C1507 990.75 1548.5 948.9 1584.67 904.46C1625.78 853.98 1661.79 798.37 1682.45 736.64C1703.11 674.91 1707.58 606.43 1686.51 544.84C1668.64 492.61 1633.84 448.59 1596.37 408.92C1580.17 391.77 1563.55 378.45 1555.68 355.92C1547.58 332.77 1536.4 314.73 1518.16 297.92C1496.86 278.3 1471.28 263.6 1445.33 251Z" stroke="#FCD7B7" stroke-width="2" stroke-miterlimit="10"/>
<path d="M177.86 725C145.59 713.19 108.59 720.36 78.8601 737.58C65.3701 745.39 52.6901 755.58 45.4701 769.41C38.2501 783.24 37.4701 801.16 46.6701 813.77C62.9801 836.23 104.11 836.53 110.37 863.58C112.56 873.07 109.23 882.84 106.61 892.23C102.179 908.149 99.7601 924.56 99.4101 941.08C99.0401 958.17 101.31 976.35 111.98 989.7C130.84 1013.3 169.81 1011.58 193.57 992.93C217.33 974.28 228.68 943.98 235.22 914.49C243.54 876.96 239.02 840.18 234.22 802.55C230 768.42 211.3 737.23 177.86 725Z" stroke="#DCEBCE" stroke-width="2" stroke-miterlimit="10"/>
</g>
<defs>
<clipPath id="clip0_389_3695">
<rect width="1700.76" height="1308" fill="white"/>
</clipPath>
</defs>
</svg>
