<svg width="1366" height="1601" viewBox="0 0 1366 1601" fill="none" xmlns="http://www.w3.org/2000/svg">
<g clip-path="url(#clip0_387_3390)">
<path d="M1350.47 155.2C1263 228.88 1198 329.57 1099.29 387.3C1060.52 410 1012.21 425.22 971.13 407C942.02 394.12 922.13 366.93 896.62 347.88C838.02 304.13 747.45 311.01 696.14 363.12C672.5 387.12 656.95 420.12 658.07 453.8C659.19 487.48 678.63 521.05 709.3 535C734.88 546.64 764.3 544.11 792.38 543.85C827.87 543.53 864.18 547.45 896.19 562.78C928.2 578.11 955.46 606.28 962.84 640.99C975.55 700.76 929.65 754.79 897.46 806.73C852.89 878.62 831.19 968.67 856.84 1049.28C892.75 1162.17 1011.73 1230.08 1128.55 1249.78C1218.78 1265 1313.39 1257.65 1398.47 1223.93C1483.55 1190.21 1558.53 1129.58 1605.11 1050.8C1620.29 1025.12 1632.59 997.21 1636.49 967.63C1653.34 840.16 1515.85 736.37 1515.36 607.79C1514.92 494.62 1621.53 396.23 1603.53 284.5C1593.9 224.78 1550.32 178.84 1503.72 143.84C1483.05 128.33 1463.31 110.69 1436.37 113.92C1403.4 117.88 1375.49 134.12 1350.47 155.2Z" fill="#FDF1E5"/>
<path d="M672.44 623.19C641.88 617.01 610.1 618.46 579.71 611.52C496.31 592.52 436.39 514.21 353.21 494.24C289.34 478.91 221.21 501.24 167.14 538.51C136.07 559.95 108.07 586.72 89.3602 619.51C70.6502 652.3 61.7802 691.51 69.2002 728.51C79.2002 778.43 116.91 818.51 158.52 847.83C235.31 901.99 335.67 928.65 425.44 900.89C505.08 876.26 572.94 811.35 656.29 810.03C681.74 809.62 707.83 815.3 732.29 808.31C768.98 797.83 815.41 741.13 792.09 703.83C766.28 662.53 719.7 632.76 672.44 623.19Z" fill="#F3F6EA"/>
<path d="M737.56 989.29C718.31 954.05 682.1 928.61 642.44 922.43C589.53 914.19 536.9 938.75 492.91 969.27C463.91 989.39 436.44 1012.95 418.33 1043.27C400.22 1073.59 392.51 1111.5 404.33 1144.75C417.62 1182.19 456.33 1209.01 496.06 1208.31C537.82 1207.58 575.13 1179.93 616.79 1176.95C641.2 1175.2 666.62 1181.95 689.79 1173.95C755.65 1151.24 766.25 1041.79 737.56 989.29Z" fill="#FDF1E5"/>
<path d="M1276.6 336.77C1227.36 342.37 1177.73 334.71 1128.43 329.7C1034.24 320.13 937.57 320.42 846.76 347.2C806.95 358.94 767.18 376.74 740.42 408.47C713.66 440.2 703.34 488.58 725 524C737.54 544.51 758.75 558.18 780.5 568.42C818.5 586.28 860.09 595.8 897.33 615.17C934.57 634.54 968.73 667.53 973.06 709.28C977.76 754.53 947.22 794.85 920.52 831.68C884.29 881.68 851.75 935.78 837.68 995.87C823.61 1055.96 830.07 1123.15 866.39 1173.05C897.05 1215.14 945.39 1240.96 994.81 1257.51C1079.54 1285.92 1172.81 1290.66 1258.81 1266.32C1344.81 1241.98 1422.87 1187.88 1471.97 1113.22C1535.56 1016.51 1547.71 893.9 1605.84 793.83C1609.41 787.68 1613.2 781.52 1614.9 774.62C1616.46 768.33 1616.2 761.74 1615.9 755.26C1614.36 718.593 1612.82 681.907 1611.27 645.2C1608.03 568.15 1604.78 490.94 1593.93 414.59C1586.52 362.42 1572.81 305.01 1535.52 265.59C1527.41 257.01 1515.27 244.42 1503.6 240.99C1488.6 236.58 1479.28 247.28 1467.23 255.56C1440.37 274.02 1412.46 291.12 1382.96 305.04C1349.33 320.87 1313.6 332.57 1276.6 336.77Z" stroke="#FCD7B7" stroke-width="2" stroke-miterlimit="10"/>
<path d="M604.63 582C576.18 538.77 541 497.7 494 476C454 457.51 408.33 454.56 364.37 458.19C303.57 463.19 242.99 480.71 192.43 514.85C141.87 548.99 101.97 600.64 88.09 660.05C82.86 682.46 81.4 706.38 88.8 728.17C99.73 760.36 128.88 783.77 160.67 795.83C186.113 805.45 213.48 808.878 240.51 805.83C284.09 800.83 324.68 779.29 368.41 776.03C419.54 772.23 469.41 794.03 512.02 822.53C537.78 839.81 562.73 860.16 592.89 867.4C610.45 871.62 628.89 871.08 646.64 867.57C672.56 862.43 697.64 850.57 715.55 831.12C733.46 811.67 743.38 784.21 738.65 758.22C735.45 740.7 724.89 723.83 709.98 713.93C698.12 706.04 685.33 705.66 675.28 695.01C646 664 628.08 617.63 604.63 582Z" stroke="#DCEBCE" stroke-width="2" stroke-miterlimit="10"/>
<path d="M409.58 1100.59C409.16 1116.45 410.4 1132.65 416.35 1147.35C422.3 1162.05 433.49 1175.2 448.35 1180.69C475.94 1190.87 507.12 1173.08 535.7 1179.98C563.44 1186.68 580.7 1214.26 605.8 1227.88C627.93 1239.88 655.16 1240.13 679.21 1232.63C703.26 1225.13 724.52 1210.57 743.67 1194.2C768.94 1172.58 792.17 1145.58 797.73 1112.79C799.87 1100.21 799.28 1087.29 797.42 1074.66C789.21 1019.05 755.67 968.43 709.79 935.95C668.55 906.76 590.19 874.81 539.92 894.8C490.92 914.26 450.4 966.1 429.75 1012.74C417.378 1040.43 410.526 1070.27 409.58 1100.59Z" stroke="#FCD7B7" stroke-width="2" stroke-miterlimit="10"/>
</g>
<defs>
<clipPath id="clip0_387_3390">
<rect width="1637.92" height="1601" fill="white"/>
</clipPath>
</defs>
</svg>
