<svg width="1366" height="2080" viewBox="0 0 1366 2080" fill="none" xmlns="http://www.w3.org/2000/svg">
<g clip-path="url(#clip0_387_3266)">
<path d="M1310.51 219.77C1274.98 215.92 1241.64 200.5 1206.36 194.83C1136.26 183.55 1063.36 212.93 1012.29 262.24C999.23 274.85 987.02 289.36 982.23 306.88C974.76 334.18 987.34 364.13 1008.06 383.42C1028.78 402.71 1056.38 412.88 1083.95 419.33C1111.52 425.78 1139.82 428.99 1167.03 436.79C1188.39 442.91 1210.22 452.89 1222.03 471.73C1228.36 481.86 1231.23 493.73 1234.4 505.2C1240.01 525.589 1246.84 545.624 1254.84 565.2C1260.29 578.54 1266.54 592.03 1277.02 601.93C1288.69 613 1304.69 618.48 1320.52 621.18C1361.93 628.25 1405.26 617.8 1441.52 596.62C1477.78 575.44 1507.43 544.1 1530.81 509.19C1545.15 487.77 1557.37 464.77 1565.17 440.19C1587.42 370.1 1571.08 290.73 1529.41 230.19C1515.09 209.3 1497.32 190 1474.52 179C1459.58 171.79 1442.09 168.54 1425.62 171.3C1406.75 174.45 1403.04 181.96 1391.62 194.67C1371.85 216.47 1338.63 222.82 1310.51 219.77Z" fill="#FDF1E5"/>
<path d="M988.87 512.38C978.33 521.11 967.87 532.93 969.29 546.55C970.9 562.14 987.04 571.75 1001.97 576.55C1028.14 584.89 1058.08 587.16 1077.81 606.26C1086.88 615.04 1093.28 627.01 1104.52 632.75C1116.1 638.66 1130.04 636.49 1142.69 633.46C1151.43 631.37 1160.29 628.83 1167.6 623.6C1180.8 614.15 1186.91 596.87 1185.79 580.67C1184.67 564.47 1177.23 549.29 1167.79 536.08C1123.26 473.85 1047.98 463.41 988.87 512.38Z" fill="#FDF1E5"/>
<path d="M4.92987 812.56C31.5399 845.56 75.3399 859.26 117.33 864.86C203.84 876.4 297.94 862.04 373.5 905.73C432.5 939.84 468.72 1004.73 482.58 1071.52C492.5 1119.25 490.64 1173.82 458.41 1210.4C431.21 1241.28 388.78 1252.61 349.5 1264.88C310.22 1277.15 268.3 1294.68 249.35 1331.21C237.54 1354 236.69 1380.58 233.55 1406C223.75 1485.62 181.87 1568.57 106.55 1596C47.8099 1617.39 -20.0501 1599.92 -70.4501 1562.9C-120.85 1525.88 -155.98 1471.72 -183.58 1415.64C-283.31 1213 -293.51 964.54 -195.25 761.12C-170.65 710.18 -119.92 645.85 -54.8601 676.8C-8.31012 698.94 -25.4901 774.9 4.92987 812.56Z" fill="#FDF1E5"/>
<path d="M1315.17 1147.14C1202.41 1133.14 1083.93 1178.97 1009.95 1265.21C989.13 1289.48 970.87 1320.74 978.09 1351.89C985.43 1383.61 1016.68 1403.82 1047.31 1414.89C1077.94 1425.96 1111.22 1431.67 1137.96 1450.25C1154.63 1461.83 1167.79 1477.8 1183.83 1490.25C1220.33 1518.57 1270.58 1526.45 1315.38 1515.18C1360.18 1503.91 1399.38 1474.82 1427.31 1438C1456.65 1399.29 1474.31 1351.07 1472.86 1302.53C1470.05 1208.07 1403.46 1158.1 1315.17 1147.14Z" fill="#F3F6EA"/>
<path d="M301.2 1538.14C309.55 1545.21 320.12 1549.24 330.86 1551.31C373.05 1559.48 415.93 1538.77 448.86 1511.14C469.46 1493.84 487.93 1473.14 498.36 1448.36C508.79 1423.58 510.36 1394.19 498.36 1370.12C485.09 1343.58 456.51 1326.59 427.05 1323.01C379.57 1317.23 312.05 1344.07 292.87 1391.24C277.15 1429.83 265.46 1507.86 301.2 1538.14Z" fill="#FDF1E5"/>
<path d="M1484.53 145.57C1399.88 154.46 1314.25 152.66 1229.93 164.37C1145.61 176.08 1060.32 202.93 997.58 260.45C979.88 276.68 963.14 298.59 966.83 322.32C971.83 354.41 1009.76 369.03 1042.08 372.21C1110.35 378.92 1183.29 363.35 1245.19 392.91C1253.63 396.91 1261.92 401.91 1267.49 409.47C1282.11 429.18 1272.84 457.82 1257.86 477.26C1242.88 496.7 1222.6 512.59 1212.86 535.09C1195.05 576.04 1220.44 626.25 1259.43 648.01C1298.42 669.77 1346.31 668.62 1390 659.41C1443.45 648.14 1494.92 625.41 1536.79 590.3C1578.66 555.19 1610.54 507.47 1623.18 454.3C1633.3 411.7 1631.01 366.91 1622.63 323.93C1615.46 287.395 1603.99 251.838 1588.46 218C1575.46 189.57 1555.36 140.71 1528.58 124C1518.07 138.24 1501.69 143.77 1484.53 145.57Z" stroke="#FCD7B7" stroke-width="2" stroke-miterlimit="10"/>
<path d="M1061.59 457.73C1040.59 462.49 1019.08 469.41 1003.79 484.58C996.89 491.43 991.36 500.23 990.7 509.93C989.93 521.35 996.21 532.51 1005.24 539.55C1014.27 546.59 1025.7 549.93 1037.08 551.16C1081.63 556.01 1123.49 531.16 1160.79 506.29C1183.16 491.38 1203.08 454.61 1164.91 446.02C1135.61 439.42 1090.29 451.21 1061.59 457.73Z" stroke="#FCD7B7" stroke-width="2" stroke-miterlimit="10"/>
<path d="M-137.59 870.94C-197.03 902.45 -241.19 958.41 -267.22 1020.44C-293.25 1082.47 -302.37 1150.44 -303.8 1217.71C-305.47 1296.04 -296.93 1374.91 -274.24 1449.9C-256.24 1509.36 -226.87 1569.12 -174.67 1602.8C-132.31 1630.13 -78.3099 1637 -29.2199 1625.41C19.8701 1613.82 63.9301 1584.87 97.6301 1547.41C132.11 1509 159.07 1459.82 206.69 1440C231.87 1429.54 259.81 1428.82 286.85 1425.31C328.77 1419.87 371.28 1406.48 402 1377.45C432.72 1348.42 448.72 1301.15 432.24 1262.22C415.37 1222.37 371.24 1201.41 346.48 1165.91C317.05 1123.71 319.02 1067.69 325.29 1016.62C331.56 965.55 340.69 912.09 322.44 864C296.39 795.5 219.04 757.1 145.76 756.41C72.4801 755.72 2.55007 785.52 -62.8199 818.63C-74.2399 824.41 -86.0599 830.44 -98.8199 831.01C-111.58 831.58 -125.69 825.01 -129.51 812.81C-130.28 810.34 -136.43 809.03 -138.76 810.17C-141.09 811.31 -142.59 813.63 -143.62 816.01C-146.69 823.09 -146.47 831.24 -144.62 838.73C-142.77 846.22 -139.33 853.22 -136.08 860.22C-135.22 862.09 -134.34 864.07 -134.52 866.13C-134.7 868.19 -135.53 871 -137.59 870.94Z" stroke="#FCD7B7" stroke-width="2" stroke-miterlimit="10"/>
<path d="M314.45 1473.42C291.67 1472.56 267.83 1468.67 246.83 1477.52C237.113 1481.61 228.665 1488.23 222.357 1496.68C216.049 1505.13 212.111 1515.11 210.948 1525.59C209.785 1536.07 211.44 1546.67 215.742 1556.29C220.044 1565.92 226.837 1574.23 235.42 1580.35C257.42 1596.03 287.07 1594.96 313.55 1589.72C342.81 1583.92 372.35 1573.13 392.85 1551.46C413.35 1529.79 422.31 1495.21 407.68 1469.22C394.42 1445.65 383.83 1451.53 367.24 1460.89C350.25 1470.48 334.17 1474.18 314.45 1473.42Z" stroke="#FCD7B7" stroke-width="2" stroke-miterlimit="10"/>
<path d="M428.32 1444.47C432.97 1453.47 445.06 1457.47 454.56 1453.83C464.06 1450.19 470.3 1440.01 470.3 1429.83C470.3 1419.65 464.56 1409.93 456.3 1404.03C452.553 1401.19 448.083 1399.46 443.4 1399.03C432.81 1398.42 423.28 1407.43 420.9 1417.77C418.52 1428.11 422.11 1439.08 428.04 1447.88" stroke="#FCD7B7" stroke-width="2" stroke-miterlimit="10"/>
<path d="M1228.04 1124.33C1151.96 1139.33 1078.6 1173.74 1024.04 1228.86C1012.74 1240.29 1001.55 1254.86 1004.04 1270.74C1005.27 1278.58 1009.8 1285.56 1015.15 1291.43C1046.66 1326.05 1103.33 1326.16 1137.01 1358.68C1142.52 1363.99 1147.37 1370.24 1149.71 1377.53C1152.05 1384.82 1151.71 1392.7 1151.5 1400.38C1150.77 1422.46 1150.65 1444.87 1156.1 1466.29C1168.57 1515.29 1210.58 1554.12 1259.1 1568.47C1307.62 1582.82 1361.2 1574.4 1406.23 1551.34C1427.04 1540.67 1446.5 1526.81 1461.4 1508.79C1480.62 1485.54 1491.4 1456.54 1499.91 1427.59C1512.1 1386.11 1520.34 1342.44 1513.91 1299.69C1510.57 1277.61 1515.83 1217.95 1508.29 1196.94C1494.73 1159.18 1468.47 1128.56 1422.65 1120.44C1359.78 1109.31 1290.45 1112 1228.04 1124.33Z" stroke="#DCEBCE" stroke-width="2" stroke-miterlimit="10"/>
</g>
<defs>
<clipPath id="clip0_387_3266">
<rect width="1935.85" height="2080" fill="white" transform="translate(-305)"/>
</clipPath>
</defs>
</svg>
