<svg width="768" height="10764" viewBox="0 0 768 10764" fill="none" xmlns="http://www.w3.org/2000/svg">
<g clip-path="url(#clip0_415_9329)">
<path d="M801.63 132.54C707.837 127.973 614.869 151.997 535.03 201.43C503.94 220.78 472.47 248.93 471.84 285.55C471.33 314.64 490.58 339.9 508.84 362.55L552.12 416C566.99 434.39 582.79 456.49 577.44 479.53C574.44 492.35 565.25 502.87 561.14 515.38C556.38 529.89 558.91 545.92 564.28 560.23C579.1 599.75 614.51 629.03 653.75 644.58C705.75 665.21 765.04 664.02 818.35 647C871.66 629.98 919.35 597.89 959.75 559.18C984.75 535.18 1007.75 507.77 1019.25 475.04C1040.7 413.78 1017.11 343.64 974.37 294.8C951.07 268.17 921.9 245.59 906.57 213.7C882.91 164.52 859.89 135.5 801.63 132.54Z" fill="#FDF1E5"/>
<path d="M-85.78 718.1C-41.78 763.18 21.97 788.25 84.89 785.23C157.5 781.74 224.09 743.38 296.03 732.89C374.78 721.4 461.54 748.13 509.5 811.65C557.46 875.17 555.38 975.65 495.73 1028.37C448.42 1070.16 380.38 1075.09 318.39 1087.01C259.244 1098.39 201.926 1117.78 148.02 1144.65C94.21 1171.49 44.02 1205.65 -11.78 1228.13C-67.58 1250.61 -131.99 1260.36 -187.31 1236.78C-227.76 1219.53 -259.36 1186.15 -283.97 1149.72C-345.34 1058.87 -368.84 946.62 -368.97 836.98C-369.12 729.81 -343.97 614.98 -264.97 542.61C-246.44 525.61 -224.09 510.95 -199.03 508.97C-181.52 507.58 -151.76 515.39 -145.55 534.62C-140.65 549.8 -149.67 572.41 -147.55 589.25C-141.37 637.29 -119.66 683.39 -85.78 718.1Z" fill="#F3F6EA"/>
<path d="M737.13 1212C676.23 1230.69 616.97 1261 576.2 1310C535.43 1359 516.2 1428.83 538.68 1488.42C548.82 1515.26 566.88 1539.55 570.56 1568.01C574.56 1598.77 561.09 1628.68 552.7 1658.54C545.05 1685.77 541.52 1714.71 547.24 1742.42C558.24 1795.53 603.1 1837.62 654.55 1854.75C706 1871.88 762.76 1866.75 814.55 1850.75C928.94 1815.36 1023.08 1728.39 1082.81 1624.61C1121.74 1556.97 1147.69 1479.69 1143.01 1401.78C1139.01 1335.51 1109.57 1263.36 1056.15 1221.44C1037.94 1207.14 1015.71 1203.73 993.57 1199.16C954.046 1190.83 913.658 1187.33 873.29 1188.72C827.086 1190.54 781.315 1198.36 737.13 1212Z" fill="#FDF1E5"/>
<path d="M-72.6003 1847.47C-40.1703 1828.37 -1.08032 1816.63 35.2897 1826.32C65.6697 1834.41 90.3397 1856.26 112.04 1879.01C129.042 1896.85 144.986 1915.66 159.79 1935.36C174.79 1955.3 188.68 1976.25 206.47 1993.72C224.26 2011.19 246.75 2025.24 271.59 2027.47C293.59 2029.47 315.26 2022.12 337.22 2019.63C359.18 2017.14 384.57 2021.2 397.02 2039.44C405.94 2052.44 405.73 2070.79 397.55 2084.31C389.37 2097.83 374.01 2106.38 358.24 2107.48C342.84 2108.56 327.79 2103.16 312.43 2101.54C284.66 2098.61 256.93 2108.2 232.36 2121.48C207.79 2134.76 185.42 2151.78 161.1 2165.48C91.0997 2205.01 5.34967 2215.55 -72.1103 2194.13C-96.6503 2187.34 -120.7 2177.27 -140.34 2161.07C-178.93 2129.24 -195.44 2077.18 -195.25 2028.44C-195.09 1985.44 -163.57 1933.61 -136.48 1901.55C-118.376 1880.06 -96.7802 1861.78 -72.6003 1847.47Z" fill="#F3F6EA"/>
<path d="M897.44 1971.7C854.87 1975.2 814.3 1991.44 776.55 2011.42C699.82 2052.01 627.55 2115.72 610.74 2200.88C601.34 2248.48 610.26 2297.67 621.4 2344.88C627.73 2371.73 634.76 2400.07 626.62 2426.42C611.79 2474.42 554.3 2495.49 528.44 2538.57C511.31 2567.12 510.29 2604.65 525.84 2634.08C541.39 2663.51 572.98 2683.8 606.22 2685.72C661.22 2688.9 707.32 2646.58 745.04 2606.35C782.76 2566.12 825.61 2521.93 880.71 2519.63C941.17 2517.11 990.71 2565.99 1048.5 2583.84C1127.35 2608.17 1221.11 2564.74 1253.5 2488.84C1274.16 2440.49 1271.16 2385.15 1259.88 2333.84C1250.38 2290.58 1234.88 2247.84 1208.01 2212.66C1176.88 2171.89 1132.53 2143.66 1094.69 2109.01C1061.5 2078.62 1039.93 2043.62 1013.94 2007.86C990.13 1975.06 934.88 1968.62 897.44 1971.7Z" fill="#FDF1E5"/>
<path d="M-182.86 2709C-170.86 2666 -135.5 2633.95 -99.7403 2607.26C-61.9303 2579.05 -20.5803 2553.44 25.7297 2544.48C72.0397 2535.52 124.4 2545.98 156.16 2580.86C185.22 2612.77 194.86 2661.44 230.79 2685.35C249.39 2697.74 272.22 2701.35 293.79 2707.16C322.57 2714.89 352.29 2728.8 366.07 2755.21C381.6 2784.97 371.65 2823.21 349.5 2848.48C327.35 2873.75 295.36 2888 263.33 2898C193.72 2919.84 118.43 2924.79 47.2496 2908.81C-23.9304 2892.83 -90.7003 2855.59 -139.11 2801C-154.82 2783.29 -168.83 2763.32 -175.01 2740.46C-181.19 2717.6 -178.48 2691.4 -163.53 2673.05" fill="#FDF1E5"/>
<path d="M-177.37 3643.93C-151.29 3573.59 -111.43 3507.14 -54.5903 3458.19C2.24974 3409.24 77.1697 3379.06 151.99 3384.52C194.38 3387.62 235.38 3401.74 277.77 3404.85C365.45 3411.29 448.77 3370.7 529.3 3335.5C609.83 3300.3 699.98 3269.17 784.1 3294.71C840.23 3311.71 886.98 3353.06 918.47 3402.54C949.96 3452.02 967.29 3509.34 977.6 3567.08C1012.6 3763.22 966.95 3972.52 853.45 4136.27C813.52 4193.87 760.67 4248.86 691.92 4262.48C616.63 4277.4 542.09 4239.74 466.63 4226C404.173 4214.68 339.848 4219.74 279.93 4240.69C181.63 4275.16 92.3197 4352.55 -11.4303 4342.92C-82.9003 4336.3 -145.49 4286.77 -182.04 4224.98C-218.59 4163.19 -232.2 4090.43 -236.93 4018.8C-248.98 3836.19 -202.68 3644.07 -81.0403 3507.33C-123.47 3543 -153.87 3593.76 -177.37 3643.93Z" fill="#F3F6EA"/>
<path d="M472.97 3015.18C452.59 3033.67 435.1 3064.65 450.87 3087.18C459.61 3099.69 476.15 3104.6 491.4 3103.93C506.65 3103.26 521.23 3097.98 535.96 3094.01C565.54 3086.01 599.34 3083.9 624.75 3101.01C642.75 3113.09 653.94 3133.13 671.36 3145.95C697.46 3165.16 733.62 3165.1 764.54 3155.38C820.08 3137.91 866.13 3088.64 873.24 3030.85C883.24 2949.43 769.53 2924.85 708.5 2931.85C625.93 2941.25 536.63 2957.39 472.97 3015.18Z" fill="#F3F6EA"/>
<path d="M828.29 4867.78C809.07 4854.11 785.41 4847.97 761.95 4845.45C706.95 4839.53 650.89 4852.33 601.17 4876.58C557.07 4898.07 516.67 4929.35 491 4971.15C481.33 4986.9 473.66 5005.2 476.54 5023.45C479.95 5045 497.23 5061.67 515.41 5073.72C533.59 5085.77 553.9 5095.16 569.27 5110.63C582.47 5123.92 591.27 5140.9 602.62 5155.77C642.22 5207.37 715.9 5229.23 777.74 5209.06C839.58 5188.89 885.87 5128.87 891.25 5064.06C894.74 5022.11 879.74 4985.95 870.03 4946.19C862.63 4916 855.47 4887.1 828.29 4867.78Z" fill="#F3F6EA"/>
<path d="M-76.4801 5109.94C-59.3201 5073.2 -9.2201 5061.59 28.7399 5075.84C66.6999 5090.09 94.2199 5123.26 116.21 5157.33C138.2 5191.4 156.94 5228.23 185.72 5256.8C208.32 5279.23 236.47 5295.87 257 5320.21C273 5339.21 284.08 5364.68 278.22 5388.83C271.07 5418.24 241.61 5436.63 212.81 5445.91C134.88 5471.01 43.8099 5449.16 -14.3201 5391.44C-45.9101 5360.04 -67.5001 5319.88 -83.7701 5278.44C-96.7101 5245.44 -106.67 5210.38 -103.87 5175.08C-101.07 5139.78 -83.5401 5104.08 -52.5301 5087.02" fill="#F3F6EA"/>
<path d="M41.2297 5824.86C28.8397 5849.44 33.6897 5884.35 57.7397 5897.76C77.8497 5908.96 103.29 5902 123.49 5890.95C143.69 5879.9 162.21 5864.84 184.49 5859.19C204.49 5854.12 225.56 5857.19 246.06 5859.67C260.77 5861.48 279.22 5861.16 285.99 5847.97C289.5 5841.14 288.45 5832.92 286.81 5825.41C283.13 5808.63 276.06 5791.35 261.71 5781.89C241.71 5768.74 215.97 5773.77 193.53 5771.84C177.33 5770.45 162.92 5761.9 146.93 5760.99C109.36 5758.86 57.8597 5791.89 41.2297 5824.86Z" fill="#FDF1E5"/>
<path d="M472.14 5605.71C453.3 5639.31 447.05 5679.17 451.08 5717.48C453.83 5743.57 461.86 5770.3 480.36 5788.9C498.86 5807.5 529.72 5815.45 552.2 5801.9C581.54 5784.24 588.75 5737.72 621.95 5729.31C631.65 5726.85 641.88 5728.36 651.85 5727.45C681.73 5724.72 706.59 5698.8 712.57 5669.39C718.55 5639.98 707.7 5608.76 688.33 5585.83C626.29 5512.39 519.45 5521.34 472.14 5605.71Z" fill="#FDF1E5"/>
<path d="M809.02 5962C780.34 5999 734.28 6026.25 687.92 6019.45C648.8 6013.72 617.08 5985.79 588.37 5958.59C573.97 5944.94 555.92 5930.06 536.66 5934.81C515.37 5940.06 506.88 5966.37 508.42 5988.24C508.98 5996.09 510.67 6004.51 516.52 6009.76C520.52 6013.35 525.87 6014.92 531.03 6016.41C557.47 6024.07 585.1 6033.41 603.08 6054.25C621.91 6076.09 626.59 6106.25 634.18 6134.09C640.87 6158.66 650.55 6182.79 666.02 6203.02C681.49 6223.25 703.22 6239.39 728.12 6244.73C760.92 6251.73 795.47 6239.34 822.28 6219.18C851.63 6197.11 873.46 6166.32 890.17 6133.62C916.508 6081.98 931.035 6025.13 932.7 5967.18C933.4 5942.02 931.42 5916.32 923.86 5892.18C918.92 5876.42 904 5835.69 883.46 5834.69C863.13 5833.69 854.59 5871.92 849.23 5885.94C838.96 5912.87 826.74 5939.15 809.02 5962Z" fill="#FDF1E5"/>
<path d="M-292.64 6553.08C-293.71 6568.75 -297.2 6586.39 -295.19 6601.97C-277.95 6543.84 -232.83 6498.6 -186.81 6459.12C-136.44 6415.91 -81.7405 6375.69 -18.7505 6354.75C44.2395 6333.81 117.06 6334.38 173.47 6369.35C225.859 6401.82 257.39 6458.35 298.34 6504.48C308.34 6515.73 319.18 6526.57 332.39 6533.77C360.68 6549.18 395.59 6545.7 426.39 6536.37C457.19 6527.04 486.39 6512.37 518.02 6506C549.65 6499.63 585.77 6503.35 608.52 6526.15C634.21 6551.91 635.039 6593.15 629.849 6629.15C621.74 6685.4 601.03 6742.95 557.07 6778.98C499.13 6826.47 417.22 6825.57 343.83 6840.6C246.07 6860.6 157.89 6911.6 64.8295 6947.47C32.1095 6960 -2.13046 6970.93 -37.1705 6970C-80.4805 6968.89 -121.92 6949.53 -155.48 6922.12C-189.04 6894.71 -215.48 6859.58 -239 6823.23C-263.8 6784.97 -286.06 6744.39 -297.57 6700.23C-309.08 6656.07 -309.14 6607.88 -290.66 6566.23" fill="#F3F6EA"/>
<path d="M571.4 6917.43C560.87 6909.08 549.89 6900.9 537.23 6896.43C515.45 6888.65 490.23 6892.95 470.97 6905.76C451.71 6918.57 438.32 6939.25 432.3 6961.58C425.96 6985.14 427.73 7011.35 439.93 7032.48C452.13 7053.61 475.38 7068.7 499.77 7068.38C524.37 7068.06 549.21 7053.09 572.36 7061.43C591.36 7068.3 602.27 7088.87 620.27 7098.17C645.37 7111.17 680.67 7094.17 686.27 7066.52C698.19 7007.77 610.07 6948.09 571.4 6917.43Z" fill="#F3F6EA"/>
<path d="M-8.95961 7140.64C22.0404 7121.59 62.0404 7113.35 95.1004 7128.55C128.16 7143.75 147.1 7177.86 168.66 7207.12C207.98 7260.54 264.19 7303.85 329.25 7316.73C388.34 7328.43 449.3 7314.59 507.25 7298.24C524.47 7293.38 541.99 7288.24 559.87 7288.91C599.52 7290.38 634.12 7321.8 646.74 7359.41C659.36 7397.02 652.74 7439.03 636.48 7475.22C620.86 7509.99 593.48 7542.71 556.27 7550.76C498.09 7563.35 443.68 7512.76 384.15 7512.17C345.63 7511.77 310.36 7532.24 277.34 7552.08L200.25 7598.37C169.65 7616.75 138.78 7635.25 105.05 7646.91C71.3204 7658.57 34.1004 7663 -0.0696106 7652.74C-49.4896 7637.9 -85.4896 7594.81 -109.31 7549.05C-137.08 7495.7 -152.38 7435.43 -149.81 7375.35C-145.72 7279.7 -90.4796 7190.8 -8.95961 7140.64Z" fill="#FDF1E5"/>
<path d="M579.96 7760.05C574.69 7772.38 570.49 7785.49 570.76 7798.89C571.03 7812.29 576.32 7826.11 587.04 7834.16C594.35 7839.64 603.52 7842.06 612.6 7843.16C655.02 7848.22 699.36 7823.58 717.46 7784.87C723.97 7770.97 727.13 7754.14 720.07 7740.5C714.84 7730.4 705.49 7723.44 702.07 7712.28C698.7 7701.28 704.72 7688.87 701.5 7678.47C696.31 7661.69 683.84 7659.16 667.33 7663.27C627.42 7673.2 594.94 7725 579.96 7760.05Z" fill="#FDF1E5"/>
<path d="M910.88 7910.42C908.77 8009.89 868.94 8108.11 801.17 8180.95C771.32 8213.03 732.08 8241.73 688.31 8239.8C646.79 8237.97 611.68 8209.16 583.1 8178.99C554.52 8148.82 527.73 8114.89 490.16 8097.13C448.95 8077.64 399.29 8080.88 357.59 8099.28C315.89 8117.68 281.51 8149.95 254.07 8186.36C244.71 8198.79 235.89 8212.14 232.44 8227.31C228.99 8242.48 231.85 8259.91 243.16 8270.6C253.61 8280.47 268.85 8282.88 283.1 8284.84C343.23 8293.12 406.83 8303.16 453.16 8342.37C470.83 8357.31 485.4 8376.37 492.71 8398.37C505.71 8437.37 494.66 8480.11 479.27 8518.18C463.88 8556.25 443.95 8593.29 438.45 8633.98C435.45 8656.33 437.21 8680.18 448.76 8699.55C466.94 8730.03 504.6 8742.67 539.76 8747.37C580.828 8752.82 622.547 8750.73 662.86 8741.18C721.7 8727.18 775.86 8697.72 825.36 8662.99C940.71 8582.05 1035.85 8468.08 1078.5 8333.78C1121.15 8199.48 1106.85 8044.62 1026.18 7929.08C1017.18 7916.2 1006.82 7903.35 992.39 7897.14C974.18 7889.31 952.5 7893.75 935.6 7904.14C918.7 7914.53 905.72 7930.07 893.6 7945.75" fill="#F3F6EA"/>
<path d="M-235.24 8705.43C-227.24 8657.36 -193.13 8617.49 -154.63 8587.63C-108.065 8551.59 -53.9678 8526.53 3.63033 8514.31C52.6303 8503.96 107.77 8504.41 148.08 8534.16C192.32 8566.8 207.23 8624.9 223.72 8677.34C244.964 8744.86 273.415 8809.91 308.58 8871.34C319.99 8891.28 332.22 8911.06 339.11 8932.98C346 8954.9 347.04 8979.71 336.41 9000.08C327.51 9017.08 311.41 9029.32 294.49 9038.35C251.43 9061.27 195.92 9065.73 155 9039.17C132.12 9024.32 115.26 9001.1 91.2103 8988.17C64.3503 8973.79 32.4103 8974.22 2.11034 8971.01C-70.6697 8963.3 -142.23 8930.83 -189.23 8874.73C-236.23 8818.63 -255.5 8737.95 -230.57 8669.14" fill="#FDF1E5"/>
<path d="M579.28 8931.51C608.64 8916.34 646.73 8926.68 670.04 8950.11C678.14 8958.26 684.94 8968.11 687.55 8979.28C690.16 8990.45 688.06 9003.13 680.3 9011.61C672.54 9020.09 660.04 9023.37 648.3 9023.54C636.56 9023.71 625.01 9021.36 613.3 9020.98C593.3 9020.34 512.39 9047.27 513.3 9016.98C513.75 9002.45 530.75 8984.36 538.59 8973.1C549.82 8957.07 561.53 8940.68 579.28 8931.51Z" fill="#FDF1E5"/>
<path d="M766.89 9242.21C660.64 9215.08 543.99 9242.35 454.5 9305.73C402.28 9342.73 358.29 9391.3 302.36 9422.37C275.17 9437.48 245.73 9448.1 216.12 9457.61C198.03 9463.42 178.7 9469.61 166.73 9484.32C152.55 9501.8 152.53 9526.76 156.34 9548.95C160.68 9574.15 170.65 9600.68 192.61 9613.78C216.98 9628.31 247.69 9621.94 276 9619.94C337.33 9615.61 400.3 9635.33 447.3 9674.94C489.79 9710.77 518.56 9761.15 562.84 9794.75C620.71 9838.67 700.53 9848.25 770.34 9828.12C840.15 9807.99 900.1 9760.64 944.21 9702.92C990.93 9641.78 1030.92 9547.7 1003.44 9470.22C992.88 9440.44 974.5 9407.14 957.65 9380.37C937.361 9348.42 911.477 9320.39 881.24 9297.62C847.178 9271.75 808.306 9252.91 766.89 9242.21Z" fill="#F3F6EA"/>
<path d="M46.0605 9249.16C68.3505 9259.47 85.2005 9281.46 87.8805 9305.87C90.5605 9330.28 78.2205 9356.08 56.8105 9368.09C46.1905 9374.09 33.3705 9376.6 21.6105 9373.51C9.13046 9370.22 -0.929535 9361.11 -9.64954 9351.6C-19.5895 9340.76 -28.6495 9328.76 -33.7495 9314.97C-39.8695 9298.5 -43.7495 9265.14 -28.8395 9252.8C-10.0795 9237.29 25.5605 9239.68 46.0605 9249.16Z" fill="#F3F6EA"/>
<path d="M-71.4397 10166.5C-81.7297 10112 -60.4397 10053.4 -19.5697 10015.9C-3.56966 10001.2 16.2003 9989.24 37.8603 9988.43C75.1103 9987.02 105.21 10017.7 140.62 10029.4C159.88 10035.8 180.51 10036.4 200.38 10040.4C233.995 10047.4 264.84 10064 289.1 10088.3C315.91 10115.3 333.8 10152.6 331.27 10190.6C328.74 10228.5 303.01 10265.6 266.27 10275.5C221.5 10287.6 174.94 10259.5 128.76 10263.8C82.5804 10268.1 44.1203 10293.3 -0.239662 10267.3C-36.7297 10245.9 -63.5697 10208.1 -71.4397 10166.5Z" fill="#FDF1E5"/>
<path d="M745.48 10358.5C687.75 10358 631.01 10391.9 604.14 10443C600.47 10450 597.28 10458.2 600.25 10465.6C604 10474.8 615.45 10477.8 625.37 10478.9C648.7 10481.4 672.286 10479.8 695.1 10474.4C704.43 10472.1 714.69 10469.3 723.22 10473.7C729.07 10476.7 732.82 10482.6 737.51 10487.2C752.13 10501.7 776.94 10503.2 794.51 10492.6C812.08 10482 822.22 10461 822.03 10440.5C821.63 10398.7 787.44 10359 745.48 10358.5Z" fill="#FDF1E5"/>
<path d="M649.11 185.45C599.75 202.31 551.78 224.93 511.26 257.78C489.16 275.69 468.99 297.24 458.69 323.78C455.81 331.2 453.69 339.18 454.77 347.07C456.94 363.45 471.77 375.07 486.66 382.35C537.14 407.03 596.51 401.65 651.66 412.23C671.46 416.03 691.78 422.47 705.78 436.98C710.18 441.53 713.97 447.1 714.57 453.4C715.57 463.79 707.84 472.9 699.84 479.6C682.73 493.96 662.22 503.68 644.28 516.98C626.34 530.28 610.28 548.9 608.41 571.16C605.65 604.35 634.83 631.56 664.57 646.56C727.31 678.2 802.51 679.95 870 660.39C937.49 640.83 997.86 601.39 1050.2 554.45C1075.32 531.94 1099.2 507.16 1114.66 477.21C1134.63 438.578 1139.37 393.856 1127.93 351.898C1116.49 309.94 1089.72 273.806 1052.91 250.65C1035.15 239.48 1015.4 231.56 998.36 219.32C986.36 210.67 975.36 199.46 970.36 185.27C967.36 176.71 968.98 166.11 962.63 158.95C945.23 139.35 887.39 147.03 864.13 147.52C790.933 149.036 718.407 161.83 649.11 185.45Z" stroke="#FCD7B7" stroke-width="2" stroke-miterlimit="10"/>
<path d="M-149.96 1146.49C-48.7201 1068.26 85.8899 1023.18 209.26 1057.11C260.1 1071.11 306.59 1097.54 356.34 1115C406.09 1132.46 463.01 1140.23 510.34 1116.9C571.47 1086.73 599.28 1011.51 594.43 943.51C586.43 831.1 497.92 729.22 387.75 705.51C356.51 698.8 323.46 697.94 293.01 707.61C259.63 718.21 231.53 740.61 202.43 760.05C172.539 780.057 140.932 797.372 107.98 811.79C89.1499 820.02 69.4299 827.4 48.8799 827.88C-26.0601 829.61 -74.9101 744.06 -147.81 726.58C-185.24 717.58 -225.62 728.24 -257.65 749.58C-289.68 770.92 -314.11 802.1 -333.21 835.51C-364.37 890 -382.54 951 -394.71 1012.55C-403.9 1059.05 -409.76 1107.65 -397.55 1153.45C-386.55 1194.75 -342.22 1263.67 -291.29 1255.61C-263.6 1251.23 -240.21 1223.92 -220.23 1206.3C-197.16 1186 -174.32 1165.31 -149.96 1146.49Z" stroke="#DCEBCE" stroke-width="2" stroke-miterlimit="10"/>
<path d="M532.28 1282.88C515.88 1294.45 500.1 1307.5 489.03 1324.24C477.96 1340.98 472.03 1361.93 476.71 1381.44C479.97 1395.02 488.02 1406.93 496.83 1417.76C517.39 1443.05 542.72 1464.08 564 1488.76C585.28 1513.44 602.89 1543.52 603.27 1576.12C603.57 1602.05 592.98 1626.93 590.97 1652.79C586.72 1707.41 623.97 1760.57 674.23 1782.37C724.49 1804.17 784.36 1797.23 832.74 1771.54C881.12 1745.85 918.85 1703.12 946.39 1655.76C966.46 1621.25 981.81 1583.28 985.31 1543.51C987.31 1521.18 985.49 1498.67 982.37 1476.51C971.08 1396.4 941.59 1303.31 892.55 1237.63C872.95 1211.39 821.41 1211.56 791.7 1209.89C748.788 1207.51 705.766 1211.75 664.14 1222.44C616.892 1234.44 572.214 1254.92 532.28 1282.88Z" stroke="#FCD7B7" stroke-width="2" stroke-miterlimit="10"/>
<path d="M-110.07 1928.45C-76.2799 1871.18 -11.6499 1833.45 54.8301 1832.11C77.2301 1831.67 101.91 1836.32 115.91 1853.81C138.71 1882.3 121.69 1928.81 143.71 1957.9C165.39 1986.55 214.71 1984.42 232.49 2015.62C243.06 2034.15 237.98 2057.62 229.77 2077.29C198.63 2151.92 125.63 2205.78 46.0001 2219.87C28.0001 2223.06 9.5001 2224.39 -8.6599 2222.14C-77.5999 2213.6 -132.51 2152.06 -146.66 2084.05C-162.19 2009.16 -132.33 1926.68 -72.4599 1879.05" stroke="#DCEBCE" stroke-width="2" stroke-miterlimit="10"/>
<path d="M397.94 2067.35C411.99 2062.91 425.66 2053.68 430.26 2039.69C434.52 2026.75 430.17 2012.39 422.99 2000.82C402.12 1967.22 355.79 1952.15 319.15 1967.03C313.22 1969.44 307.47 1972.59 303.06 1977.22C294.39 1986.33 292.06 2000.29 295.06 2012.51C306 2056.93 355.41 2080.82 397.94 2067.35Z" stroke="#DCEBCE" stroke-width="2" stroke-miterlimit="10"/>
<path d="M856.94 2006.4C794.2 2029.15 741.307 2072.98 707.3 2130.4C684.48 2169.25 671.22 2212.82 653.82 2254.4C636.42 2295.98 613.56 2337.12 577.15 2363.65C552.6 2381.55 523.15 2391.87 499.03 2410.4C464.49 2436.98 443.35 2481.86 449.86 2524.96C455.13 2559.85 477.64 2590.82 506.86 2610.61C536.08 2630.4 571.45 2639.75 606.67 2641.89C643.98 2644.15 682.8 2638.89 717.78 2652.12C739.68 2660.39 758.34 2675.33 779.07 2686.22C823.55 2709.6 877.96 2713.22 925.15 2696C975.86 2677.48 1015.52 2637.45 1049.97 2595.89C1079.49 2560.26 1106.97 2521.73 1120.97 2477.6C1134.53 2434.6 1134.47 2387.98 1124.72 2343.98C1111.2 2283.52 1080.26 2228.35 1035.72 2185.29C1006.57 2157.21 971.83 2134.54 947.42 2102.29C928.77 2077.61 923.82 2053.29 915.42 2024.89C907.38 1997.57 881.03 1997.76 856.94 2006.4Z" stroke="#FCD7B7" stroke-width="2" stroke-miterlimit="10"/>
<path d="M-46.8096 2555.59C-36.0496 2527.23 -4.96964 2509.41 25.3404 2509.95C55.6504 2510.49 84.2404 2527.27 103.56 2550.64C117.32 2567.28 126.86 2587 139.85 2604.25C152.84 2621.5 170.85 2636.87 192.33 2638.89C217.33 2641.23 241.56 2625.15 266.41 2628.63C276.71 2630.07 286.3 2634.83 294.89 2640.71C328.37 2663.64 347.81 2704.61 347.37 2745.19C346.93 2785.77 327.64 2825.19 297.89 2852.8C284.54 2865.18 269.03 2875.43 251.89 2881.61C234.75 2887.79 216.35 2889.8 198.13 2890.2C138.3 2891.51 77.6304 2875.3 28.5304 2841.1C-20.5696 2806.9 -57.3696 2754.3 -68.9696 2695.61C-80.5696 2636.92 -65.8896 2572.76 -26.9696 2527.28" stroke="#FCD7B7" stroke-width="2" stroke-miterlimit="10"/>
<path d="M-403 3852.46C-379.56 3712.46 -279.12 3587.94 -147.31 3535.35C-88.0698 3511.72 -15.5198 3503.77 35.5002 3542.04C67.7302 3566.22 85.8202 3604.88 97.3502 3643.49C108.88 3682.1 115.18 3722.36 130.23 3759.74C136.53 3775.4 144.5 3790.68 156.15 3802.91C185.63 3833.84 231.84 3839.6 273.33 3849.91C309.45 3858.85 344.265 3872.41 376.91 3890.27C400.43 3903.14 423.58 3919.1 436.6 3942.53C458.38 3981.74 445.45 4033.19 416.33 4067.29C387.21 4101.39 345.09 4121.41 303.22 4137.48C257.08 4155.2 205.36 4169.33 159 4152.2C113.67 4135.45 83.4902 4092.5 42.0002 4067.72C-40.8698 4018.22 -148.54 4049.95 -241.57 4024.24C-311.27 4004.98 -370.57 3951.45 -396.92 3884.1C-408.62 3854.16 -411.41 3814.42 -385.6 3795.25" stroke="#DCEBCE" stroke-width="2" stroke-miterlimit="10"/>
<path d="M974.33 3475C939.15 3452.31 897.65 3441 856.06 3436.23C744.89 3423.58 629.12 3458.31 543.26 3530.05C524.04 3546.12 505.96 3564.36 494.87 3586.83C483.78 3609.3 480.48 3636.63 490.87 3659.42C500.93 3681.49 522.33 3696.54 544.87 3705.49C567.41 3714.44 591.61 3718.26 615.09 3724.37C676.02 3740.22 736.97 3776.9 757.62 3836.37C767.05 3863.56 767.62 3894.2 783.22 3918.37C801.05 3946.08 835.98 3959.45 868.9 3958.1C901.82 3956.75 932.99 3942.71 961.03 3925.41C1020.93 3888.33 1070.02 3836.15 1103.36 3774.09C1125.95 3731.88 1140.15 3678.09 1114.5 3637.68C1094.92 3606.82 1058.93 3593.16 1043.37 3559.95C1026.91 3524.85 1007.74 3496.58 974.33 3475Z" stroke="#DCEBCE" stroke-width="2" stroke-miterlimit="10"/>
<path d="M771.63 2888.76C693.98 2890.76 612.43 2911.66 558.81 2967.87C544.18 2983.21 531.32 3003.54 535.38 3024.36C539.23 3044.15 557.17 3057.97 575.17 3067.05C593.17 3076.13 613.02 3082.76 627.54 3096.75C632.65 3101.67 637.06 3107.61 638.74 3114.5C642.9 3131.57 629.62 3148.06 628.59 3165.6C627.14 3190.31 651.59 3210.6 676.25 3212.85C700.91 3215.1 724.74 3203.99 746.02 3191.35C800.17 3159.21 1018.88 2960.03 899.07 2908.06C859.81 2891 813.95 2887.67 771.63 2888.76Z" stroke="#DCEBCE" stroke-width="2" stroke-miterlimit="10"/>
<path d="M549.509 4142.86C519.109 4175.58 492.79 4220.86 507.58 4263.04C511.13 4273.14 517.68 4283.04 527.77 4286.65C536.16 4289.65 545.479 4287.78 553.939 4285C597.309 4270.72 633.88 4233 679.53 4233.92C721.71 4234.75 754.889 4268.13 791.749 4288.63C832.939 4311.53 883.479 4318.72 928.289 4304.16C973.099 4289.6 1010.81 4252.25 1021.94 4206.47C1037.48 4142.58 1009.72 4040.72 941.28 4019.71C855.19 3993.27 750.88 4014.44 671.78 4052.9C626.02 4075.15 584.159 4105.55 549.509 4142.86Z" stroke="#DCEBCE" stroke-width="2" stroke-miterlimit="10"/>
<path d="M726.5 4332.9C708.5 4320.21 684.13 4320.49 663.12 4326.98C642.028 4333.52 623.049 4345.55 608.12 4361.82C605.37 4364.82 602.72 4368.07 601.36 4371.91C597.17 4383.71 607.25 4396.71 619.23 4400.35C631.21 4403.99 644.1 4400.95 656.23 4397.86C668.36 4394.77 681.23 4391.62 693.23 4395.06C710.93 4400.06 728.85 4408.66 740.82 4389.21C751.74 4371.48 742.26 4344 726.5 4332.9Z" stroke="#DCEBCE" stroke-width="2" stroke-miterlimit="10"/>
<path d="M545.37 4867.92C597.88 4844.63 659.31 4841.17 713.44 4860.42C767.57 4879.67 813.53 4921.86 835.44 4974.98C857.35 5028.1 854.16 5091.36 825.3 5141.03C817.45 5154.55 807.73 5167.13 795.63 5177.03C766.92 5200.47 728.07 5206.52 691.14 5209.55C663.91 5211.79 635.87 5212.78 609.9 5204.3C583.93 5195.82 560.1 5176.1 553.77 5149.52C546.41 5118.62 563.45 5085.68 555.62 5054.89C550.94 5036.47 537.93 5021.41 524.54 5007.89C503.32 4986.53 470.15 4956.3 481.19 4921.89C489.08 4897.22 523.51 4877.62 545.37 4867.92Z" stroke="#DCEBCE" stroke-width="2" stroke-miterlimit="10"/>
<path d="M441.16 4938C439.42 4933.63 437.52 4929.24 434.53 4925.6C425.89 4915.12 409.53 4913.47 397.27 4919.38C385.01 4925.29 376.65 4937.21 371.68 4949.85C366.23 4963.71 364.32 4979.26 368.2 4993.64C372.08 5008.02 382.2 5021.01 396 5026.64C409.8 5032.27 427.08 5029.5 437.26 5018.64C457.04 4997.46 450.56 4961.69 441.16 4938Z" stroke="#DCEBCE" stroke-width="2" stroke-miterlimit="10"/>
<path d="M99.4798 3329.48C85.2398 3320.8 69.8698 3306.35 74.6098 3290.36C77.8798 3279.36 89.5198 3273.27 100.31 3269.23C160.18 3246.78 228.96 3249.23 287.08 3275.91C306.56 3284.85 325.96 3297.65 334.08 3317.49C357.44 3374.58 290.36 3378.6 254.85 3376.87C199.924 3374.25 146.521 3357.96 99.4798 3329.48Z" stroke="#DCEBCE" stroke-width="2" stroke-miterlimit="10"/>
<path d="M-186.62 5229.46C-153.577 5182.56 -106.366 5147.48 -51.9201 5129.39C-31.9701 5122.81 -9.48012 5118.79 9.52988 5127.71C38.2099 5141.16 47.5299 5177.78 71.7999 5198.17C91.7399 5214.93 119.62 5218.81 145.63 5217.32C171.64 5215.83 197.29 5209.71 223.34 5209.32C276.18 5208.52 328.86 5232.81 362.55 5273.53C386.79 5302.83 401.04 5345.27 383.7 5379.12C369.12 5407.58 336.83 5421.96 306.02 5430.51C250.11 5446 191.63 5449.38 133.63 5451C100.99 5451.92 67.9999 5452.29 36.0599 5445.46C-31.7501 5430.96 -89.5801 5384.6 -130.28 5328.46C-146.65 5305.89 -160.89 5280.99 -165.9 5253.57C-170.91 5226.15 -165.56 5195.75 -146.74 5175.19C-164.15 5188.7 -176.85 5209.71 -186.62 5229.46Z" stroke="#DCEBCE" stroke-width="2" stroke-miterlimit="10"/>
<path d="M509.4 5587C543.64 5549.15 599 5534.67 649.4 5542.49C677.91 5546.92 706.55 5558.69 724.59 5581.21C745.59 5607.36 748.87 5645 737.59 5676.58C726.31 5708.16 702.14 5733.92 674.03 5752.18C655.63 5764.12 633.53 5775.52 627.83 5796.7C624.89 5807.6 626.28 5820.98 617.63 5828.23C612.29 5832.7 604.72 5833.23 597.77 5832.75C572.46 5831.13 548.3 5818.93 531 5800.55C511.37 5779.7 508.34 5753.86 497 5728.79C475.11 5680.45 470.9 5629.51 509.4 5587Z" stroke="#FCD7B7" stroke-width="2" stroke-miterlimit="10"/>
<path d="M-183.6 6510C-172.34 6398.18 -93.9901 6295.77 10.9799 6255.63C48.0999 6241.44 89.6099 6234.68 127.67 6246.15C172.24 6259.58 206.32 6296.15 230.52 6335.92C254.72 6375.69 271.15 6419.71 294.21 6460.14C305.65 6480.19 319.1 6499.75 337.89 6513.14C375.79 6540.14 426.37 6536.89 472.89 6539.14C502.622 6540.57 532.162 6544.7 561.15 6551.46C597.43 6559.94 635.31 6574.46 655.73 6605.64C674.16 6633.77 674.57 6670.72 664.81 6702.91C642.29 6777.19 564.99 6830.91 487.52 6826.05C461.75 6824.45 436.72 6817.15 411.29 6812.73C348.546 6801.95 284.041 6808.72 224.91 6832.32C179.85 6850.39 139.09 6877.82 94.5499 6897.14C50.0099 6916.46 -1.38008 6927.32 -46.8901 6910.41C-103.39 6889.41 -137.06 6831.33 -156.7 6774.34C-191.359 6673.22 -196.448 6564.31 -171.37 6460.4" stroke="#DCEBCE" stroke-width="2" stroke-miterlimit="10"/>
<path d="M542.23 6911.07C502.01 6931.13 477.12 6975.31 473.17 7020.07C472.37 7029.23 472.72 7039.51 479.17 7046.07C484.55 7051.61 492.79 7053.07 500.47 7053.83C544.93 7058.39 589.65 7050.99 633.73 7043.62L664.91 7038.4C672.11 7037.2 679.59 7035.88 685.53 7031.63C690.53 7028.08 693.96 7022.73 696.26 7017.07C707.98 6988.2 681.18 6946.94 659.51 6927.66C628.32 6900 579.56 6892.45 542.23 6911.07Z" stroke="#DCEBCE" stroke-width="2" stroke-miterlimit="10"/>
<path d="M-134.37 7385C-100.18 7406 -60.3697 7416.07 -20.5397 7421C16.6303 7425.58 54.4603 7425.82 91.4603 7419.71C160.46 7408.28 224.93 7374.55 276.73 7327.58C294.96 7311.04 311.96 7292.7 333.14 7280.16C375.4 7255.16 431.34 7257.44 473.4 7282.79C515.46 7308.14 543.12 7354.53 549.17 7403.26C555.22 7451.99 540.63 7502.26 512.55 7542.54C490.95 7573.54 457.43 7600.47 419.72 7598.54C407.56 7597.93 395.78 7594.35 383.83 7592.03C307.83 7577.3 232.33 7613.66 163.4 7648.82C94.4703 7683.98 18.6303 7720 -57.2497 7704.62C-97.3697 7696.48 -133.41 7674.36 -165.03 7648.36C-205.71 7614.91 -240.9 7573.92 -263.03 7526.13C-285.16 7478.34 -293.69 7423.48 -281.96 7372.13C-275.72 7344.81 -251.83 7290.59 -215.07 7305.13C-200.41 7310.95 -190.65 7331.54 -181.29 7343.13C-167.95 7359.7 -152.58 7373.84 -134.37 7385Z" stroke="#FCD7B7" stroke-width="2" stroke-miterlimit="10"/>
<path d="M670.83 7709.3C652.16 7722.65 639.28 7743.03 632.09 7764.83C627.54 7778.65 625.55 7795.16 634.5 7806.63C639.67 7813.26 647.74 7817.06 655.92 7818.96C672.85 7822.88 691.04 7819.42 706.29 7811.09C721.54 7802.76 733.97 7789.83 743.29 7775.19C752.05 7761.47 758.38 7745.53 757.38 7729.29C754.44 7681 699.97 7688.47 670.83 7709.3Z" stroke="#FCD7B7" stroke-width="2" stroke-miterlimit="10"/>
<path d="M215.89 7702.05C211.27 7708.42 206.97 7716.12 208.8 7723.78C210.54 7731.06 217.69 7736.15 225.09 7737.26C232.49 7738.37 240.01 7736.17 246.8 7733.02C260.04 7726.89 271.72 7717.1 285.89 7713.6C303.48 7709.25 323.16 7715.09 339.49 7707.26C344.907 7704.59 349.551 7700.58 352.982 7695.61C356.412 7690.64 358.515 7684.87 359.09 7678.86C362.34 7640.37 324.27 7637.04 297.97 7644.98C265.29 7654.84 236.04 7674.24 215.89 7702.05Z" stroke="#FCD7B7" stroke-width="2" stroke-miterlimit="10"/>
<path d="M-47.5299 8449.74C-15.7399 8424.9 25.9501 8409.6 65.2901 8418.49C119.11 8430.65 154.35 8484.17 167.53 8537.74C180.71 8591.31 177.53 8647.5 185.59 8702.08C193.65 8756.66 216.59 8813.88 264.89 8840.64C298.53 8859.31 338.96 8860.16 377.39 8858.28C395.3 8857.4 413.51 8856.05 430.97 8860.12C448.43 8864.19 465.44 8874.72 472.4 8891.26C478.5 8905.76 476 8922.6 470.15 8937.21C458.48 8966.32 434.15 8989.33 406.03 9003.21C377.91 9017.09 346.12 9022.28 314.77 9022.48C265.1 9022.8 214.27 9010.17 174.64 8980.22C156.25 8966.32 139.92 8948.61 118.21 8940.87C93.8801 8932.2 67.1101 8937.54 41.2901 8936.71C-29.4799 8934.42 -92.8199 8882.77 -121.43 8818C-144.27 8766.27 -147.27 8707.84 -138.05 8652.6C-130.54 8607.6 -123.53 8556.5 -102.24 8515.89C-88.8951 8490.21 -70.2467 8467.67 -47.5299 8449.74Z" stroke="#FCD7B7" stroke-width="2" stroke-miterlimit="10"/>
<path d="M678.3 8134.86C593.69 8133.2 507.3 8147.71 433.02 8188.27C358.74 8228.83 297.68 8297.42 277.16 8379.52C269.16 8411.71 268.57 8449.3 290.51 8474.17C307.51 8493.47 334.24 8500.71 359.61 8505.06C397.74 8511.6 436.9 8513.84 473.61 8526.16C510.32 8538.48 545.42 8563.29 557.83 8599.93C577.36 8657.58 535.48 8722.35 553.83 8780.38C567.65 8824.14 613.92 8851.67 659.66 8855.45C705.4 8859.23 750.49 8843.45 792.09 8824.11C880.9 8782.74 962.41 8722.38 1018.59 8642.11C1053.8 8591.71 1078.4 8534.67 1090.88 8474.47C1101.88 8421.11 1103.03 8364.84 1086.88 8312.81C1072.43 8266.25 1038.66 8209.41 991.19 8189.98C934.45 8166.75 866.36 8157.66 806.26 8147.62C763.92 8140.55 721.2 8135.71 678.3 8134.86Z" stroke="#DCEBCE" stroke-width="2" stroke-miterlimit="10"/>
<path d="M651.35 8956.28C640.9 8952.11 629.72 8949.28 618.48 8949.8C598.65 8950.64 579.98 8961.98 568.41 8978.1C564.289 8983.58 561.351 8989.86 559.78 8996.54C555.98 9014.61 566.72 9033.46 582.09 9043.69C597.46 9053.92 616.55 9056.9 635.01 9057.31C653.9 9057.74 711.66 9059.75 714.25 9031.88C717.38 8998.1 678.75 8967.2 651.35 8956.28Z" stroke="#FCD7B7" stroke-width="2" stroke-miterlimit="10"/>
<path d="M1047.81 9346.7C1031.33 9314.04 998.72 9291.63 963.81 9280.7C928.9 9269.77 891.6 9269.27 855.08 9271.33C788.08 9275.11 720.9 9287.6 660.2 9316.11C599.5 9344.62 545.51 9390.11 514.12 9449.34C499.12 9477.63 489.35 9510.55 496.88 9541.67C503.48 9568.96 522.88 9591.88 546.03 9607.74C569.18 9623.6 596.03 9633.14 622.95 9641.22C692.32 9662.07 765.72 9674.32 837.32 9663.31C908.92 9652.3 978.76 9615.67 1018.38 9555.03C1034.38 9530.53 1045.09 9502.97 1054.38 9475.21C1061.38 9454.21 1067.68 9432.36 1065.66 9410.35C1062.97 9381.07 1046.03 9355.35 1029.6 9330.92" stroke="#DCEBCE" stroke-width="2" stroke-miterlimit="10"/>
<path d="M316.02 9461.69C288.5 9453.93 257.95 9462.05 235.17 9479.31C212.39 9496.57 196.83 9522.11 187.6 9549.17C178.6 9575.62 175.31 9605.17 184.92 9631.36C194.53 9657.55 219.12 9679.44 247.07 9679.96C269.17 9680.37 289.91 9667.8 304.52 9651.21C319.13 9634.62 328.61 9614.21 337.89 9594.21C348.41 9571.45 370.06 9540.14 366.67 9513.95C363.48 9489.28 338.63 9468.07 316.02 9461.69Z" stroke="#DCEBCE" stroke-width="2" stroke-miterlimit="10"/>
<path d="M-95.0599 9345.63C-101.54 9337.26 -100.93 9324.97 -96.0599 9315.63C-91.1899 9306.29 -82.7099 9299.25 -74.0599 9293.16C-34.0599 9265.1 17.7701 9251.16 64.6901 9264.64C74.7401 9267.53 84.6901 9271.76 92.3201 9278.89C99.9501 9286.02 105.09 9296.43 103.91 9306.83C103.07 9314.26 99.1601 9321.04 94.4301 9326.83C82.4301 9341.56 65.0701 9351.08 47.1301 9357.39C11.1311 9369.92 -27.8942 9370.84 -64.4399 9360C-72.4399 9357.6 -80.6299 9354.46 -86.5499 9348.51C-92.4699 9342.56 -95.5499 9333.12 -92.0699 9325.51C-92.5999 9331.39 -94.5299 9339.76 -95.0599 9345.63Z" stroke="#FCD7B7" stroke-width="2" stroke-miterlimit="10"/>
<path d="M-75.2704 10206.8C-67.5804 10186 -53.9604 10168 -40.1804 10150.6C8.37962 10089.4 62.9796 10030.6 132.46 9994.89C147.72 9987.05 163.93 9980.31 181.03 9978.89C198.13 9977.47 216.35 9981.96 228.55 9994.02C246.4 10011.7 247.23 10039.8 246.55 10064.9C245.87 10090 245.79 10117.9 262.63 10136.5C271.1 10145.9 282.8 10151.5 293.17 10158.7C325.33 10181.1 344.86 10221.3 340.57 10260.2C336.28 10299.2 307.33 10334.8 269.51 10345.1C250.28 10350.3 229.84 10349.2 210.23 10345.7C186.97 10341.6 164.429 10334.1 143.3 10323.5C128.4 10316.1 114.14 10307 98.2196 10302.1C61.5696 10290.8 22.2196 10302.6 -16.1904 10302.3C-70.1904 10301.8 -93.1904 10255.2 -75.2704 10206.8Z" stroke="#FCD7B7" stroke-width="2" stroke-miterlimit="10"/>
<path d="M653.36 10394.5C639.96 10403.2 626.43 10415.6 626.29 10431.6C626.16 10446.6 638.08 10459 650.73 10467.1C663.38 10475.1 677.81 10480.9 688.2 10491.7C697.49 10501.4 703.06 10514.6 714.03 10522.3C727.28 10531.6 745.1 10530.5 760.92 10527.1C785.005 10521.9 807.907 10512.3 828.44 10498.7C846.31 10486.8 863.1 10470.5 867.14 10449.4C869.79 10435.6 866.63 10421.4 863.14 10407.7C852.19 10364.5 821.85 10365.1 782.55 10362.2C737.56 10358.8 691.34 10369.9 653.36 10394.5Z" stroke="#FCD7B7" stroke-width="2" stroke-miterlimit="10"/>
</g>
<defs>
<clipPath id="clip0_415_9329">
<rect width="1674.75" height="10764" fill="white" transform="translate(-406)"/>
</clipPath>
</defs>
</svg>
