<svg width="768" height="1198" viewBox="0 0 768 1198" fill="none" xmlns="http://www.w3.org/2000/svg">
<g clip-path="url(#clip0_419_9588)">
<path d="M837.159 285.37C755.159 255.46 666.539 240 580.159 252.07C493.779 264.14 409.669 305.55 355.759 374.18C343.179 390.18 331.939 411.81 341.049 430.02C347.849 443.63 363.659 449.94 378.469 453.42C403.929 459.42 430.469 460.51 455.469 468.13C480.469 475.75 505.079 491.83 513.229 516.68C519.509 535.84 514.949 557.09 506.159 575.23C497.369 593.37 484.629 609.23 473.419 625.99C443.029 671.44 423.849 730.77 446.309 780.62C460.149 811.33 488.379 834.08 519.769 846.3C551.159 858.52 585.579 861.07 619.229 859.3C706.355 854.779 789.769 822.593 857.349 767.419C924.93 712.245 973.156 636.959 995.019 552.5C1002.39 524.03 1006.51 493.02 995.319 465.82C990.449 453.98 982.679 441.17 987.629 429.36C999.629 400.61 1034.12 429.96 1048.25 416.53C1068.64 397.15 1020.9 376.04 1010.75 370.06C955.249 337.39 897.789 307.5 837.159 285.37Z" fill="#F3F6EA"/>
<path d="M184.67 598.38C203.76 597.59 226.07 600.82 235.74 617.3C240.45 625.3 241.12 635.12 240.53 644.41C238.25 681.16 218.25 717.78 228.58 753.13C238.84 788.32 276.43 810.8 285.15 846.41C291.52 872.41 280.68 899.96 264.74 921.51C245.16 947.99 214.13 969.45 181.43 965.57C140.43 960.7 114.65 920.44 81.43 895.93C48.35 871.54 15.43 876.17 -20.88 864.53C-50.88 854.91 -63.48 815.97 -56 786.69C-40.75 727 20.16 663 71.57 632.63C105.83 612.42 144.83 600 184.67 598.38Z" fill="#F3F6EA"/>
<path d="M845.391 226.2C761.971 209 673.531 223.52 596.581 260C519.631 296.48 453.791 354.18 401.191 421.18C377.451 451.43 355.681 485.07 350.041 523.11C344.401 561.15 358.751 604.39 392.551 622.71C427.291 641.55 475.551 631.9 503.431 659.89C537.171 693.74 515.381 756.25 543.631 794.8C559.061 815.85 586.631 824.89 612.751 825.18C675.611 825.88 730.521 784.41 776.661 741.7C826.741 695.35 873.721 644.31 905.591 583.97C937.461 523.63 953.251 452.86 938.751 386.19C934.031 364.56 926.291 342.77 927.351 320.33C928.001 306.46 934.531 293.59 930.281 279.92C920.251 247.71 874.391 232.19 845.391 226.2Z" stroke="#DCEBCE" stroke-width="2" stroke-miterlimit="10"/>
<path d="M7.9706 784C84.5914 732.41 176.043 707.428 268.251 712.9C299.151 714.83 334.251 723.2 348.461 750.68C363.571 779.78 347.701 814.98 329.881 842.5C312.951 868.63 293.701 893.79 268.881 912.61C244.061 931.43 213.091 943.53 182.071 940.89C146.301 937.89 115.131 916.26 81.2306 904.45C57.3926 896.157 32.1399 892.703 6.9506 894.29C-7.4894 895.21 -21.9094 897.79 -36.3294 896.62C-118.169 890 -18.6094 802 7.9706 784Z" stroke="#DCEBCE" stroke-width="2" stroke-miterlimit="10"/>
</g>
<defs>
<clipPath id="clip0_419_9588">
<rect width="1122.28" height="1198" fill="white" transform="translate(-69)"/>
</clipPath>
</defs>
</svg>
