<svg width="768" height="1895" viewBox="0 0 768 1895" fill="none" xmlns="http://www.w3.org/2000/svg">
<g clip-path="url(#clip0_419_9559)">
<path d="M835.1 582.8C783.64 596.48 729.69 596.58 676.9 603.47C554.76 619.47 431.48 678.88 370.95 786.16C348.44 826.07 335.99 877.33 359.29 916.81C380.43 952.7 423.63 967.63 458.19 990.88C524.25 1035.34 561.53 1119.06 550.36 1197.88C542.95 1250.22 516.29 1298.82 512.55 1351.54C510.941 1376.09 514.323 1400.7 522.492 1423.91C530.661 1447.11 543.448 1468.42 560.08 1486.54C600.8 1530.41 660.77 1551.22 719.77 1561.29C765.3 1569.06 812.24 1571.35 857.59 1562.53C964.77 1541.69 1050.86 1461.86 1117.81 1375.61C1174.07 1303.15 1222.29 1221.16 1236.12 1130.47C1244.95 1072.55 1239.4 1013.47 1231.25 955.41C1219.01 868.18 1200.75 781.19 1166.92 699.86C1133.09 618.53 1082.92 542.75 1014.44 487.4C973.85 454.6 963.52 488.4 941.99 517C916.33 551.09 875.6 572 835.1 582.8Z" fill="#FDF1E5"/>
<path d="M25.921 1241.61C54.621 1227.48 83.671 1213.24 114.921 1206.39C144.189 1200 174.52 1200.29 203.661 1207.23C225.751 1212.51 247.891 1222.35 261.561 1240.49C275.971 1259.62 278.871 1285.49 274.711 1309.08C270.551 1332.67 260.051 1354.59 249.711 1376.17L227.541 1422.29C222.971 1431.79 218.331 1441.4 211.621 1449.54C190.621 1474.93 153.531 1480.92 121.001 1475.88C88.471 1470.84 57.991 1456.81 25.991 1449C0.110977 1442.68 -26.879 1440.4 -51.719 1430.78C-83.719 1418.41 -172.229 1374.15 -131.529 1331.68C-92.239 1290.7 -24.179 1266.26 25.921 1241.61Z" fill="#FDF1E5"/>
<path d="M604.071 765.46C528.711 793.46 440.171 787.56 372.281 744.46C338.551 723.07 309.991 693.16 273.281 677.46C198.641 645.61 101.281 690.7 77.2811 768.22C70.0811 791.49 69.2011 818.03 81.4911 839.05C96.7711 865.18 127.801 876.63 152.491 894.13C218.711 941.06 237.771 1032.78 227.491 1113.29C217.211 1193.8 183.741 1269.42 166.061 1348.63C148.381 1427.84 149.221 1518.17 199.991 1581.52C232.761 1622.43 283.101 1646.96 334.861 1655.27C386.621 1663.58 439.861 1656.83 490.531 1643.57C714.171 1585.1 890.291 1402.28 987.691 1192.64C1015.16 1133.52 1037.6 1070.13 1036.09 1004.95C1034.91 954.38 1019.33 905.19 1000.09 858.4C971.828 789.74 935.496 724.686 891.861 664.61C868.701 632.73 819.671 585.09 777.511 616.25C760.701 628.67 750.631 651.34 737.681 667.38C721.381 687.628 702.76 705.893 682.201 721.8C658.494 740.189 632.156 754.907 604.071 765.46Z" stroke="#FCD7B7" stroke-width="2" stroke-miterlimit="10"/>
<path d="M-247.009 1334.65C-209.941 1313.34 -167.758 1302.55 -125.009 1303.45C-107.819 1303.84 -89.6093 1306.6 -76.5293 1317.76C-58.9693 1332.76 -55.5293 1358.44 -56.5293 1381.5C-57.5293 1404.56 -61.7893 1428.25 -54.9693 1450.29C-48.8093 1470.17 -34.4093 1486.2 -22.7293 1503.43C-6.86928 1526.81 4.58072 1554.43 2.83072 1582.64C1.08072 1610.85 -16.2593 1639.16 -43.1693 1647.86C-66.9193 1655.56 -92.9193 1647.21 -115.029 1635.61C-136.177 1624.5 -155.632 1610.44 -172.809 1593.84C-185.809 1581.3 -197.539 1567.24 -212.509 1557.15C-234.109 1542.6 -260.899 1537.34 -282.599 1522.95C-316.369 1500.55 -331.599 1455.44 -322.389 1416.55C-314.449 1383 -275.269 1350.94 -247.009 1334.65Z" stroke="#FCD7B7" stroke-width="2" stroke-miterlimit="10"/>
</g>
<defs>
<clipPath id="clip0_419_9559">
<rect width="1566.61" height="1895" fill="white" transform="translate(-326)"/>
</clipPath>
</defs>
</svg>
