<svg width="768" height="3129" viewBox="0 0 768 3129" fill="none" xmlns="http://www.w3.org/2000/svg">
<g clip-path="url(#clip0_419_9545)">
<path d="M666.22 313.52C613.77 324.86 562.5 345.86 521.91 381C502.03 398.18 484.62 419.12 475.91 443.91C467.2 468.7 468.28 497.77 482.85 519.63C497.22 541.22 522.02 552.98 542.07 569.44C555.07 580.12 566.85 594.37 567.78 611.17C568.78 628.55 558.1 644.09 549.92 659.46C519.44 716.76 523.08 793.89 567.98 840.76C611.46 886.16 680.98 894.76 743.63 889.05C814.95 882.55 885.63 860.57 944.43 819.68C1003.23 778.79 1049.43 718.23 1066.97 648.8C1084.51 579.37 1071.53 501.5 1027.24 445.22C1010.24 423.55 989.24 405.41 971.68 384.15C959.68 369.57 952.12 347.23 935.94 336.82C913.94 322.71 881.55 317.48 856.37 312.42C827.339 306.605 797.826 303.535 768.22 303.25C733.945 302.885 699.735 306.329 666.22 313.52Z" fill="#FDF1E5"/>
<path d="M349.291 608.8C340.401 594.87 337.291 574.61 349.051 563.03C358.111 554.12 372.361 553.69 385.051 554.87C416.512 557.833 447.03 567.217 474.721 582.44C485.021 588.11 495.021 594.75 502.261 604C504.855 607.086 506.715 610.721 507.701 614.63C510.421 627.39 498.861 638.71 487.231 644.63C463.231 656.8 434.551 657.48 409.631 647.85C386.761 639 363.111 630.44 349.291 608.8Z" fill="#FDF1E5"/>
<path d="M18.2601 683.3C44.3701 707.19 57.4801 741.85 68.0901 775.61C81.1401 817.15 91.8501 859.61 110.18 899.16C128.51 938.71 155.49 975.68 193.43 997.06C245.76 1026.53 310.33 1022.3 367.23 1041.5C405.86 1054.5 441.23 1079.22 463.11 1113.63C484.99 1148.04 492.19 1192.45 478.18 1230.74C464.17 1269.03 430.9 1297.85 394.57 1316.66C358.24 1335.47 318.31 1345.93 279.57 1359.15C202.517 1385.49 129.766 1423.05 63.6601 1470.6C34.3701 1491.67 6.1701 1514.84 -26.4799 1530.2C-59.1299 1545.56 -97.7499 1552.42 -131.34 1539.2C-159.62 1528.1 -180.95 1504.34 -198.41 1479.49C-235.41 1426.8 -259.78 1365.96 -275.24 1303.49C-301.88 1195.74 -301.13 1081.78 -275.73 973.86C-262.778 918.824 -243.395 865.504 -217.98 815C-195.66 770.68 -167.98 718 -131.63 683.45C-92.2599 645.93 -21.2499 647.15 18.2601 683.3Z" fill="#FDF1E5"/>
<path d="M843.341 1707.14C715.831 1691.32 582.421 1730.75 483.991 1813.34C433.121 1856.02 389.321 1916.08 392.931 1982.34C395.351 2026.68 418.561 2067.06 428.201 2110.41C440.371 2165.16 429.691 2224.62 399.201 2271.71C391.491 2283.63 382.201 2295.06 369.841 2301.98C334.521 2321.67 291.661 2298.41 251.371 2294.98C193.981 2290.04 135.721 2334.17 127.701 2391.21C119.681 2448.25 166.121 2507.97 223.601 2511.56C276.911 2514.9 325.401 2476.31 378.801 2476.26C443.311 2476.21 492.691 2530.06 540.851 2572.98C597.611 2623.56 667.391 2664.85 743.381 2667.39C843.251 2670.72 933.661 2606.9 1000 2532.17C1057.7 2467.17 1104.06 2391.07 1128 2307.52C1151.94 2223.97 1152.49 2132.74 1122.48 2051.19C1100.3 1991 1062.79 1938.34 1028.02 1885C1010.46 1858 993.241 1830.67 979.021 1801.74C967.861 1779.01 966.021 1758.04 944.671 1742.18C915.701 1720.59 878.631 1711.51 843.341 1707.14Z" fill="#F3F6EA"/>
<path d="M672.02 354.64C624.02 355.71 576.47 345.31 528.48 344.38C499.29 343.81 468.74 347.2 444.27 363.13C431.63 371.36 420.27 385.22 422.91 400.07C425.96 417.2 444.85 425.59 460.62 432.93C485.68 444.59 510.2 462.34 518.96 488.56C531.14 525.01 509.47 563.1 490.66 596.62C473.33 627.52 457.66 659.81 450.06 694.41C442.46 729.01 443.5 766.41 458.59 798.41C483.24 850.88 543.1 881 601.02 881.15C658.94 881.3 714.51 855.4 760.62 820.28C778.62 806.6 795.74 791.11 806.95 771.51C817.52 753.06 822.28 731.95 826.95 711.2C846.95 621.56 866.95 531.92 884.95 441.87C888.95 421.68 892.95 401.09 890.62 380.63C887.27 351.3 835.36 243.25 794.5 285.53C781.32 299.09 780.37 318.9 763.89 331C739.19 349.12 701.69 354 672.02 354.64Z" stroke="#FCD7B7" stroke-width="2" stroke-miterlimit="10"/>
<path d="M407.89 497.06C363.737 505.824 324.735 531.446 299.16 568.49C291.78 579.29 285.49 593.06 290.7 605.06C295.7 616.58 309.45 621.66 321.98 622.25C336.416 622.913 350.73 619.328 363.15 611.94C377.88 603.13 389.43 589.23 405.21 582.48C418.78 576.68 434.59 576.6 447.21 568.95C453 565.36 457.79 560.365 461.136 554.431C464.482 548.496 466.275 541.813 466.35 535C466.35 499.09 436.92 491.44 407.89 497.06Z" stroke="#FCD7B7" stroke-width="2" stroke-miterlimit="10"/>
<path d="M-112.69 854.59C-50.2199 798.47 24.6501 752.69 107.66 740C142.42 734.67 181.88 736.72 207.14 761.19C220.21 773.85 227.84 791.07 233.61 808.33C259.71 886.41 253.67 972.16 277.61 1050.91C283.36 1069.78 291.08 1088.58 304.44 1103.08C344.6 1146.65 419.97 1137.61 463.14 1178.19C482.83 1196.7 493.25 1224.75 489.96 1251.57C486.67 1278.39 469.6 1303.26 445.53 1315.57C413.26 1332.06 374.66 1325.42 338.53 1328.3C284.97 1332.57 235.28 1358.52 192.12 1390.52C148.96 1422.52 110.87 1460.82 69.1201 1494.7C41.4801 1517.15 11.7301 1537.92 -21.9799 1549.38C-55.6899 1560.84 -93.9799 1562.08 -125.98 1546.43C-164.91 1527.43 -188.53 1486.96 -205.09 1446.91C-238.25 1366.72 -251.09 1278.62 -244.43 1192.22C-241.146 1149.49 -233.055 1107.27 -220.31 1066.36C-208.61 1028.89 -189.57 994.36 -179.91 956.3C-169.29 914.55 -144.53 883.18 -112.69 854.59Z" stroke="#FCD7B7" stroke-width="2" stroke-miterlimit="10"/>
<path d="M824.719 1707.78C643.549 1748.18 477.019 1851.3 360.019 1995.46C324.839 2038.83 293.609 2086.69 278.299 2140.39C262.989 2194.09 265.079 2254.53 293.299 2302.7C310.699 2332.35 336.759 2355.76 358.539 2382.35C390.523 2421.47 413.201 2467.34 424.859 2516.51C431.069 2542.79 434.359 2570.59 448.699 2593.51C476.839 2638.41 536.909 2649.51 589.889 2650.51C727.776 2653.07 863.529 2616.23 981.209 2544.32C1098.89 2472.41 1193.61 2368.42 1254.25 2244.56C1288.72 2174.17 1311.89 2095.72 1303.19 2017.84C1293.41 1930.3 1244.81 1853.84 1190.03 1787.27C1169.4 1762.18 1145.66 1724.82 1116.37 1709.08C1081.59 1690.4 1029.27 1691.08 990.919 1690.27C935.119 1689.1 879.209 1695.63 824.719 1707.78Z" stroke="#DCEBCE" stroke-width="2" stroke-miterlimit="10"/>
<path d="M127.88 2494.9C107.42 2483.82 91.1202 2466.21 78.1502 2446.9C56.3503 2414.44 42.9703 2375.82 43.3803 2336.73C43.5503 2319.84 47.6103 2300.85 61.9503 2291.94C67.9503 2288.25 74.9503 2286.78 81.9503 2286.2C115.95 2283.37 148.86 2300.2 175.15 2321.96C198.85 2341.59 218.65 2365.31 241 2386.38C258.81 2403.18 287.73 2423.53 281.06 2451.97C267.44 2510.06 170.02 2517.73 127.88 2494.9Z" stroke="#DCEBCE" stroke-width="2" stroke-miterlimit="10"/>
</g>
<defs>
<clipPath id="clip0_419_9545">
<rect width="1601.1" height="3129" fill="white" transform="translate(-295)"/>
</clipPath>
</defs>
</svg>
