<svg width="768" height="1278" viewBox="0 0 768 1278" fill="none" xmlns="http://www.w3.org/2000/svg">
<g clip-path="url(#clip0_419_9578)">
<path d="M884.56 485.61C865.76 471.95 843.56 463.81 821.08 457.78C726.85 432.42 623.52 442.52 535.98 485.66C500.77 503 467.56 526 443.8 557.27C431.61 573.27 421.74 593.33 426.04 613C430.86 635.07 451.72 649.6 471.91 659.75C500.35 674.06 531.03 684.42 556.97 702.87C582.91 721.32 604.17 750.7 601.74 782.45C598.65 822.76 558.91 857.27 567.57 896.76C574.24 927.17 607.14 944.16 637.7 950.12C697.41 961.77 759.83 947.12 814.7 920.94C861.85 898.41 905.35 866.89 937.3 825.55C969.25 784.21 989.09 732.55 987.78 680.34C986.78 641.34 973.4 602.22 948.97 571.65C937.97 557.84 927.36 550.08 920.97 534.09C912.99 514.3 902.09 498.33 884.56 485.61Z" fill="#FDF1E5"/>
<path d="M53.5499 813.5C14.5999 819.84 -18.0601 848.5 -37.4501 882.9C-46.5501 899.05 -52.95 919.9 -42.96 935.46C-35.3 947.46 -20.5801 952.27 -7.52005 957.89C10.6499 965.71 27.8999 976.889 39.4799 992.999C53.03 1011.86 58.64 1037 77.38 1050.77C98.3799 1066.13 128.63 1060.9 150.81 1047.33C182.11 1028.18 203.61 992.919 203.81 956.229C203.778 935.747 197.33 915.788 185.37 899.159C174.72 884.289 158.15 876.54 148.28 862.01C125.8 828.91 96.83 806.45 53.5499 813.5Z" fill="#FDF1E5"/>
<path d="M10.7201 791.78C24.7201 783.78 41.5701 778.58 56.9901 783.3C66.5901 786.23 74.7501 792.77 81.3301 800.35C95.9393 817.346 103.41 839.332 102.18 861.71C101.33 876.03 96.9001 890.21 98.4201 904.48C99.1601 911.48 101.32 918.62 99.3201 925.35C95.8101 937.23 81.4901 941.9 69.0901 942.7C54.0901 943.7 37.4101 940.83 27.9701 929.16C18.7101 917.71 19.4601 900.88 9.85014 889.8C-1.28986 876.95 -21.5399 880.55 -31.5499 866.8C-51.7199 838.89 -10.1999 803.72 10.7201 791.78Z" stroke="#FCD7B7" stroke-width="2" stroke-miterlimit="10"/>
<path d="M98.0305 998.9C96.1805 1008.77 99.0305 1018.9 102.201 1028.39C107.591 1044.39 115.381 1061.45 130.661 1068.71C145.271 1075.65 163.071 1071.51 176.811 1062.99C184.951 1057.99 192.511 1050.99 195.241 1041.76C198.691 1030.13 193.631 1017.44 185.911 1008.08C168.831 987.34 106.351 954.5 98.0305 998.9Z" stroke="#FCD7B7" stroke-width="2" stroke-miterlimit="10"/>
<path d="M902.861 468.9C848.461 436.2 789.501 408.47 726.441 401.18C663.381 393.89 595.381 409.43 549.801 453.62C503.581 498.42 486.091 568.28 497.741 631.62C504.581 668.77 520.591 705.62 514.601 742.91C509.901 772.24 492.021 797.91 485.121 826.81C477.331 859.45 486.831 898.44 515.501 915.87C539.961 930.74 570.821 926.79 599.401 925.25C656.401 922.19 718.991 933.47 756.971 976.15C769.621 990.37 779.141 1007.64 794.301 1019.15C811.551 1032.25 834.541 1036.27 856.011 1033.42C877.481 1030.57 897.651 1021.37 916.221 1010.22C973.483 975.821 1017.22 922.834 1040.15 860.092C1063.08 797.35 1063.81 728.645 1042.22 665.43C1035.11 644.63 1025.67 624.76 1017.41 604.43C1009.97 586.12 1007.68 562.43 998.281 545.56C980.091 513 933.711 487.44 902.861 468.9Z" stroke="#FCD7B7" stroke-width="2" stroke-miterlimit="10"/>
</g>
<defs>
<clipPath id="clip0_419_9578">
<rect width="1106.7" height="1278" fill="white" transform="translate(-48)"/>
</clipPath>
</defs>
</svg>
